<?xml version="1.0" encoding="utf-8" standalone="no"?>
<!DOCTYPE svg PUBLIC "-//W3C//DTD SVG 1.1//EN"
  "http://www.w3.org/Graphics/SVG/1.1/DTD/svg11.dtd">
<svg height="425.806805pt" version="1.1" viewBox="0 0 859.966563 425.806805" width="859.966563pt" xmlns="http://www.w3.org/2000/svg" xmlns:xlink="http://www.w3.org/1999/xlink">
 <metadata>
  <rdf:RDF xmlns:cc="http://creativecommons.org/ns#" xmlns:dc="http://purl.org/dc/elements/1.1/" xmlns:rdf="http://www.w3.org/1999/02/22-rdf-syntax-ns#">
   <cc:Work>
    <dc:type rdf:resource="http://purl.org/dc/dcmitype/StillImage"/>
    <dc:date>2024-01-04T10:27:11.429717</dc:date>
    <dc:format>image/svg+xml</dc:format>
    <dc:creator>
     <cc:Agent>
      <dc:title>Matplotlib v3.4.0, https://matplotlib.org/</dc:title>
     </cc:Agent>
    </dc:creator>
   </cc:Work>
  </rdf:RDF>
 </metadata>
 <defs>
  <style type="text/css">*{stroke-linecap:butt;stroke-linejoin:round;}</style>
 </defs>
 <g id="figure_1">
  <g id="patch_1">
   <path d="M 0 425.806805 
L 859.966563 425.806805 
L 859.966563 0 
L 0 0 
z
" style="fill:#ffffff;"/>
  </g>
  <g id="axes_1">
   <g id="patch_2">
    <path d="M 60.096563 376.565195 
L 852.766563 376.565195 
L 852.766563 13.105195 
L 60.096563 13.105195 
z
" style="fill:#ffffff;"/>
   </g>
   <g id="matplotlib.axis_1">
    <g id="xtick_1">
     <g id="line2d_1">
      <defs>
       <path d="M 0 0 
L 0 6 
" id="m3dac041b5b" style="stroke:#262626;stroke-width:1.25;"/>
      </defs>
      <g>
       <use style="fill:#262626;stroke:#262626;stroke-width:1.25;" x="192.208229" xlink:href="#m3dac041b5b" y="376.565195"/>
      </g>
     </g>
     <g id="text_1">
      <!-- Platform A: -->
      <g style="fill:#262626;" transform="translate(151.860573 397.875586)scale(0.165 -0.165)">
       <defs>
        <path d="M 494 0 
L 494 4581 
L 2222 4581 
Q 2678 4581 2919 4538 
Q 3256 4481 3484 4323 
Q 3713 4166 3852 3881 
Q 3991 3597 3991 3256 
Q 3991 2672 3619 2267 
Q 3247 1863 2275 1863 
L 1100 1863 
L 1100 0 
L 494 0 
z
M 1100 2403 
L 2284 2403 
Q 2872 2403 3119 2622 
Q 3366 2841 3366 3238 
Q 3366 3525 3220 3729 
Q 3075 3934 2838 4000 
Q 2684 4041 2272 4041 
L 1100 4041 
L 1100 2403 
z
" id="ArialMT-50" transform="scale(0.015625)"/>
        <path d="M 409 0 
L 409 4581 
L 972 4581 
L 972 0 
L 409 0 
z
" id="ArialMT-6c" transform="scale(0.015625)"/>
        <path d="M 2588 409 
Q 2275 144 1986 34 
Q 1697 -75 1366 -75 
Q 819 -75 525 192 
Q 231 459 231 875 
Q 231 1119 342 1320 
Q 453 1522 633 1644 
Q 813 1766 1038 1828 
Q 1203 1872 1538 1913 
Q 2219 1994 2541 2106 
Q 2544 2222 2544 2253 
Q 2544 2597 2384 2738 
Q 2169 2928 1744 2928 
Q 1347 2928 1158 2789 
Q 969 2650 878 2297 
L 328 2372 
Q 403 2725 575 2942 
Q 747 3159 1072 3276 
Q 1397 3394 1825 3394 
Q 2250 3394 2515 3294 
Q 2781 3194 2906 3042 
Q 3031 2891 3081 2659 
Q 3109 2516 3109 2141 
L 3109 1391 
Q 3109 606 3145 398 
Q 3181 191 3288 0 
L 2700 0 
Q 2613 175 2588 409 
z
M 2541 1666 
Q 2234 1541 1622 1453 
Q 1275 1403 1131 1340 
Q 988 1278 909 1158 
Q 831 1038 831 891 
Q 831 666 1001 516 
Q 1172 366 1500 366 
Q 1825 366 2078 508 
Q 2331 650 2450 897 
Q 2541 1088 2541 1459 
L 2541 1666 
z
" id="ArialMT-61" transform="scale(0.015625)"/>
        <path d="M 1650 503 
L 1731 6 
Q 1494 -44 1306 -44 
Q 1000 -44 831 53 
Q 663 150 594 308 
Q 525 466 525 972 
L 525 2881 
L 113 2881 
L 113 3319 
L 525 3319 
L 525 4141 
L 1084 4478 
L 1084 3319 
L 1650 3319 
L 1650 2881 
L 1084 2881 
L 1084 941 
Q 1084 700 1114 631 
Q 1144 563 1211 522 
Q 1278 481 1403 481 
Q 1497 481 1650 503 
z
" id="ArialMT-74" transform="scale(0.015625)"/>
        <path d="M 556 0 
L 556 2881 
L 59 2881 
L 59 3319 
L 556 3319 
L 556 3672 
Q 556 4006 616 4169 
Q 697 4388 901 4523 
Q 1106 4659 1475 4659 
Q 1713 4659 2000 4603 
L 1916 4113 
Q 1741 4144 1584 4144 
Q 1328 4144 1222 4034 
Q 1116 3925 1116 3625 
L 1116 3319 
L 1763 3319 
L 1763 2881 
L 1116 2881 
L 1116 0 
L 556 0 
z
" id="ArialMT-66" transform="scale(0.015625)"/>
        <path d="M 213 1659 
Q 213 2581 725 3025 
Q 1153 3394 1769 3394 
Q 2453 3394 2887 2945 
Q 3322 2497 3322 1706 
Q 3322 1066 3130 698 
Q 2938 331 2570 128 
Q 2203 -75 1769 -75 
Q 1072 -75 642 372 
Q 213 819 213 1659 
z
M 791 1659 
Q 791 1022 1069 705 
Q 1347 388 1769 388 
Q 2188 388 2466 706 
Q 2744 1025 2744 1678 
Q 2744 2294 2464 2611 
Q 2184 2928 1769 2928 
Q 1347 2928 1069 2612 
Q 791 2297 791 1659 
z
" id="ArialMT-6f" transform="scale(0.015625)"/>
        <path d="M 416 0 
L 416 3319 
L 922 3319 
L 922 2816 
Q 1116 3169 1280 3281 
Q 1444 3394 1641 3394 
Q 1925 3394 2219 3213 
L 2025 2691 
Q 1819 2813 1613 2813 
Q 1428 2813 1281 2702 
Q 1134 2591 1072 2394 
Q 978 2094 978 1738 
L 978 0 
L 416 0 
z
" id="ArialMT-72" transform="scale(0.015625)"/>
        <path d="M 422 0 
L 422 3319 
L 925 3319 
L 925 2853 
Q 1081 3097 1340 3245 
Q 1600 3394 1931 3394 
Q 2300 3394 2536 3241 
Q 2772 3088 2869 2813 
Q 3263 3394 3894 3394 
Q 4388 3394 4653 3120 
Q 4919 2847 4919 2278 
L 4919 0 
L 4359 0 
L 4359 2091 
Q 4359 2428 4304 2576 
Q 4250 2725 4106 2815 
Q 3963 2906 3769 2906 
Q 3419 2906 3187 2673 
Q 2956 2441 2956 1928 
L 2956 0 
L 2394 0 
L 2394 2156 
Q 2394 2531 2256 2718 
Q 2119 2906 1806 2906 
Q 1569 2906 1367 2781 
Q 1166 2656 1075 2415 
Q 984 2175 984 1722 
L 984 0 
L 422 0 
z
" id="ArialMT-6d" transform="scale(0.015625)"/>
        <path id="ArialMT-20" transform="scale(0.015625)"/>
        <path d="M -9 0 
L 1750 4581 
L 2403 4581 
L 4278 0 
L 3588 0 
L 3053 1388 
L 1138 1388 
L 634 0 
L -9 0 
z
M 1313 1881 
L 2866 1881 
L 2388 3150 
Q 2169 3728 2063 4100 
Q 1975 3659 1816 3225 
L 1313 1881 
z
" id="ArialMT-41" transform="scale(0.015625)"/>
        <path d="M 578 2678 
L 578 3319 
L 1219 3319 
L 1219 2678 
L 578 2678 
z
M 578 0 
L 578 641 
L 1219 641 
L 1219 0 
L 578 0 
z
" id="ArialMT-3a" transform="scale(0.015625)"/>
       </defs>
       <use xlink:href="#ArialMT-50"/>
       <use x="66.699219" xlink:href="#ArialMT-6c"/>
       <use x="88.916016" xlink:href="#ArialMT-61"/>
       <use x="144.53125" xlink:href="#ArialMT-74"/>
       <use x="172.314453" xlink:href="#ArialMT-66"/>
       <use x="200.097656" xlink:href="#ArialMT-6f"/>
       <use x="255.712891" xlink:href="#ArialMT-72"/>
       <use x="289.013672" xlink:href="#ArialMT-6d"/>
       <use x="372.314453" xlink:href="#ArialMT-20"/>
       <use x="394.597656" xlink:href="#ArialMT-41"/>
       <use x="461.296875" xlink:href="#ArialMT-3a"/>
      </g>
      <!-- Over-constrained -->
      <g style="fill:#262626;" transform="translate(128.935885 415.32743)scale(0.165 -0.165)">
       <defs>
        <path d="M 309 2231 
Q 309 3372 921 4017 
Q 1534 4663 2503 4663 
Q 3138 4663 3647 4359 
Q 4156 4056 4423 3514 
Q 4691 2972 4691 2284 
Q 4691 1588 4409 1038 
Q 4128 488 3612 205 
Q 3097 -78 2500 -78 
Q 1853 -78 1343 234 
Q 834 547 571 1087 
Q 309 1628 309 2231 
z
M 934 2222 
Q 934 1394 1379 917 
Q 1825 441 2497 441 
Q 3181 441 3623 922 
Q 4066 1403 4066 2288 
Q 4066 2847 3877 3264 
Q 3688 3681 3323 3911 
Q 2959 4141 2506 4141 
Q 1863 4141 1398 3698 
Q 934 3256 934 2222 
z
" id="ArialMT-4f" transform="scale(0.015625)"/>
        <path d="M 1344 0 
L 81 3319 
L 675 3319 
L 1388 1331 
Q 1503 1009 1600 663 
Q 1675 925 1809 1294 
L 2547 3319 
L 3125 3319 
L 1869 0 
L 1344 0 
z
" id="ArialMT-76" transform="scale(0.015625)"/>
        <path d="M 2694 1069 
L 3275 997 
Q 3138 488 2766 206 
Q 2394 -75 1816 -75 
Q 1088 -75 661 373 
Q 234 822 234 1631 
Q 234 2469 665 2931 
Q 1097 3394 1784 3394 
Q 2450 3394 2872 2941 
Q 3294 2488 3294 1666 
Q 3294 1616 3291 1516 
L 816 1516 
Q 847 969 1125 678 
Q 1403 388 1819 388 
Q 2128 388 2347 550 
Q 2566 713 2694 1069 
z
M 847 1978 
L 2700 1978 
Q 2663 2397 2488 2606 
Q 2219 2931 1791 2931 
Q 1403 2931 1139 2672 
Q 875 2413 847 1978 
z
" id="ArialMT-65" transform="scale(0.015625)"/>
        <path d="M 203 1375 
L 203 1941 
L 1931 1941 
L 1931 1375 
L 203 1375 
z
" id="ArialMT-2d" transform="scale(0.015625)"/>
        <path d="M 2588 1216 
L 3141 1144 
Q 3050 572 2676 248 
Q 2303 -75 1759 -75 
Q 1078 -75 664 370 
Q 250 816 250 1647 
Q 250 2184 428 2587 
Q 606 2991 970 3192 
Q 1334 3394 1763 3394 
Q 2303 3394 2647 3120 
Q 2991 2847 3088 2344 
L 2541 2259 
Q 2463 2594 2264 2762 
Q 2066 2931 1784 2931 
Q 1359 2931 1093 2626 
Q 828 2322 828 1663 
Q 828 994 1084 691 
Q 1341 388 1753 388 
Q 2084 388 2306 591 
Q 2528 794 2588 1216 
z
" id="ArialMT-63" transform="scale(0.015625)"/>
        <path d="M 422 0 
L 422 3319 
L 928 3319 
L 928 2847 
Q 1294 3394 1984 3394 
Q 2284 3394 2536 3286 
Q 2788 3178 2913 3003 
Q 3038 2828 3088 2588 
Q 3119 2431 3119 2041 
L 3119 0 
L 2556 0 
L 2556 2019 
Q 2556 2363 2490 2533 
Q 2425 2703 2258 2804 
Q 2091 2906 1866 2906 
Q 1506 2906 1245 2678 
Q 984 2450 984 1813 
L 984 0 
L 422 0 
z
" id="ArialMT-6e" transform="scale(0.015625)"/>
        <path d="M 197 991 
L 753 1078 
Q 800 744 1014 566 
Q 1228 388 1613 388 
Q 2000 388 2187 545 
Q 2375 703 2375 916 
Q 2375 1106 2209 1216 
Q 2094 1291 1634 1406 
Q 1016 1563 777 1677 
Q 538 1791 414 1992 
Q 291 2194 291 2438 
Q 291 2659 392 2848 
Q 494 3038 669 3163 
Q 800 3259 1026 3326 
Q 1253 3394 1513 3394 
Q 1903 3394 2198 3281 
Q 2494 3169 2634 2976 
Q 2775 2784 2828 2463 
L 2278 2388 
Q 2241 2644 2061 2787 
Q 1881 2931 1553 2931 
Q 1166 2931 1000 2803 
Q 834 2675 834 2503 
Q 834 2394 903 2306 
Q 972 2216 1119 2156 
Q 1203 2125 1616 2013 
Q 2213 1853 2448 1751 
Q 2684 1650 2818 1456 
Q 2953 1263 2953 975 
Q 2953 694 2789 445 
Q 2625 197 2315 61 
Q 2006 -75 1616 -75 
Q 969 -75 630 194 
Q 291 463 197 991 
z
" id="ArialMT-73" transform="scale(0.015625)"/>
        <path d="M 425 3934 
L 425 4581 
L 988 4581 
L 988 3934 
L 425 3934 
z
M 425 0 
L 425 3319 
L 988 3319 
L 988 0 
L 425 0 
z
" id="ArialMT-69" transform="scale(0.015625)"/>
        <path d="M 2575 0 
L 2575 419 
Q 2259 -75 1647 -75 
Q 1250 -75 917 144 
Q 584 363 401 755 
Q 219 1147 219 1656 
Q 219 2153 384 2558 
Q 550 2963 881 3178 
Q 1213 3394 1622 3394 
Q 1922 3394 2156 3267 
Q 2391 3141 2538 2938 
L 2538 4581 
L 3097 4581 
L 3097 0 
L 2575 0 
z
M 797 1656 
Q 797 1019 1065 703 
Q 1334 388 1700 388 
Q 2069 388 2326 689 
Q 2584 991 2584 1609 
Q 2584 2291 2321 2609 
Q 2059 2928 1675 2928 
Q 1300 2928 1048 2622 
Q 797 2316 797 1656 
z
" id="ArialMT-64" transform="scale(0.015625)"/>
       </defs>
       <use xlink:href="#ArialMT-4f"/>
       <use x="77.783203" xlink:href="#ArialMT-76"/>
       <use x="127.783203" xlink:href="#ArialMT-65"/>
       <use x="183.398438" xlink:href="#ArialMT-72"/>
       <use x="216.699219" xlink:href="#ArialMT-2d"/>
       <use x="250" xlink:href="#ArialMT-63"/>
       <use x="300" xlink:href="#ArialMT-6f"/>
       <use x="355.615234" xlink:href="#ArialMT-6e"/>
       <use x="411.230469" xlink:href="#ArialMT-73"/>
       <use x="461.230469" xlink:href="#ArialMT-74"/>
       <use x="489.013672" xlink:href="#ArialMT-72"/>
       <use x="522.314453" xlink:href="#ArialMT-61"/>
       <use x="577.929688" xlink:href="#ArialMT-69"/>
       <use x="600.146484" xlink:href="#ArialMT-6e"/>
       <use x="655.761719" xlink:href="#ArialMT-65"/>
       <use x="711.376953" xlink:href="#ArialMT-64"/>
      </g>
     </g>
    </g>
    <g id="xtick_2">
     <g id="line2d_2">
      <g>
       <use style="fill:#262626;stroke:#262626;stroke-width:1.25;" x="456.431563" xlink:href="#m3dac041b5b" y="376.565195"/>
      </g>
     </g>
     <g id="text_2">
      <!-- Platform B: -->
      <g style="fill:#262626;" transform="translate(415.630156 397.875586)scale(0.165 -0.165)">
       <defs>
        <path d="M 469 0 
L 469 4581 
L 2188 4581 
Q 2713 4581 3030 4442 
Q 3347 4303 3526 4014 
Q 3706 3725 3706 3409 
Q 3706 3116 3547 2856 
Q 3388 2597 3066 2438 
Q 3481 2316 3704 2022 
Q 3928 1728 3928 1328 
Q 3928 1006 3792 729 
Q 3656 453 3456 303 
Q 3256 153 2954 76 
Q 2653 0 2216 0 
L 469 0 
z
M 1075 2656 
L 2066 2656 
Q 2469 2656 2644 2709 
Q 2875 2778 2992 2937 
Q 3109 3097 3109 3338 
Q 3109 3566 3000 3739 
Q 2891 3913 2687 3977 
Q 2484 4041 1991 4041 
L 1075 4041 
L 1075 2656 
z
M 1075 541 
L 2216 541 
Q 2509 541 2628 563 
Q 2838 600 2978 687 
Q 3119 775 3209 942 
Q 3300 1109 3300 1328 
Q 3300 1584 3169 1773 
Q 3038 1963 2805 2039 
Q 2572 2116 2134 2116 
L 1075 2116 
L 1075 541 
z
" id="ArialMT-42" transform="scale(0.015625)"/>
       </defs>
       <use xlink:href="#ArialMT-50"/>
       <use x="66.699219" xlink:href="#ArialMT-6c"/>
       <use x="88.916016" xlink:href="#ArialMT-61"/>
       <use x="144.53125" xlink:href="#ArialMT-74"/>
       <use x="172.314453" xlink:href="#ArialMT-66"/>
       <use x="200.097656" xlink:href="#ArialMT-6f"/>
       <use x="255.712891" xlink:href="#ArialMT-72"/>
       <use x="289.013672" xlink:href="#ArialMT-6d"/>
       <use x="372.314453" xlink:href="#ArialMT-20"/>
       <use x="400.097656" xlink:href="#ArialMT-42"/>
       <use x="466.796875" xlink:href="#ArialMT-3a"/>
      </g>
      <!-- Under-constrained -->
      <g style="fill:#262626;" transform="translate(388.567578 415.32743)scale(0.165 -0.165)">
       <defs>
        <path d="M 3500 4581 
L 4106 4581 
L 4106 1934 
Q 4106 1244 3950 837 
Q 3794 431 3386 176 
Q 2978 -78 2316 -78 
Q 1672 -78 1262 144 
Q 853 366 678 786 
Q 503 1206 503 1934 
L 503 4581 
L 1109 4581 
L 1109 1938 
Q 1109 1341 1220 1058 
Q 1331 775 1601 622 
Q 1872 469 2263 469 
Q 2931 469 3215 772 
Q 3500 1075 3500 1938 
L 3500 4581 
z
" id="ArialMT-55" transform="scale(0.015625)"/>
       </defs>
       <use xlink:href="#ArialMT-55"/>
       <use x="72.216797" xlink:href="#ArialMT-6e"/>
       <use x="127.832031" xlink:href="#ArialMT-64"/>
       <use x="183.447266" xlink:href="#ArialMT-65"/>
       <use x="239.0625" xlink:href="#ArialMT-72"/>
       <use x="272.363281" xlink:href="#ArialMT-2d"/>
       <use x="305.664062" xlink:href="#ArialMT-63"/>
       <use x="355.664062" xlink:href="#ArialMT-6f"/>
       <use x="411.279297" xlink:href="#ArialMT-6e"/>
       <use x="466.894531" xlink:href="#ArialMT-73"/>
       <use x="516.894531" xlink:href="#ArialMT-74"/>
       <use x="544.677734" xlink:href="#ArialMT-72"/>
       <use x="577.978516" xlink:href="#ArialMT-61"/>
       <use x="633.59375" xlink:href="#ArialMT-69"/>
       <use x="655.810547" xlink:href="#ArialMT-6e"/>
       <use x="711.425781" xlink:href="#ArialMT-65"/>
       <use x="767.041016" xlink:href="#ArialMT-64"/>
      </g>
     </g>
    </g>
    <g id="xtick_3">
     <g id="line2d_3">
      <g>
       <use style="fill:#262626;stroke:#262626;stroke-width:1.25;" x="720.654896" xlink:href="#m3dac041b5b" y="376.565195"/>
      </g>
     </g>
     <g id="text_3">
      <!-- Platform C: -->
      <g style="fill:#262626;" transform="translate(679.398451 397.875586)scale(0.165 -0.165)">
       <defs>
        <path d="M 3763 1606 
L 4369 1453 
Q 4178 706 3683 314 
Q 3188 -78 2472 -78 
Q 1731 -78 1267 223 
Q 803 525 561 1097 
Q 319 1669 319 2325 
Q 319 3041 592 3573 
Q 866 4106 1370 4382 
Q 1875 4659 2481 4659 
Q 3169 4659 3637 4309 
Q 4106 3959 4291 3325 
L 3694 3184 
Q 3534 3684 3231 3912 
Q 2928 4141 2469 4141 
Q 1941 4141 1586 3887 
Q 1231 3634 1087 3207 
Q 944 2781 944 2328 
Q 944 1744 1114 1308 
Q 1284 872 1643 656 
Q 2003 441 2422 441 
Q 2931 441 3284 734 
Q 3638 1028 3763 1606 
z
" id="ArialMT-43" transform="scale(0.015625)"/>
       </defs>
       <use xlink:href="#ArialMT-50"/>
       <use x="66.699219" xlink:href="#ArialMT-6c"/>
       <use x="88.916016" xlink:href="#ArialMT-61"/>
       <use x="144.53125" xlink:href="#ArialMT-74"/>
       <use x="172.314453" xlink:href="#ArialMT-66"/>
       <use x="200.097656" xlink:href="#ArialMT-6f"/>
       <use x="255.712891" xlink:href="#ArialMT-72"/>
       <use x="289.013672" xlink:href="#ArialMT-6d"/>
       <use x="372.314453" xlink:href="#ArialMT-20"/>
       <use x="400.097656" xlink:href="#ArialMT-43"/>
       <use x="472.314453" xlink:href="#ArialMT-3a"/>
      </g>
      <!-- Balanced -->
      <g style="fill:#262626;" transform="translate(686.254974 415.32743)scale(0.165 -0.165)">
       <use xlink:href="#ArialMT-42"/>
       <use x="66.699219" xlink:href="#ArialMT-61"/>
       <use x="122.314453" xlink:href="#ArialMT-6c"/>
       <use x="144.53125" xlink:href="#ArialMT-61"/>
       <use x="200.146484" xlink:href="#ArialMT-6e"/>
       <use x="255.761719" xlink:href="#ArialMT-63"/>
       <use x="305.761719" xlink:href="#ArialMT-65"/>
       <use x="361.376953" xlink:href="#ArialMT-64"/>
      </g>
     </g>
    </g>
   </g>
   <g id="matplotlib.axis_2">
    <g id="ytick_1">
     <g id="line2d_4">
      <path clip-path="url(#pc9c19469b6)" d="M 60.096563 376.565195 
L 852.766563 376.565195 
" style="fill:none;stroke:#cccccc;stroke-linecap:round;"/>
     </g>
     <g id="line2d_5">
      <defs>
       <path d="M 0 0 
L -6 0 
" id="m25aa93246a" style="stroke:#262626;stroke-width:1.25;"/>
      </defs>
      <g>
       <use style="fill:#262626;stroke:#262626;stroke-width:1.25;" x="60.096563" xlink:href="#m25aa93246a" y="376.565195"/>
      </g>
     </g>
     <g id="text_4">
      <!-- 0.0 -->
      <g style="fill:#262626;" transform="translate(27.661563 382.470391)scale(0.165 -0.165)">
       <defs>
        <path d="M 266 2259 
Q 266 3072 433 3567 
Q 600 4063 929 4331 
Q 1259 4600 1759 4600 
Q 2128 4600 2406 4451 
Q 2684 4303 2865 4023 
Q 3047 3744 3150 3342 
Q 3253 2941 3253 2259 
Q 3253 1453 3087 958 
Q 2922 463 2592 192 
Q 2263 -78 1759 -78 
Q 1097 -78 719 397 
Q 266 969 266 2259 
z
M 844 2259 
Q 844 1131 1108 757 
Q 1372 384 1759 384 
Q 2147 384 2411 759 
Q 2675 1134 2675 2259 
Q 2675 3391 2411 3762 
Q 2147 4134 1753 4134 
Q 1366 4134 1134 3806 
Q 844 3388 844 2259 
z
" id="ArialMT-30" transform="scale(0.015625)"/>
        <path d="M 581 0 
L 581 641 
L 1222 641 
L 1222 0 
L 581 0 
z
" id="ArialMT-2e" transform="scale(0.015625)"/>
       </defs>
       <use xlink:href="#ArialMT-30"/>
       <use x="55.615234" xlink:href="#ArialMT-2e"/>
       <use x="83.398438" xlink:href="#ArialMT-30"/>
      </g>
     </g>
    </g>
    <g id="ytick_2">
     <g id="line2d_6">
      <path clip-path="url(#pc9c19469b6)" d="M 60.096563 315.988529 
L 852.766563 315.988529 
" style="fill:none;stroke:#cccccc;stroke-linecap:round;"/>
     </g>
     <g id="line2d_7">
      <g>
       <use style="fill:#262626;stroke:#262626;stroke-width:1.25;" x="60.096563" xlink:href="#m25aa93246a" y="315.988529"/>
      </g>
     </g>
     <g id="text_5">
      <!-- 0.2 -->
      <g style="fill:#262626;" transform="translate(27.661563 321.893724)scale(0.165 -0.165)">
       <defs>
        <path d="M 3222 541 
L 3222 0 
L 194 0 
Q 188 203 259 391 
Q 375 700 629 1000 
Q 884 1300 1366 1694 
Q 2113 2306 2375 2664 
Q 2638 3022 2638 3341 
Q 2638 3675 2398 3904 
Q 2159 4134 1775 4134 
Q 1369 4134 1125 3890 
Q 881 3647 878 3216 
L 300 3275 
Q 359 3922 746 4261 
Q 1134 4600 1788 4600 
Q 2447 4600 2831 4234 
Q 3216 3869 3216 3328 
Q 3216 3053 3103 2787 
Q 2991 2522 2730 2228 
Q 2469 1934 1863 1422 
Q 1356 997 1212 845 
Q 1069 694 975 541 
L 3222 541 
z
" id="ArialMT-32" transform="scale(0.015625)"/>
       </defs>
       <use xlink:href="#ArialMT-30"/>
       <use x="55.615234" xlink:href="#ArialMT-2e"/>
       <use x="83.398438" xlink:href="#ArialMT-32"/>
      </g>
     </g>
    </g>
    <g id="ytick_3">
     <g id="line2d_8">
      <path clip-path="url(#pc9c19469b6)" d="M 60.096563 255.411862 
L 852.766563 255.411862 
" style="fill:none;stroke:#cccccc;stroke-linecap:round;"/>
     </g>
     <g id="line2d_9">
      <g>
       <use style="fill:#262626;stroke:#262626;stroke-width:1.25;" x="60.096563" xlink:href="#m25aa93246a" y="255.411862"/>
      </g>
     </g>
     <g id="text_6">
      <!-- 0.4 -->
      <g style="fill:#262626;" transform="translate(27.661563 261.317057)scale(0.165 -0.165)">
       <defs>
        <path d="M 2069 0 
L 2069 1097 
L 81 1097 
L 81 1613 
L 2172 4581 
L 2631 4581 
L 2631 1613 
L 3250 1613 
L 3250 1097 
L 2631 1097 
L 2631 0 
L 2069 0 
z
M 2069 1613 
L 2069 3678 
L 634 1613 
L 2069 1613 
z
" id="ArialMT-34" transform="scale(0.015625)"/>
       </defs>
       <use xlink:href="#ArialMT-30"/>
       <use x="55.615234" xlink:href="#ArialMT-2e"/>
       <use x="83.398438" xlink:href="#ArialMT-34"/>
      </g>
     </g>
    </g>
    <g id="ytick_4">
     <g id="line2d_10">
      <path clip-path="url(#pc9c19469b6)" d="M 60.096563 194.835195 
L 852.766563 194.835195 
" style="fill:none;stroke:#cccccc;stroke-linecap:round;"/>
     </g>
     <g id="line2d_11">
      <g>
       <use style="fill:#262626;stroke:#262626;stroke-width:1.25;" x="60.096563" xlink:href="#m25aa93246a" y="194.835195"/>
      </g>
     </g>
     <g id="text_7">
      <!-- 0.6 -->
      <g style="fill:#262626;" transform="translate(27.661563 200.740391)scale(0.165 -0.165)">
       <defs>
        <path d="M 3184 3459 
L 2625 3416 
Q 2550 3747 2413 3897 
Q 2184 4138 1850 4138 
Q 1581 4138 1378 3988 
Q 1113 3794 959 3422 
Q 806 3050 800 2363 
Q 1003 2672 1297 2822 
Q 1591 2972 1913 2972 
Q 2475 2972 2870 2558 
Q 3266 2144 3266 1488 
Q 3266 1056 3080 686 
Q 2894 316 2569 119 
Q 2244 -78 1831 -78 
Q 1128 -78 684 439 
Q 241 956 241 2144 
Q 241 3472 731 4075 
Q 1159 4600 1884 4600 
Q 2425 4600 2770 4297 
Q 3116 3994 3184 3459 
z
M 888 1484 
Q 888 1194 1011 928 
Q 1134 663 1356 523 
Q 1578 384 1822 384 
Q 2178 384 2434 671 
Q 2691 959 2691 1453 
Q 2691 1928 2437 2201 
Q 2184 2475 1800 2475 
Q 1419 2475 1153 2201 
Q 888 1928 888 1484 
z
" id="ArialMT-36" transform="scale(0.015625)"/>
       </defs>
       <use xlink:href="#ArialMT-30"/>
       <use x="55.615234" xlink:href="#ArialMT-2e"/>
       <use x="83.398438" xlink:href="#ArialMT-36"/>
      </g>
     </g>
    </g>
    <g id="ytick_5">
     <g id="line2d_12">
      <path clip-path="url(#pc9c19469b6)" d="M 60.096563 134.258529 
L 852.766563 134.258529 
" style="fill:none;stroke:#cccccc;stroke-linecap:round;"/>
     </g>
     <g id="line2d_13">
      <g>
       <use style="fill:#262626;stroke:#262626;stroke-width:1.25;" x="60.096563" xlink:href="#m25aa93246a" y="134.258529"/>
      </g>
     </g>
     <g id="text_8">
      <!-- 0.8 -->
      <g style="fill:#262626;" transform="translate(27.661563 140.163724)scale(0.165 -0.165)">
       <defs>
        <path d="M 1131 2484 
Q 781 2613 612 2850 
Q 444 3088 444 3419 
Q 444 3919 803 4259 
Q 1163 4600 1759 4600 
Q 2359 4600 2725 4251 
Q 3091 3903 3091 3403 
Q 3091 3084 2923 2848 
Q 2756 2613 2416 2484 
Q 2838 2347 3058 2040 
Q 3278 1734 3278 1309 
Q 3278 722 2862 322 
Q 2447 -78 1769 -78 
Q 1091 -78 675 323 
Q 259 725 259 1325 
Q 259 1772 486 2073 
Q 713 2375 1131 2484 
z
M 1019 3438 
Q 1019 3113 1228 2906 
Q 1438 2700 1772 2700 
Q 2097 2700 2305 2904 
Q 2513 3109 2513 3406 
Q 2513 3716 2298 3927 
Q 2084 4138 1766 4138 
Q 1444 4138 1231 3931 
Q 1019 3725 1019 3438 
z
M 838 1322 
Q 838 1081 952 856 
Q 1066 631 1291 507 
Q 1516 384 1775 384 
Q 2178 384 2440 643 
Q 2703 903 2703 1303 
Q 2703 1709 2433 1975 
Q 2163 2241 1756 2241 
Q 1359 2241 1098 1978 
Q 838 1716 838 1322 
z
" id="ArialMT-38" transform="scale(0.015625)"/>
       </defs>
       <use xlink:href="#ArialMT-30"/>
       <use x="55.615234" xlink:href="#ArialMT-2e"/>
       <use x="83.398438" xlink:href="#ArialMT-38"/>
      </g>
     </g>
    </g>
    <g id="ytick_6">
     <g id="line2d_14">
      <path clip-path="url(#pc9c19469b6)" d="M 60.096563 73.681862 
L 852.766563 73.681862 
" style="fill:none;stroke:#cccccc;stroke-linecap:round;"/>
     </g>
     <g id="line2d_15">
      <g>
       <use style="fill:#262626;stroke:#262626;stroke-width:1.25;" x="60.096563" xlink:href="#m25aa93246a" y="73.681862"/>
      </g>
     </g>
     <g id="text_9">
      <!-- 1.0 -->
      <g style="fill:#262626;" transform="translate(27.661563 79.587057)scale(0.165 -0.165)">
       <defs>
        <path d="M 2384 0 
L 1822 0 
L 1822 3584 
Q 1619 3391 1289 3197 
Q 959 3003 697 2906 
L 697 3450 
Q 1169 3672 1522 3987 
Q 1875 4303 2022 4600 
L 2384 4600 
L 2384 0 
z
" id="ArialMT-31" transform="scale(0.015625)"/>
       </defs>
       <use xlink:href="#ArialMT-31"/>
       <use x="55.615234" xlink:href="#ArialMT-2e"/>
       <use x="83.398438" xlink:href="#ArialMT-30"/>
      </g>
     </g>
    </g>
    <g id="ytick_7">
     <g id="line2d_16">
      <path clip-path="url(#pc9c19469b6)" d="M 60.096563 13.105195 
L 852.766563 13.105195 
" style="fill:none;stroke:#cccccc;stroke-linecap:round;"/>
     </g>
     <g id="line2d_17">
      <g>
       <use style="fill:#262626;stroke:#262626;stroke-width:1.25;" x="60.096563" xlink:href="#m25aa93246a" y="13.105195"/>
      </g>
     </g>
     <g id="text_10">
      <!-- 1.2 -->
      <g style="fill:#262626;" transform="translate(27.661563 19.010391)scale(0.165 -0.165)">
       <use xlink:href="#ArialMT-31"/>
       <use x="55.615234" xlink:href="#ArialMT-2e"/>
       <use x="83.398438" xlink:href="#ArialMT-32"/>
      </g>
     </g>
    </g>
    <g id="text_11">
     <!-- VWFO -->
     <g style="fill:#262626;" transform="translate(20.084063 221.830977)rotate(-90)scale(0.18 -0.18)">
      <defs>
       <path d="M 1803 0 
L 28 4581 
L 684 4581 
L 1875 1253 
Q 2019 853 2116 503 
Q 2222 878 2363 1253 
L 3600 4581 
L 4219 4581 
L 2425 0 
L 1803 0 
z
" id="ArialMT-56" transform="scale(0.015625)"/>
       <path d="M 1294 0 
L 78 4581 
L 700 4581 
L 1397 1578 
Q 1509 1106 1591 641 
Q 1766 1375 1797 1488 
L 2669 4581 
L 3400 4581 
L 4056 2263 
Q 4303 1400 4413 641 
Q 4500 1075 4641 1638 
L 5359 4581 
L 5969 4581 
L 4713 0 
L 4128 0 
L 3163 3491 
Q 3041 3928 3019 4028 
Q 2947 3713 2884 3491 
L 1913 0 
L 1294 0 
z
" id="ArialMT-57" transform="scale(0.015625)"/>
       <path d="M 525 0 
L 525 4581 
L 3616 4581 
L 3616 4041 
L 1131 4041 
L 1131 2622 
L 3281 2622 
L 3281 2081 
L 1131 2081 
L 1131 0 
L 525 0 
z
" id="ArialMT-46" transform="scale(0.015625)"/>
      </defs>
      <use xlink:href="#ArialMT-56"/>
      <use x="66.699219" xlink:href="#ArialMT-57"/>
      <use x="161.083984" xlink:href="#ArialMT-46"/>
      <use x="222.167969" xlink:href="#ArialMT-4f"/>
     </g>
    </g>
   </g>
   <g id="PolyCollection_1">
    <defs>
     <path d="M 192.936162 -134.323148 
L 191.480296 -134.323148 
L 191.293617 -137.012736 
L 191.068863 -139.702325 
L 190.800909 -142.391914 
L 190.48458 -145.081503 
L 190.114813 -147.771092 
L 189.686845 -150.460681 
L 189.196433 -153.15027 
L 188.640075 -155.839859 
L 188.015249 -158.529448 
L 187.320643 -161.219037 
L 186.556367 -163.908626 
L 185.72414 -166.598215 
L 184.827423 -169.287803 
L 183.871512 -171.977392 
L 182.863554 -174.666981 
L 181.812498 -177.35657 
L 180.728971 -180.046159 
L 179.625078 -182.735748 
L 178.514138 -185.425337 
L 177.410357 -188.114926 
L 176.328458 -190.804515 
L 175.283279 -193.494104 
L 174.289359 -196.183693 
L 173.360532 -198.873282 
L 172.509537 -201.56287 
L 171.747669 -204.252459 
L 171.084478 -206.942048 
L 170.527525 -209.631637 
L 170.082203 -212.321226 
L 169.751618 -215.010815 
L 169.536537 -217.700404 
L 169.435389 -220.389993 
L 169.444331 -223.079582 
L 169.557344 -225.769171 
L 169.766389 -228.45876 
L 170.061587 -231.148349 
L 170.43144 -233.837937 
L 170.863073 -236.527526 
L 171.342512 -239.217115 
L 171.854976 -241.906704 
L 172.385197 -244.596293 
L 172.917752 -247.285882 
L 173.437405 -249.975471 
L 173.929458 -252.66506 
L 174.380096 -255.354649 
L 174.776717 -258.044238 
L 175.108249 -260.733827 
L 175.36543 -263.423416 
L 175.541056 -266.113005 
L 175.630185 -268.802593 
L 175.63029 -271.492182 
L 175.541364 -274.181771 
L 175.365967 -276.87136 
L 175.109215 -279.560949 
L 174.778715 -282.250538 
L 174.38444 -284.940127 
L 173.93854 -287.629716 
L 173.455094 -290.319305 
L 172.949807 -293.008894 
L 172.439642 -295.698483 
L 171.942396 -298.388072 
L 171.476229 -301.07766 
L 171.059158 -303.767249 
L 170.708521 -306.456838 
L 170.440435 -309.146427 
L 170.269268 -311.836016 
L 170.207154 -314.525605 
L 170.263556 -317.215194 
L 170.44493 -319.904783 
L 170.754478 -322.594372 
L 171.192031 -325.283961 
L 171.754057 -327.97355 
L 172.433798 -330.663139 
L 173.22154 -333.352727 
L 174.104984 -336.042316 
L 175.069726 -338.731905 
L 176.099793 -341.421494 
L 177.178223 -344.111083 
L 178.287661 -346.800672 
L 179.410933 -349.490261 
L 180.531577 -352.17985 
L 181.634308 -354.869439 
L 182.705404 -357.559028 
L 183.73299 -360.248617 
L 184.707235 -362.938206 
L 185.620437 -365.627795 
L 186.467035 -368.317383 
L 187.243524 -371.006972 
L 187.94831 -373.696561 
L 188.581512 -376.38615 
L 189.144732 -379.075739 
L 189.640794 -381.765328 
L 190.073485 -384.454917 
L 190.447302 -387.144506 
L 190.767207 -389.834095 
L 191.038415 -392.523684 
L 191.266204 -395.213273 
L 191.45576 -397.902862 
L 191.61205 -400.59245 
L 192.804408 -400.59245 
L 192.804408 -400.59245 
L 192.960699 -397.902862 
L 193.150254 -395.213273 
L 193.378044 -392.523684 
L 193.649251 -389.834095 
L 193.969156 -387.144506 
L 194.342973 -384.454917 
L 194.775664 -381.765328 
L 195.271726 -379.075739 
L 195.834946 -376.38615 
L 196.468149 -373.696561 
L 197.172934 -371.006972 
L 197.949423 -368.317383 
L 198.796021 -365.627795 
L 199.709224 -362.938206 
L 200.683468 -360.248617 
L 201.711054 -357.559028 
L 202.78215 -354.869439 
L 203.884881 -352.17985 
L 205.005525 -349.490261 
L 206.128797 -346.800672 
L 207.238235 -344.111083 
L 208.316665 -341.421494 
L 209.346732 -338.731905 
L 210.311474 -336.042316 
L 211.194919 -333.352727 
L 211.98266 -330.663139 
L 212.662401 -327.97355 
L 213.224427 -325.283961 
L 213.66198 -322.594372 
L 213.971529 -319.904783 
L 214.152902 -317.215194 
L 214.209305 -314.525605 
L 214.14719 -311.836016 
L 213.976024 -309.146427 
L 213.707937 -306.456838 
L 213.3573 -303.767249 
L 212.94023 -301.07766 
L 212.474063 -298.388072 
L 211.976816 -295.698483 
L 211.466651 -293.008894 
L 210.961365 -290.319305 
L 210.477919 -287.629716 
L 210.032018 -284.940127 
L 209.637743 -282.250538 
L 209.307244 -279.560949 
L 209.050492 -276.87136 
L 208.875094 -274.181771 
L 208.786168 -271.492182 
L 208.786274 -268.802593 
L 208.875402 -266.113005 
L 209.051028 -263.423416 
L 209.308209 -260.733827 
L 209.639741 -258.044238 
L 210.036363 -255.354649 
L 210.487 -252.66506 
L 210.979054 -249.975471 
L 211.498707 -247.285882 
L 212.031261 -244.596293 
L 212.561482 -241.906704 
L 213.073947 -239.217115 
L 213.553385 -236.527526 
L 213.985019 -233.837937 
L 214.354871 -231.148349 
L 214.65007 -228.45876 
L 214.859115 -225.769171 
L 214.972128 -223.079582 
L 214.981069 -220.389993 
L 214.879922 -217.700404 
L 214.66484 -215.010815 
L 214.334255 -212.321226 
L 213.888933 -209.631637 
L 213.33198 -206.942048 
L 212.668789 -204.252459 
L 211.906921 -201.56287 
L 211.055926 -198.873282 
L 210.127099 -196.183693 
L 209.13318 -193.494104 
L 208.088 -190.804515 
L 207.006101 -188.114926 
L 205.90232 -185.425337 
L 204.79138 -182.735748 
L 203.687488 -180.046159 
L 202.60396 -177.35657 
L 201.552904 -174.666981 
L 200.544946 -171.977392 
L 199.589035 -169.287803 
L 198.692318 -166.598215 
L 197.860091 -163.908626 
L 197.095816 -161.219037 
L 196.40121 -158.529448 
L 195.776384 -155.839859 
L 195.220025 -153.15027 
L 194.729613 -150.460681 
L 194.301646 -147.771092 
L 193.931878 -145.081503 
L 193.615549 -142.391914 
L 193.347596 -139.702325 
L 193.122842 -137.012736 
L 192.936162 -134.323148 
z
" id="mccdea8cfa1" style="stroke:#8a8a8a;stroke-width:1.5;"/>
    </defs>
    <g clip-path="url(#pc9c19469b6)">
     <use style="fill:#e6e6e6;stroke:#8a8a8a;stroke-width:1.5;" x="0" xlink:href="#mccdea8cfa1" y="425.806805"/>
    </g>
   </g>
   <g id="PolyCollection_2">
    <defs>
     <path d="M 461.143259 -69.65514 
L 451.719866 -69.65514 
L 450.024089 -73.017654 
L 447.855207 -76.380168 
L 445.131064 -79.742682 
L 441.77102 -83.105197 
L 437.70122 -86.467711 
L 432.860588 -89.830225 
L 427.20714 -93.19274 
L 420.724093 -96.555254 
L 413.425165 -99.917768 
L 405.358501 -103.280283 
L 396.608676 -106.642797 
L 387.296424 -110.005311 
L 377.575913 -113.367825 
L 367.62961 -116.73034 
L 357.661039 -120.092854 
L 347.885899 -123.455368 
L 338.522152 -126.817883 
L 329.779761 -130.180397 
L 321.850738 -133.542911 
L 314.900089 -136.905426 
L 309.058154 -140.26794 
L 304.414695 -143.630454 
L 301.015 -146.992969 
L 298.858151 -150.355483 
L 297.897563 -153.717997 
L 298.043787 -157.080511 
L 299.169549 -160.443026 
L 301.116828 -163.80554 
L 303.70572 -167.168054 
L 306.74462 -170.530569 
L 310.041134 -173.893083 
L 313.412986 -177.255597 
L 316.698093 -180.618112 
L 319.763018 -183.980626 
L 322.509073 -187.34314 
L 324.875559 -190.705654 
L 326.839906 -194.068169 
L 328.414776 -197.430683 
L 329.642521 -200.793197 
L 330.587641 -204.155712 
L 331.328066 -207.518226 
L 331.946182 -210.88074 
L 332.520457 -214.243255 
L 333.118399 -217.605769 
L 333.791355 -220.968283 
L 334.57144 -224.330798 
L 335.470606 -227.693312 
L 336.481666 -231.055826 
L 337.580956 -234.41834 
L 338.732188 -237.780855 
L 339.891049 -241.143369 
L 341.010122 -244.505883 
L 342.043733 -247.868398 
L 342.95241 -251.230912 
L 343.706677 -254.593426 
L 344.289974 -257.955941 
L 344.700529 -261.318455 
L 344.952046 -264.680969 
L 345.073152 -268.043483 
L 345.105597 -271.405998 
L 345.101324 -274.768512 
L 345.1186 -278.131026 
L 345.217551 -281.493541 
L 345.455503 -284.856055 
L 345.882619 -288.218569 
L 346.538301 -291.581084 
L 347.448787 -294.943598 
L 348.626251 -298.306112 
L 350.069538 -301.668627 
L 351.766452 -305.031141 
L 353.697322 -308.393655 
L 355.839361 -311.756169 
L 358.17122 -315.118684 
L 360.677091 -318.481198 
L 363.349724 -321.843712 
L 366.191899 -325.206227 
L 369.216076 -328.568741 
L 372.442196 -331.931255 
L 375.893915 -335.29377 
L 379.593734 -338.656284 
L 383.557709 -342.018798 
L 387.790482 -345.381312 
L 392.281318 -348.743827 
L 397.001757 -352.106341 
L 401.905209 -355.468855 
L 406.928588 -358.83137 
L 411.995806 -362.193884 
L 417.0227 -365.556398 
L 421.922795 -368.918913 
L 426.613224 -372.281427 
L 431.02017 -375.643941 
L 435.08326 -379.006456 
L 438.758542 -382.36897 
L 442.019876 -385.731484 
L 444.858767 -389.093998 
L 447.282833 -392.456513 
L 449.31326 -395.819027 
L 450.981619 -399.181541 
L 452.326448 -402.544056 
L 460.536677 -402.544056 
L 460.536677 -402.544056 
L 461.881506 -399.181541 
L 463.549865 -395.819027 
L 465.580292 -392.456513 
L 468.004358 -389.093998 
L 470.843249 -385.731484 
L 474.104583 -382.36897 
L 477.779865 -379.006456 
L 481.842955 -375.643941 
L 486.249901 -372.281427 
L 490.94033 -368.918913 
L 495.840425 -365.556398 
L 500.867319 -362.193884 
L 505.934537 -358.83137 
L 510.957916 -355.468855 
L 515.861368 -352.106341 
L 520.581807 -348.743827 
L 525.072643 -345.381312 
L 529.305416 -342.018798 
L 533.269391 -338.656284 
L 536.96921 -335.29377 
L 540.420929 -331.931255 
L 543.647049 -328.568741 
L 546.671226 -325.206227 
L 549.513401 -321.843712 
L 552.186034 -318.481198 
L 554.691905 -315.118684 
L 557.023764 -311.756169 
L 559.165803 -308.393655 
L 561.096673 -305.031141 
L 562.793587 -301.668627 
L 564.236874 -298.306112 
L 565.414338 -294.943598 
L 566.324824 -291.581084 
L 566.980506 -288.218569 
L 567.407622 -284.856055 
L 567.645574 -281.493541 
L 567.744525 -278.131026 
L 567.761801 -274.768512 
L 567.757528 -271.405998 
L 567.789973 -268.043483 
L 567.911079 -264.680969 
L 568.162596 -261.318455 
L 568.573151 -257.955941 
L 569.156448 -254.593426 
L 569.910715 -251.230912 
L 570.819392 -247.868398 
L 571.853003 -244.505883 
L 572.972076 -241.143369 
L 574.130937 -237.780855 
L 575.282169 -234.41834 
L 576.381459 -231.055826 
L 577.392519 -227.693312 
L 578.291685 -224.330798 
L 579.07177 -220.968283 
L 579.744726 -217.605769 
L 580.342668 -214.243255 
L 580.916943 -210.88074 
L 581.535059 -207.518226 
L 582.275484 -204.155712 
L 583.220604 -200.793197 
L 584.448349 -197.430683 
L 586.023219 -194.068169 
L 587.987566 -190.705654 
L 590.354052 -187.34314 
L 593.100107 -183.980626 
L 596.165032 -180.618112 
L 599.450139 -177.255597 
L 602.821991 -173.893083 
L 606.118505 -170.530569 
L 609.157405 -167.168054 
L 611.746297 -163.80554 
L 613.693576 -160.443026 
L 614.819338 -157.080511 
L 614.965563 -153.717997 
L 614.004974 -150.355483 
L 611.848125 -146.992969 
L 608.44843 -143.630454 
L 603.804971 -140.26794 
L 597.963036 -136.905426 
L 591.012387 -133.542911 
L 583.083364 -130.180397 
L 574.340973 -126.817883 
L 564.977226 -123.455368 
L 555.202086 -120.092854 
L 545.233515 -116.73034 
L 535.287212 -113.367825 
L 525.566701 -110.005311 
L 516.254449 -106.642797 
L 507.504624 -103.280283 
L 499.43796 -99.917768 
L 492.139032 -96.555254 
L 485.655985 -93.19274 
L 480.002537 -89.830225 
L 475.161905 -86.467711 
L 471.092105 -83.105197 
L 467.732061 -79.742682 
L 465.007918 -76.380168 
L 462.839036 -73.017654 
L 461.143259 -69.65514 
z
" id="mf71adb2a0a" style="stroke:#8a8a8a;stroke-width:1.5;"/>
    </defs>
    <g clip-path="url(#pc9c19469b6)">
     <use style="fill:#e6e6e6;stroke:#8a8a8a;stroke-width:1.5;" x="0" xlink:href="#mf71adb2a0a" y="425.806805"/>
    </g>
   </g>
   <g id="PolyCollection_3">
    <defs>
     <path d="M 721.860366 -74.491303 
L 719.449426 -74.491303 
L 719.009945 -77.797108 
L 718.443653 -81.102913 
L 717.726048 -84.408718 
L 716.831661 -87.714523 
L 715.735131 -91.020328 
L 714.41249 -94.326134 
L 712.842593 -97.631939 
L 711.008573 -100.937744 
L 708.899195 -104.243549 
L 706.509984 -107.549354 
L 703.843987 -110.855159 
L 700.912085 -114.160965 
L 697.732787 -117.46677 
L 694.331526 -120.772575 
L 690.739516 -124.07838 
L 686.992293 -127.384185 
L 683.128103 -130.68999 
L 679.186333 -133.995795 
L 675.206139 -137.301601 
L 671.22544 -140.607406 
L 667.280339 -143.913211 
L 663.404997 -147.219016 
L 659.631887 -150.524821 
L 655.992296 -153.830626 
L 652.516909 -157.136431 
L 649.236244 -160.442237 
L 646.180781 -163.748042 
L 643.380606 -167.053847 
L 640.864504 -170.359652 
L 638.658494 -173.665457 
L 636.7839 -176.971262 
L 635.255131 -180.277068 
L 634.077423 -183.582873 
L 633.244834 -186.888678 
L 632.738771 -190.194483 
L 632.527348 -193.500288 
L 632.565736 -196.806093 
L 632.797627 -200.111898 
L 633.157786 -203.417704 
L 633.575534 -206.723509 
L 633.978914 -210.029314 
L 634.29918 -213.335119 
L 634.475221 -216.640924 
L 634.457523 -219.946729 
L 634.211314 -223.252535 
L 633.71862 -226.55834 
L 632.97906 -229.864145 
L 632.009345 -233.16995 
L 630.841528 -236.475755 
L 629.520175 -239.78156 
L 628.098698 -243.087365 
L 626.635142 -246.393171 
L 625.187761 -249.698976 
L 623.810717 -253.004781 
L 622.550239 -256.310586 
L 621.441564 -259.616391 
L 620.506899 -262.922196 
L 619.75462 -266.228001 
L 619.179793 -269.533807 
L 618.766011 -272.839612 
L 618.488394 -276.145417 
L 618.31752 -279.451222 
L 618.22389 -282.757027 
L 618.18251 -286.062832 
L 618.177117 -289.368638 
L 618.203614 -292.674443 
L 618.272351 -295.980248 
L 618.409 -299.286053 
L 618.653933 -302.591858 
L 619.060149 -305.897663 
L 619.689916 -309.203468 
L 620.610462 -312.509274 
L 621.889036 -315.815079 
L 623.587781 -319.120884 
L 625.758779 -322.426689 
L 628.439646 -325.732494 
L 631.649984 -329.038299 
L 635.388906 -332.344104 
L 639.633824 -335.64991 
L 644.340568 -338.955715 
L 649.444852 -342.26152 
L 654.864999 -345.567325 
L 660.505773 -348.87313 
L 666.26307 -352.178935 
L 672.029138 -355.484741 
L 677.697972 -358.790546 
L 683.170488 -362.096351 
L 688.359085 -365.402156 
L 693.191288 -368.707961 
L 697.612226 -372.013766 
L 701.585817 -375.319571 
L 705.094672 -378.625377 
L 708.138826 -381.931182 
L 710.73352 -385.236987 
L 712.90632 -388.542792 
L 714.693879 -391.848597 
L 716.138654 -395.154402 
L 717.285828 -398.460207 
L 718.180657 -401.766013 
L 723.129135 -401.766013 
L 723.129135 -401.766013 
L 724.023963 -398.460207 
L 725.171138 -395.154402 
L 726.615912 -391.848597 
L 728.403472 -388.542792 
L 730.576272 -385.236987 
L 733.170966 -381.931182 
L 736.215119 -378.625377 
L 739.723975 -375.319571 
L 743.697566 -372.013766 
L 748.118504 -368.707961 
L 752.950707 -365.402156 
L 758.139303 -362.096351 
L 763.611819 -358.790546 
L 769.280654 -355.484741 
L 775.046722 -352.178935 
L 780.804019 -348.87313 
L 786.444793 -345.567325 
L 791.864939 -342.26152 
L 796.969223 -338.955715 
L 801.675968 -335.64991 
L 805.920886 -332.344104 
L 809.659808 -329.038299 
L 812.870146 -325.732494 
L 815.551013 -322.426689 
L 817.72201 -319.120884 
L 819.420755 -315.815079 
L 820.69933 -312.509274 
L 821.619875 -309.203468 
L 822.249643 -305.897663 
L 822.655858 -302.591858 
L 822.900792 -299.286053 
L 823.037441 -295.980248 
L 823.106177 -292.674443 
L 823.132675 -289.368638 
L 823.127282 -286.062832 
L 823.085902 -282.757027 
L 822.992272 -279.451222 
L 822.821398 -276.145417 
L 822.543781 -272.839612 
L 822.129998 -269.533807 
L 821.555172 -266.228001 
L 820.802893 -262.922196 
L 819.868228 -259.616391 
L 818.759552 -256.310586 
L 817.499075 -253.004781 
L 816.12203 -249.698976 
L 814.67465 -246.393171 
L 813.211094 -243.087365 
L 811.789617 -239.78156 
L 810.468264 -236.475755 
L 809.300447 -233.16995 
L 808.330732 -229.864145 
L 807.591172 -226.55834 
L 807.098477 -223.252535 
L 806.852269 -219.946729 
L 806.834571 -216.640924 
L 807.010612 -213.335119 
L 807.330877 -210.029314 
L 807.734258 -206.723509 
L 808.152006 -203.417704 
L 808.512165 -200.111898 
L 808.744056 -196.806093 
L 808.782443 -193.500288 
L 808.57102 -190.194483 
L 808.064958 -186.888678 
L 807.232368 -183.582873 
L 806.054661 -180.277068 
L 804.525891 -176.971262 
L 802.651297 -173.665457 
L 800.445288 -170.359652 
L 797.929186 -167.053847 
L 795.12901 -163.748042 
L 792.073547 -160.442237 
L 788.792883 -157.136431 
L 785.317495 -153.830626 
L 781.677905 -150.524821 
L 777.904794 -147.219016 
L 774.029453 -143.913211 
L 770.084352 -140.607406 
L 766.103653 -137.301601 
L 762.123459 -133.995795 
L 758.181688 -130.68999 
L 754.317499 -127.384185 
L 750.570276 -124.07838 
L 746.978266 -120.772575 
L 743.577005 -117.46677 
L 740.397706 -114.160965 
L 737.465804 -110.855159 
L 734.799808 -107.549354 
L 732.410597 -104.243549 
L 730.301219 -100.937744 
L 728.467198 -97.631939 
L 726.897302 -94.326134 
L 725.574661 -91.020328 
L 724.47813 -87.714523 
L 723.583744 -84.408718 
L 722.866139 -81.102913 
L 722.299847 -77.797108 
L 721.860366 -74.491303 
z
" id="m789954182f" style="stroke:#8a8a8a;stroke-width:1.5;"/>
    </defs>
    <g clip-path="url(#pc9c19469b6)">
     <use style="fill:#e6e6e6;stroke:#8a8a8a;stroke-width:1.5;" x="0" xlink:href="#m789954182f" y="425.806805"/>
    </g>
   </g>
   <g id="PathCollection_1"/>
   <g id="PathCollection_2"/>
   <g id="line2d_18">
    <path clip-path="url(#pc9c19469b6)" d="M 169.976184 209.905578 
L 214.440274 209.905578 
" style="fill:none;stroke:#8a8a8a;stroke-dasharray:3.375,3.375;stroke-dashoffset:0;stroke-width:1.5;"/>
   </g>
   <g id="line2d_19">
    <path clip-path="url(#pc9c19469b6)" d="M 174.951032 167.387546 
L 209.465426 167.387546 
" style="fill:none;stroke:#8a8a8a;stroke-dasharray:6.75,6.75;stroke-dashoffset:0;stroke-width:1.5;"/>
   </g>
   <g id="line2d_20">
    <path clip-path="url(#pc9c19469b6)" d="M 170.662563 106.976893 
L 213.753896 106.976893 
" style="fill:none;stroke:#8a8a8a;stroke-dasharray:3.375,3.375;stroke-dashoffset:0;stroke-width:1.5;"/>
   </g>
   <g id="line2d_21">
    <path clip-path="url(#pc9c19469b6)" d="M 300.742169 266.25811 
L 612.120956 266.25811 
" style="fill:none;stroke:#8a8a8a;stroke-dasharray:3.375,3.375;stroke-dashoffset:0;stroke-width:1.5;"/>
   </g>
   <g id="line2d_22">
    <path clip-path="url(#pc9c19469b6)" d="M 334.35153 207.968748 
L 578.511595 207.968748 
" style="fill:none;stroke:#8a8a8a;stroke-dasharray:6.75,6.75;stroke-dashoffset:0;stroke-width:1.5;"/>
   </g>
   <g id="line2d_23">
    <path clip-path="url(#pc9c19469b6)" d="M 346.565263 141.563145 
L 566.297862 141.563145 
" style="fill:none;stroke:#8a8a8a;stroke-dasharray:3.375,3.375;stroke-dashoffset:0;stroke-width:1.5;"/>
   </g>
   <g id="line2d_24">
    <path clip-path="url(#pc9c19469b6)" d="M 633.408624 231.579629 
L 807.901168 231.579629 
" style="fill:none;stroke:#8a8a8a;stroke-dasharray:3.375,3.375;stroke-dashoffset:0;stroke-width:1.5;"/>
   </g>
   <g id="line2d_25">
    <path clip-path="url(#pc9c19469b6)" d="M 623.531286 169.601066 
L 817.778506 169.601066 
" style="fill:none;stroke:#8a8a8a;stroke-dasharray:6.75,6.75;stroke-dashoffset:0;stroke-width:1.5;"/>
   </g>
   <g id="line2d_26">
    <path clip-path="url(#pc9c19469b6)" d="M 620.699566 117.214424 
L 820.610225 117.214424 
" style="fill:none;stroke:#8a8a8a;stroke-dasharray:3.375,3.375;stroke-dashoffset:0;stroke-width:1.5;"/>
   </g>
   <g id="patch_3">
    <path d="M 60.096563 376.565195 
L 60.096563 13.105195 
" style="fill:none;stroke:#262626;stroke-linecap:square;stroke-linejoin:miter;stroke-width:1.25;"/>
   </g>
   <g id="patch_4">
    <path d="M 60.096563 376.565195 
L 852.766563 376.565195 
" style="fill:none;stroke:#262626;stroke-linecap:square;stroke-linejoin:miter;stroke-width:1.25;"/>
   </g>
   <g id="PathCollection_3">
    <defs>
     <path d="M 0 5 
C 1.326016 5 2.597899 4.473168 3.535534 3.535534 
C 4.473168 2.597899 5 1.326016 5 -0 
C 5 -1.326016 4.473168 -2.597899 3.535534 -3.535534 
C 2.597899 -4.473168 1.326016 -5 0 -5 
C -1.326016 -5 -2.597899 -4.473168 -3.535534 -3.535534 
C -4.473168 -2.597899 -5 -1.326016 -5 0 
C -5 1.326016 -4.473168 2.597899 -3.535534 3.535534 
C -2.597899 4.473168 -1.326016 5 0 5 
z
" id="C0_0_82c20ada1d"/>
    </defs>
    <g clip-path="url(#pc9c19469b6)">
     <use style="fill:#1f77b4;" x="192.208229" xlink:href="#C0_0_82c20ada1d" y="237.482349"/>
    </g>
    <g clip-path="url(#pc9c19469b6)">
     <use style="fill:#1f77b4;" x="200.386545" xlink:href="#C0_0_82c20ada1d" y="231.210709"/>
    </g>
    <g clip-path="url(#pc9c19469b6)">
     <use style="fill:#1f77b4;" x="192.208229" xlink:href="#C0_0_82c20ada1d" y="222.356629"/>
    </g>
    <g clip-path="url(#pc9c19469b6)">
     <use style="fill:#1f77b4;" x="182.793217" xlink:href="#C0_0_82c20ada1d" y="217.929588"/>
    </g>
    <g clip-path="url(#pc9c19469b6)">
     <use style="fill:#1f77b4;" x="201.421868" xlink:href="#C0_0_82c20ada1d" y="217.560668"/>
    </g>
    <g clip-path="url(#pc9c19469b6)">
     <use style="fill:#1f77b4;" x="211.741688" xlink:href="#C0_0_82c20ada1d" y="215.716068"/>
    </g>
    <g clip-path="url(#pc9c19469b6)">
     <use style="fill:#1f77b4;" x="173.802126" xlink:href="#C0_0_82c20ada1d" y="212.764708"/>
    </g>
    <g clip-path="url(#pc9c19469b6)">
     <use style="fill:#1f77b4;" x="192.208229" xlink:href="#C0_0_82c20ada1d" y="201.328188"/>
    </g>
    <g clip-path="url(#pc9c19469b6)">
     <use style="fill:#1f77b4;" x="182.99459" xlink:href="#C0_0_82c20ada1d" y="196.532227"/>
    </g>
    <g clip-path="url(#pc9c19469b6)">
     <use style="fill:#1f77b4;" x="192.208229" xlink:href="#C0_0_82c20ada1d" y="188.784907"/>
    </g>
    <g clip-path="url(#pc9c19469b6)">
     <use style="fill:#1f77b4;" x="183.462476" xlink:href="#C0_0_82c20ada1d" y="183.251107"/>
    </g>
    <g clip-path="url(#pc9c19469b6)">
     <use style="fill:#1f77b4;" x="200.953983" xlink:href="#C0_0_82c20ada1d" y="183.251107"/>
    </g>
    <g clip-path="url(#pc9c19469b6)">
     <use style="fill:#1f77b4;" x="173.077431" xlink:href="#C0_0_82c20ada1d" y="181.775427"/>
    </g>
    <g clip-path="url(#pc9c19469b6)">
     <use style="fill:#1f77b4;" x="192.208229" xlink:href="#C0_0_82c20ada1d" y="152.999665"/>
    </g>
    <g clip-path="url(#pc9c19469b6)">
     <use style="fill:#1f77b4;" x="192.208229" xlink:href="#C0_0_82c20ada1d" y="141.932065"/>
    </g>
    <g clip-path="url(#pc9c19469b6)">
     <use style="fill:#1f77b4;" x="182.448887" xlink:href="#C0_0_82c20ada1d" y="138.242865"/>
    </g>
    <g clip-path="url(#pc9c19469b6)">
     <use style="fill:#1f77b4;" x="192.208229" xlink:href="#C0_0_82c20ada1d" y="121.272544"/>
    </g>
    <g clip-path="url(#pc9c19469b6)">
     <use style="fill:#1f77b4;" x="181.823184" xlink:href="#C0_0_82c20ada1d" y="119.796864"/>
    </g>
    <g clip-path="url(#pc9c19469b6)">
     <use style="fill:#1f77b4;" x="192.208229" xlink:href="#C0_0_82c20ada1d" y="107.253583"/>
    </g>
    <g clip-path="url(#pc9c19469b6)">
     <use style="fill:#1f77b4;" x="202.701081" xlink:href="#C0_0_82c20ada1d" y="106.884663"/>
    </g>
    <g clip-path="url(#pc9c19469b6)">
     <use style="fill:#1f77b4;" x="181.73685" xlink:href="#C0_0_82c20ada1d" y="106.515743"/>
    </g>
    <g clip-path="url(#pc9c19469b6)">
     <use style="fill:#1f77b4;" x="212.605411" xlink:href="#C0_0_82c20ada1d" y="103.564383"/>
    </g>
    <g clip-path="url(#pc9c19469b6)">
     <use style="fill:#1f77b4;" x="172.523211" xlink:href="#C0_0_82c20ada1d" y="101.719783"/>
    </g>
    <g clip-path="url(#pc9c19469b6)">
     <use style="fill:#1f77b4;" x="221.81905" xlink:href="#C0_0_82c20ada1d" y="98.768423"/>
    </g>
    <g clip-path="url(#pc9c19469b6)">
     <use style="fill:#1f77b4;" x="192.208229" xlink:href="#C0_0_82c20ada1d" y="90.283263"/>
    </g>
    <g clip-path="url(#pc9c19469b6)">
     <use style="fill:#1f77b4;" x="192.208229" xlink:href="#C0_0_82c20ada1d" y="79.215662"/>
    </g>
   </g>
   <g id="PathCollection_4">
    <defs>
     <path d="M 0 5 
C 1.326016 5 2.597899 4.473168 3.535534 3.535534 
C 4.473168 2.597899 5 1.326016 5 -0 
C 5 -1.326016 4.473168 -2.597899 3.535534 -3.535534 
C 2.597899 -4.473168 1.326016 -5 0 -5 
C -1.326016 -5 -2.597899 -4.473168 -3.535534 -3.535534 
C -4.473168 -2.597899 -5 -1.326016 -5 0 
C -5 1.326016 -4.473168 2.597899 -3.535534 3.535534 
C -2.597899 4.473168 -1.326016 5 0 5 
z
" id="C1_0_c35f467c95"/>
    </defs>
    <g clip-path="url(#pc9c19469b6)">
     <use style="fill:#ff7f0e;" x="456.431562" xlink:href="#C1_0_c35f467c95" y="306.101472"/>
    </g>
    <g clip-path="url(#pc9c19469b6)">
     <use style="fill:#ff7f0e;" x="445.960183" xlink:href="#C1_0_c35f467c95" y="305.363632"/>
    </g>
    <g clip-path="url(#pc9c19469b6)">
     <use style="fill:#ff7f0e;" x="466.816608" xlink:href="#C1_0_c35f467c95" y="304.625792"/>
    </g>
    <g clip-path="url(#pc9c19469b6)">
     <use style="fill:#ff7f0e;" x="435.575138" xlink:href="#C1_0_c35f467c95" y="303.887952"/>
    </g>
    <g clip-path="url(#pc9c19469b6)">
     <use style="fill:#ff7f0e;" x="477.056144" xlink:href="#C1_0_c35f467c95" y="302.412272"/>
    </g>
    <g clip-path="url(#pc9c19469b6)">
     <use style="fill:#ff7f0e;" x="425.335601" xlink:href="#C1_0_c35f467c95" y="301.674432"/>
    </g>
    <g clip-path="url(#pc9c19469b6)">
     <use style="fill:#ff7f0e;" x="487.441189" xlink:href="#C1_0_c35f467c95" y="300.936592"/>
    </g>
    <g clip-path="url(#pc9c19469b6)">
     <use style="fill:#ff7f0e;" x="414.950556" xlink:href="#C1_0_c35f467c95" y="300.198752"/>
    </g>
    <g clip-path="url(#pc9c19469b6)">
     <use style="fill:#ff7f0e;" x="497.826234" xlink:href="#C1_0_c35f467c95" y="299.460912"/>
    </g>
    <g clip-path="url(#pc9c19469b6)">
     <use style="fill:#ff7f0e;" x="404.565511" xlink:href="#C1_0_c35f467c95" y="298.723072"/>
    </g>
    <g clip-path="url(#pc9c19469b6)">
     <use style="fill:#ff7f0e;" x="508.21128" xlink:href="#C1_0_c35f467c95" y="297.985232"/>
    </g>
    <g clip-path="url(#pc9c19469b6)">
     <use style="fill:#ff7f0e;" x="394.180466" xlink:href="#C1_0_c35f467c95" y="297.247392"/>
    </g>
    <g clip-path="url(#pc9c19469b6)">
     <use style="fill:#ff7f0e;" x="456.431562" xlink:href="#C1_0_c35f467c95" y="295.771712"/>
    </g>
    <g clip-path="url(#pc9c19469b6)">
     <use style="fill:#ff7f0e;" x="445.960183" xlink:href="#C1_0_c35f467c95" y="295.033872"/>
    </g>
    <g clip-path="url(#pc9c19469b6)">
     <use style="fill:#ff7f0e;" x="466.816608" xlink:href="#C1_0_c35f467c95" y="294.296032"/>
    </g>
    <g clip-path="url(#pc9c19469b6)">
     <use style="fill:#ff7f0e;" x="435.575138" xlink:href="#C1_0_c35f467c95" y="293.558192"/>
    </g>
    <g clip-path="url(#pc9c19469b6)">
     <use style="fill:#ff7f0e;" x="480.025076" xlink:href="#C1_0_c35f467c95" y="292.820352"/>
    </g>
    <g clip-path="url(#pc9c19469b6)">
     <use style="fill:#ff7f0e;" x="425.335601" xlink:href="#C1_0_c35f467c95" y="291.344672"/>
    </g>
    <g clip-path="url(#pc9c19469b6)">
     <use style="fill:#ff7f0e;" x="490.264613" xlink:href="#C1_0_c35f467c95" y="290.606832"/>
    </g>
    <g clip-path="url(#pc9c19469b6)">
     <use style="fill:#ff7f0e;" x="414.950556" xlink:href="#C1_0_c35f467c95" y="289.868991"/>
    </g>
    <g clip-path="url(#pc9c19469b6)">
     <use style="fill:#ff7f0e;" x="500.649658" xlink:href="#C1_0_c35f467c95" y="289.131151"/>
    </g>
    <g clip-path="url(#pc9c19469b6)">
     <use style="fill:#ff7f0e;" x="404.565511" xlink:href="#C1_0_c35f467c95" y="288.393311"/>
    </g>
    <g clip-path="url(#pc9c19469b6)">
     <use style="fill:#ff7f0e;" x="511.034703" xlink:href="#C1_0_c35f467c95" y="287.655471"/>
    </g>
    <g clip-path="url(#pc9c19469b6)">
     <use style="fill:#ff7f0e;" x="394.180466" xlink:href="#C1_0_c35f467c95" y="286.917631"/>
    </g>
    <g clip-path="url(#pc9c19469b6)">
     <use style="fill:#ff7f0e;" x="453.462631" xlink:href="#C1_0_c35f467c95" y="286.179791"/>
    </g>
    <g clip-path="url(#pc9c19469b6)">
     <use style="fill:#ff7f0e;" x="442.991251" xlink:href="#C1_0_c35f467c95" y="285.441951"/>
    </g>
    <g clip-path="url(#pc9c19469b6)">
     <use style="fill:#ff7f0e;" x="463.494911" xlink:href="#C1_0_c35f467c95" y="283.228431"/>
    </g>
    <g clip-path="url(#pc9c19469b6)">
     <use style="fill:#ff7f0e;" x="473.879956" xlink:href="#C1_0_c35f467c95" y="281.752751"/>
    </g>
    <g clip-path="url(#pc9c19469b6)">
     <use style="fill:#ff7f0e;" x="433.576239" xlink:href="#C1_0_c35f467c95" y="281.014911"/>
    </g>
    <g clip-path="url(#pc9c19469b6)">
     <use style="fill:#ff7f0e;" x="483.912236" xlink:href="#C1_0_c35f467c95" y="278.801391"/>
    </g>
    <g clip-path="url(#pc9c19469b6)">
     <use style="fill:#ff7f0e;" x="423.432402" xlink:href="#C1_0_c35f467c95" y="278.432471"/>
    </g>
    <g clip-path="url(#pc9c19469b6)">
     <use style="fill:#ff7f0e;" x="494.383616" xlink:href="#C1_0_c35f467c95" y="278.063551"/>
    </g>
    <g clip-path="url(#pc9c19469b6)">
     <use style="fill:#ff7f0e;" x="412.996908" xlink:href="#C1_0_c35f467c95" y="277.325711"/>
    </g>
    <g clip-path="url(#pc9c19469b6)">
     <use style="fill:#ff7f0e;" x="450.493699" xlink:href="#C1_0_c35f467c95" y="276.587871"/>
    </g>
    <g clip-path="url(#pc9c19469b6)">
     <use style="fill:#ff7f0e;" x="504.623152" xlink:href="#C1_0_c35f467c95" y="275.850031"/>
    </g>
    <g clip-path="url(#pc9c19469b6)">
     <use style="fill:#ff7f0e;" x="402.757372" xlink:href="#C1_0_c35f467c95" y="275.112191"/>
    </g>
    <g clip-path="url(#pc9c19469b6)">
     <use style="fill:#ff7f0e;" x="460.525979" xlink:href="#C1_0_c35f467c95" y="273.636511"/>
    </g>
    <g clip-path="url(#pc9c19469b6)">
     <use style="fill:#ff7f0e;" x="440.734357" xlink:href="#C1_0_c35f467c95" y="272.898671"/>
    </g>
    <g clip-path="url(#pc9c19469b6)">
     <use style="fill:#ff7f0e;" x="470.911024" xlink:href="#C1_0_c35f467c95" y="272.160831"/>
    </g>
    <g clip-path="url(#pc9c19469b6)">
     <use style="fill:#ff7f0e;" x="430.607307" xlink:href="#C1_0_c35f467c95" y="271.422991"/>
    </g>
    <g clip-path="url(#pc9c19469b6)">
     <use style="fill:#ff7f0e;" x="513.614244" xlink:href="#C1_0_c35f467c95" y="270.685151"/>
    </g>
    <g clip-path="url(#pc9c19469b6)">
     <use style="fill:#ff7f0e;" x="393.76628" xlink:href="#C1_0_c35f467c95" y="269.947311"/>
    </g>
    <g clip-path="url(#pc9c19469b6)">
     <use style="fill:#ff7f0e;" x="480.670366" xlink:href="#C1_0_c35f467c95" y="268.471631"/>
    </g>
    <g clip-path="url(#pc9c19469b6)">
     <use style="fill:#ff7f0e;" x="491.141746" xlink:href="#C1_0_c35f467c95" y="267.733791"/>
    </g>
    <g clip-path="url(#pc9c19469b6)">
     <use style="fill:#ff7f0e;" x="421.192295" xlink:href="#C1_0_c35f467c95" y="266.99595"/>
    </g>
    <g clip-path="url(#pc9c19469b6)">
     <use style="fill:#ff7f0e;" x="453.438735" xlink:href="#C1_0_c35f467c95" y="266.25811"/>
    </g>
    <g clip-path="url(#pc9c19469b6)">
     <use style="fill:#ff7f0e;" x="501.461566" xlink:href="#C1_0_c35f467c95" y="265.88919"/>
    </g>
    <g clip-path="url(#pc9c19469b6)">
     <use style="fill:#ff7f0e;" x="410.80725" xlink:href="#C1_0_c35f467c95" y="265.52027"/>
    </g>
    <g clip-path="url(#pc9c19469b6)">
     <use style="fill:#1f77b4;" x="522.08989" xlink:href="#C1_0_c35f467c95" y="264.78243"/>
    </g>
    <g clip-path="url(#pc9c19469b6)">
     <use style="fill:#ff7f0e;" x="463.471015" xlink:href="#C1_0_c35f467c95" y="263.30675"/>
    </g>
    <g clip-path="url(#pc9c19469b6)">
     <use style="fill:#ff7f0e;" x="443.534405" xlink:href="#C1_0_c35f467c95" y="262.93783"/>
    </g>
    <g clip-path="url(#pc9c19469b6)">
     <use style="fill:#ff7f0e;" x="400.853524" xlink:href="#C1_0_c35f467c95" y="262.56891"/>
    </g>
    <g clip-path="url(#pc9c19469b6)">
     <use style="fill:#ff7f0e;" x="433.576239" xlink:href="#C1_0_c35f467c95" y="261.83107"/>
    </g>
    <g clip-path="url(#pc9c19469b6)">
     <use style="fill:#ff7f0e;" x="388.209999" xlink:href="#C1_0_c35f467c95" y="261.46215"/>
    </g>
    <g clip-path="url(#pc9c19469b6)">
     <use style="fill:#ff7f0e;" x="473.583122" xlink:href="#C1_0_c35f467c95" y="261.09323"/>
    </g>
    <g clip-path="url(#pc9c19469b6)">
     <use style="fill:#ff7f0e;" x="510.452657" xlink:href="#C1_0_c35f467c95" y="260.72431"/>
    </g>
    <g clip-path="url(#pc9c19469b6)">
     <use style="fill:#1f77b4;" x="531.504902" xlink:href="#C1_0_c35f467c95" y="260.35539"/>
    </g>
    <g clip-path="url(#pc9c19469b6)">
     <use style="fill:#1f77b4;" x="377.890179" xlink:href="#C1_0_c35f467c95" y="259.61755"/>
    </g>
    <g clip-path="url(#pc9c19469b6)">
     <use style="fill:#ff7f0e;" x="483.487452" xlink:href="#C1_0_c35f467c95" y="257.77295"/>
    </g>
    <g clip-path="url(#pc9c19469b6)">
     <use style="fill:#ff7f0e;" x="424.585148" xlink:href="#C1_0_c35f467c95" y="256.66619"/>
    </g>
    <g clip-path="url(#pc9c19469b6)">
     <use style="fill:#ff7f0e;" x="456.431562" xlink:href="#C1_0_c35f467c95" y="254.45267"/>
    </g>
    <g clip-path="url(#pc9c19469b6)">
     <use style="fill:#1f77b4;" x="446.046517" xlink:href="#C1_0_c35f467c95" y="252.97699"/>
    </g>
    <g clip-path="url(#pc9c19469b6)">
     <use style="fill:#1f77b4;" x="466.463843" xlink:href="#C1_0_c35f467c95" y="251.50131"/>
    </g>
    <g clip-path="url(#pc9c19469b6)">
     <use style="fill:#ff7f0e;" x="435.806981" xlink:href="#C1_0_c35f467c95" y="250.76347"/>
    </g>
    <g clip-path="url(#pc9c19469b6)">
     <use style="fill:#1f77b4;" x="476.703379" xlink:href="#C1_0_c35f467c95" y="249.28779"/>
    </g>
    <g clip-path="url(#pc9c19469b6)">
     <use style="fill:#ff7f0e;" x="487.545436" xlink:href="#C1_0_c35f467c95" y="248.54995"/>
    </g>
    <g clip-path="url(#pc9c19469b6)">
     <use style="fill:#ff7f0e;" x="453.462631" xlink:href="#C1_0_c35f467c95" y="244.86075"/>
    </g>
    <g clip-path="url(#pc9c19469b6)">
     <use style="fill:#1f77b4;" x="463.494911" xlink:href="#C1_0_c35f467c95" y="241.909389"/>
    </g>
    <g clip-path="url(#pc9c19469b6)">
     <use style="fill:#1f77b4;" x="444.986984" xlink:href="#C1_0_c35f467c95" y="238.958029"/>
    </g>
    <g clip-path="url(#pc9c19469b6)">
     <use style="fill:#ff7f0e;" x="473.091455" xlink:href="#C1_0_c35f467c95" y="237.851269"/>
    </g>
    <g clip-path="url(#pc9c19469b6)">
     <use style="fill:#1f77b4;" x="434.954704" xlink:href="#C1_0_c35f467c95" y="236.006669"/>
    </g>
    <g clip-path="url(#pc9c19469b6)">
     <use style="fill:#1f77b4;" x="456.431562" xlink:href="#C1_0_c35f467c95" y="234.530989"/>
    </g>
    <g clip-path="url(#pc9c19469b6)">
     <use style="fill:#1f77b4;" x="482.305093" xlink:href="#C1_0_c35f467c95" y="233.055309"/>
    </g>
    <g clip-path="url(#pc9c19469b6)">
     <use style="fill:#ff7f0e;" x="425.963613" xlink:href="#C1_0_c35f467c95" y="230.841789"/>
    </g>
    <g clip-path="url(#pc9c19469b6)">
     <use style="fill:#ff7f0e;" x="447.955916" xlink:href="#C1_0_c35f467c95" y="228.628269"/>
    </g>
    <g clip-path="url(#pc9c19469b6)">
     <use style="fill:#ff7f0e;" x="461.987844" xlink:href="#C1_0_c35f467c95" y="226.045829"/>
    </g>
    <g clip-path="url(#pc9c19469b6)">
     <use style="fill:#1f77b4;" x="472.480696" xlink:href="#C1_0_c35f467c95" y="225.676909"/>
    </g>
    <g clip-path="url(#pc9c19469b6)">
     <use style="fill:#1f77b4;" x="438.964825" xlink:href="#C1_0_c35f467c95" y="223.463389"/>
    </g>
    <g clip-path="url(#pc9c19469b6)">
     <use style="fill:#1f77b4;" x="481.895708" xlink:href="#C1_0_c35f467c95" y="221.249868"/>
    </g>
    <g clip-path="url(#pc9c19469b6)">
     <use style="fill:#ff7f0e;" x="428.820988" xlink:href="#C1_0_c35f467c95" y="220.880948"/>
    </g>
    <g clip-path="url(#pc9c19469b6)">
     <use style="fill:#ff7f0e;" x="492.367088" xlink:href="#C1_0_c35f467c95" y="220.512028"/>
    </g>
    <g clip-path="url(#pc9c19469b6)">
     <use style="fill:#1f77b4;" x="453.809528" xlink:href="#C1_0_c35f467c95" y="219.774188"/>
    </g>
    <g clip-path="url(#pc9c19469b6)">
     <use style="fill:#1f77b4;" x="418.677151" xlink:href="#C1_0_c35f467c95" y="218.298508"/>
    </g>
    <g clip-path="url(#pc9c19469b6)">
     <use style="fill:#ff7f0e;" x="466.868397" xlink:href="#C1_0_c35f467c95" y="217.191748"/>
    </g>
    <g clip-path="url(#pc9c19469b6)">
     <use style="fill:#1f77b4;" x="502.12643" xlink:href="#C1_0_c35f467c95" y="216.822828"/>
    </g>
    <g clip-path="url(#pc9c19469b6)">
     <use style="fill:#1f77b4;" x="445.333882" xlink:href="#C1_0_c35f467c95" y="213.871468"/>
    </g>
    <g clip-path="url(#pc9c19469b6)">
     <use style="fill:#1f77b4;" x="409.686059" xlink:href="#C1_0_c35f467c95" y="213.133628"/>
    </g>
    <g clip-path="url(#pc9c19469b6)">
     <use style="fill:#1f77b4;" x="476.082036" xlink:href="#C1_0_c35f467c95" y="212.395788"/>
    </g>
    <g clip-path="url(#pc9c19469b6)">
     <use style="fill:#ff7f0e;" x="435.094345" xlink:href="#C1_0_c35f467c95" y="211.657948"/>
    </g>
    <g clip-path="url(#pc9c19469b6)">
     <use style="fill:#ff7f0e;" x="457.867512" xlink:href="#C1_0_c35f467c95" y="210.551188"/>
    </g>
    <g clip-path="url(#pc9c19469b6)">
     <use style="fill:#1f77b4;" x="485.497048" xlink:href="#C1_0_c35f467c95" y="207.968748"/>
    </g>
    <g clip-path="url(#pc9c19469b6)">
     <use style="fill:#1f77b4;" x="425.679333" xlink:href="#C1_0_c35f467c95" y="207.230908"/>
    </g>
    <g clip-path="url(#pc9c19469b6)">
     <use style="fill:#1f77b4;" x="467.464056" xlink:href="#C1_0_c35f467c95" y="206.493068"/>
    </g>
    <g clip-path="url(#pc9c19469b6)">
     <use style="fill:#1f77b4;" x="495.736585" xlink:href="#C1_0_c35f467c95" y="205.755228"/>
    </g>
    <g clip-path="url(#pc9c19469b6)">
     <use style="fill:#1f77b4;" x="415.819951" xlink:href="#C1_0_c35f467c95" y="205.017388"/>
    </g>
    <g clip-path="url(#pc9c19469b6)">
     <use style="fill:#1f77b4;" x="449.689196" xlink:href="#C1_0_c35f467c95" y="204.279548"/>
    </g>
    <g clip-path="url(#pc9c19469b6)">
     <use style="fill:#1f77b4;" x="505.768865" xlink:href="#C1_0_c35f467c95" y="202.803868"/>
    </g>
    <g clip-path="url(#pc9c19469b6)">
     <use style="fill:#1f77b4;" x="439.449659" xlink:href="#C1_0_c35f467c95" y="202.066028"/>
    </g>
    <g clip-path="url(#pc9c19469b6)">
     <use style="fill:#1f77b4;" x="458.98841" xlink:href="#C1_0_c35f467c95" y="200.590348"/>
    </g>
    <g clip-path="url(#pc9c19469b6)">
     <use style="fill:#1f77b4;" x="474.5513" xlink:href="#C1_0_c35f467c95" y="199.114668"/>
    </g>
    <g clip-path="url(#pc9c19469b6)">
     <use style="fill:#1f77b4;" x="430.458568" xlink:href="#C1_0_c35f467c95" y="196.901147"/>
    </g>
    <g clip-path="url(#pc9c19469b6)">
     <use style="fill:#1f77b4;" x="484.58358" xlink:href="#C1_0_c35f467c95" y="196.163307"/>
    </g>
    <g clip-path="url(#pc9c19469b6)">
     <use style="fill:#1f77b4;" x="420.073523" xlink:href="#C1_0_c35f467c95" y="195.425467"/>
    </g>
    <g clip-path="url(#pc9c19469b6)">
     <use style="fill:#1f77b4;" x="446.720264" xlink:href="#C1_0_c35f467c95" y="194.687627"/>
    </g>
    <g clip-path="url(#pc9c19469b6)">
     <use style="fill:#1f77b4;" x="456.019478" xlink:href="#C1_0_c35f467c95" y="190.998427"/>
    </g>
    <g clip-path="url(#pc9c19469b6)">
     <use style="fill:#ff7f0e;" x="466.051758" xlink:href="#C1_0_c35f467c95" y="188.047067"/>
    </g>
    <g clip-path="url(#pc9c19469b6)">
     <use style="fill:#1f77b4;" x="443.751332" xlink:href="#C1_0_c35f467c95" y="185.095707"/>
    </g>
    <g clip-path="url(#pc9c19469b6)">
     <use style="fill:#1f77b4;" x="475.8111" xlink:href="#C1_0_c35f467c95" y="184.357867"/>
    </g>
    <g clip-path="url(#pc9c19469b6)">
     <use style="fill:#1f77b4;" x="433.719052" xlink:href="#C1_0_c35f467c95" y="182.144347"/>
    </g>
    <g clip-path="url(#pc9c19469b6)">
     <use style="fill:#1f77b4;" x="453.050546" xlink:href="#C1_0_c35f467c95" y="181.406507"/>
    </g>
    <g clip-path="url(#pc9c19469b6)">
     <use style="fill:#1f77b4;" x="485.570442" xlink:href="#C1_0_c35f467c95" y="180.668667"/>
    </g>
    <g clip-path="url(#pc9c19469b6)">
     <use style="fill:#1f77b4;" x="423.479516" xlink:href="#C1_0_c35f467c95" y="179.930827"/>
    </g>
    <g clip-path="url(#pc9c19469b6)">
     <use style="fill:#1f77b4;" x="463.082826" xlink:href="#C1_0_c35f467c95" y="178.455147"/>
    </g>
    <g clip-path="url(#pc9c19469b6)">
     <use style="fill:#1f77b4;" x="495.602722" xlink:href="#C1_0_c35f467c95" y="177.717307"/>
    </g>
    <g clip-path="url(#pc9c19469b6)">
     <use style="fill:#ff7f0e;" x="413.575186" xlink:href="#C1_0_c35f467c95" y="176.610547"/>
    </g>
    <g clip-path="url(#pc9c19469b6)">
     <use style="fill:#1f77b4;" x="505.987767" xlink:href="#C1_0_c35f467c95" y="176.241626"/>
    </g>
    <g clip-path="url(#pc9c19469b6)">
     <use style="fill:#1f77b4;" x="445.963302" xlink:href="#C1_0_c35f467c95" y="174.028106"/>
    </g>
    <g clip-path="url(#pc9c19469b6)">
     <use style="fill:#1f77b4;" x="470.933496" xlink:href="#C1_0_c35f467c95" y="171.814586"/>
    </g>
    <g clip-path="url(#pc9c19469b6)">
     <use style="fill:#ff7f0e;" x="435.819465" xlink:href="#C1_0_c35f467c95" y="171.445666"/>
    </g>
    <g clip-path="url(#pc9c19469b6)">
     <use style="fill:#1f77b4;" x="455.995582" xlink:href="#C1_0_c35f467c95" y="171.076746"/>
    </g>
    <g clip-path="url(#pc9c19469b6)">
     <use style="fill:#1f77b4;" x="480.348508" xlink:href="#C1_0_c35f467c95" y="167.387546"/>
    </g>
    <g clip-path="url(#pc9c19469b6)">
     <use style="fill:#1f77b4;" x="463.082826" xlink:href="#C1_0_c35f467c95" y="163.698346"/>
    </g>
    <g clip-path="url(#pc9c19469b6)">
     <use style="fill:#1f77b4;" x="451.115029" xlink:href="#C1_0_c35f467c95" y="162.222666"/>
    </g>
    <g clip-path="url(#pc9c19469b6)">
     <use style="fill:#1f77b4;" x="441.700017" xlink:href="#C1_0_c35f467c95" y="157.795626"/>
    </g>
    <g clip-path="url(#pc9c19469b6)">
     <use style="fill:#1f77b4;" x="470.933496" xlink:href="#C1_0_c35f467c95" y="157.057786"/>
    </g>
    <g clip-path="url(#pc9c19469b6)">
     <use style="fill:#1f77b4;" x="458.202273" xlink:href="#C1_0_c35f467c95" y="154.844266"/>
    </g>
    <g clip-path="url(#pc9c19469b6)">
     <use style="fill:#1f77b4;" x="432.708926" xlink:href="#C1_0_c35f467c95" y="152.630745"/>
    </g>
    <g clip-path="url(#pc9c19469b6)">
     <use style="fill:#1f77b4;" x="479.924587" xlink:href="#C1_0_c35f467c95" y="151.892905"/>
    </g>
    <g clip-path="url(#pc9c19469b6)">
     <use style="fill:#1f77b4;" x="490.395966" xlink:href="#C1_0_c35f467c95" y="151.155065"/>
    </g>
    <g clip-path="url(#pc9c19469b6)">
     <use style="fill:#1f77b4;" x="448.787261" xlink:href="#C1_0_c35f467c95" y="150.417225"/>
    </g>
    <g clip-path="url(#pc9c19469b6)">
     <use style="fill:#1f77b4;" x="422.676645" xlink:href="#C1_0_c35f467c95" y="149.679385"/>
    </g>
    <g clip-path="url(#pc9c19469b6)">
     <use style="fill:#1f77b4;" x="463.082826" xlink:href="#C1_0_c35f467c95" y="145.990185"/>
    </g>
    <g clip-path="url(#pc9c19469b6)">
     <use style="fill:#1f77b4;" x="440.311615" xlink:href="#C1_0_c35f467c95" y="144.514505"/>
    </g>
    <g clip-path="url(#pc9c19469b6)">
     <use style="fill:#1f77b4;" x="473.322363" xlink:href="#C1_0_c35f467c95" y="143.776665"/>
    </g>
    <g clip-path="url(#pc9c19469b6)">
     <use style="fill:#1f77b4;" x="430.072078" xlink:href="#C1_0_c35f467c95" y="142.300985"/>
    </g>
    <g clip-path="url(#pc9c19469b6)">
     <use style="fill:#ff7f0e;" x="453.667814" xlink:href="#C1_0_c35f467c95" y="141.563145"/>
    </g>
    <g clip-path="url(#pc9c19469b6)">
     <use style="fill:#1f77b4;" x="483.354643" xlink:href="#C1_0_c35f467c95" y="140.825305"/>
    </g>
    <g clip-path="url(#pc9c19469b6)">
     <use style="fill:#1f77b4;" x="419.832541" xlink:href="#C1_0_c35f467c95" y="140.087465"/>
    </g>
    <g clip-path="url(#pc9c19469b6)">
     <use style="fill:#1f77b4;" x="493.59418" xlink:href="#C1_0_c35f467c95" y="138.611785"/>
    </g>
    <g clip-path="url(#pc9c19469b6)">
     <use style="fill:#1f77b4;" x="409.593005" xlink:href="#C1_0_c35f467c95" y="137.873945"/>
    </g>
    <g clip-path="url(#pc9c19469b6)">
     <use style="fill:#1f77b4;" x="460.755058" xlink:href="#C1_0_c35f467c95" y="134.184745"/>
    </g>
    <g clip-path="url(#pc9c19469b6)">
     <use style="fill:#1f77b4;" x="450.698882" xlink:href="#C1_0_c35f467c95" y="131.971225"/>
    </g>
    <g clip-path="url(#pc9c19469b6)">
     <use style="fill:#1f77b4;" x="470.787338" xlink:href="#C1_0_c35f467c95" y="131.233385"/>
    </g>
    <g clip-path="url(#pc9c19469b6)">
     <use style="fill:#1f77b4;" x="440.93954" xlink:href="#C1_0_c35f467c95" y="128.282024"/>
    </g>
    <g clip-path="url(#pc9c19469b6)">
     <use style="fill:#1f77b4;" x="480.54668" xlink:href="#C1_0_c35f467c95" y="127.544184"/>
    </g>
    <g clip-path="url(#pc9c19469b6)">
     <use style="fill:#1f77b4;" x="430.554495" xlink:href="#C1_0_c35f467c95" y="126.806344"/>
    </g>
    <g clip-path="url(#pc9c19469b6)">
     <use style="fill:#1f77b4;" x="490.931725" xlink:href="#C1_0_c35f467c95" y="126.068504"/>
    </g>
    <g clip-path="url(#pc9c19469b6)">
     <use style="fill:#1f77b4;" x="420.16945" xlink:href="#C1_0_c35f467c95" y="125.330664"/>
    </g>
    <g clip-path="url(#pc9c19469b6)">
     <use style="fill:#1f77b4;" x="457.786126" xlink:href="#C1_0_c35f467c95" y="124.592824"/>
    </g>
    <g clip-path="url(#pc9c19469b6)">
     <use style="fill:#1f77b4;" x="501.171262" xlink:href="#C1_0_c35f467c95" y="123.854984"/>
    </g>
    <g clip-path="url(#pc9c19469b6)">
     <use style="fill:#1f77b4;" x="409.929913" xlink:href="#C1_0_c35f467c95" y="123.117144"/>
    </g>
    <g clip-path="url(#pc9c19469b6)">
     <use style="fill:#1f77b4;" x="467.818406" xlink:href="#C1_0_c35f467c95" y="121.641464"/>
    </g>
    <g clip-path="url(#pc9c19469b6)">
     <use style="fill:#1f77b4;" x="448.026784" xlink:href="#C1_0_c35f467c95" y="120.903624"/>
    </g>
    <g clip-path="url(#pc9c19469b6)">
     <use style="fill:#1f77b4;" x="510.586274" xlink:href="#C1_0_c35f467c95" y="119.427944"/>
    </g>
    <g clip-path="url(#pc9c19469b6)">
     <use style="fill:#1f77b4;" x="437.970608" xlink:href="#C1_0_c35f467c95" y="118.690104"/>
    </g>
    <g clip-path="url(#pc9c19469b6)">
     <use style="fill:#1f77b4;" x="477.577748" xlink:href="#C1_0_c35f467c95" y="117.952264"/>
    </g>
    <g clip-path="url(#pc9c19469b6)">
     <use style="fill:#1f77b4;" x="456.431562" xlink:href="#C1_0_c35f467c95" y="113.525224"/>
    </g>
    <g clip-path="url(#pc9c19469b6)">
     <use style="fill:#1f77b4;" x="466.190905" xlink:href="#C1_0_c35f467c95" y="109.836024"/>
    </g>
    <g clip-path="url(#pc9c19469b6)">
     <use style="fill:#1f77b4;" x="447.016551" xlink:href="#C1_0_c35f467c95" y="109.098184"/>
    </g>
    <g clip-path="url(#pc9c19469b6)">
     <use style="fill:#1f77b4;" x="475.181996" xlink:href="#C1_0_c35f467c95" y="104.671143"/>
    </g>
    <g clip-path="url(#pc9c19469b6)">
     <use style="fill:#1f77b4;" x="456.431562" xlink:href="#C1_0_c35f467c95" y="100.244103"/>
    </g>
    <g clip-path="url(#pc9c19469b6)">
     <use style="fill:#1f77b4;" x="444.047619" xlink:href="#C1_0_c35f467c95" y="99.506263"/>
    </g>
    <g clip-path="url(#pc9c19469b6)">
     <use style="fill:#ff7f0e;" x="466.5754" xlink:href="#C1_0_c35f467c95" y="97.661663"/>
    </g>
    <g clip-path="url(#pc9c19469b6)">
     <use style="fill:#1f77b4;" x="434.015339" xlink:href="#C1_0_c35f467c95" y="96.554903"/>
    </g>
    <g clip-path="url(#pc9c19469b6)">
     <use style="fill:#1f77b4;" x="480.062549" xlink:href="#C1_0_c35f467c95" y="95.817063"/>
    </g>
    <g clip-path="url(#pc9c19469b6)">
     <use style="fill:#1f77b4;" x="423.983058" xlink:href="#C1_0_c35f467c95" y="93.603543"/>
    </g>
    <g clip-path="url(#pc9c19469b6)">
     <use style="fill:#1f77b4;" x="490.094829" xlink:href="#C1_0_c35f467c95" y="92.865703"/>
    </g>
    <g clip-path="url(#pc9c19469b6)">
     <use style="fill:#1f77b4;" x="451.551009" xlink:href="#C1_0_c35f467c95" y="91.390023"/>
    </g>
    <g clip-path="url(#pc9c19469b6)">
     <use style="fill:#1f77b4;" x="460.026655" xlink:href="#C1_0_c35f467c95" y="85.487302"/>
    </g>
    <g clip-path="url(#pc9c19469b6)">
     <use style="fill:#1f77b4;" x="443.70034" xlink:href="#C1_0_c35f467c95" y="84.749462"/>
    </g>
    <g clip-path="url(#pc9c19469b6)">
     <use style="fill:#1f77b4;" x="469.441667" xlink:href="#C1_0_c35f467c95" y="81.060262"/>
    </g>
    <g clip-path="url(#pc9c19469b6)">
     <use style="fill:#1f77b4;" x="452.175986" xlink:href="#C1_0_c35f467c95" y="78.846742"/>
    </g>
    <g clip-path="url(#pc9c19469b6)">
     <use style="fill:#1f77b4;" x="435.84967" xlink:href="#C1_0_c35f467c95" y="78.108902"/>
    </g>
    <g clip-path="url(#pc9c19469b6)">
     <use style="fill:#1f77b4;" x="479.201009" xlink:href="#C1_0_c35f467c95" y="77.371062"/>
    </g>
    <g clip-path="url(#pc9c19469b6)">
     <use style="fill:#1f77b4;" x="461.590998" xlink:href="#C1_0_c35f467c95" y="74.419702"/>
    </g>
    <g clip-path="url(#pc9c19469b6)">
     <use style="fill:#ff7f0e;" x="426.636031" xlink:href="#C1_0_c35f467c95" y="73.312942"/>
    </g>
    <g clip-path="url(#pc9c19469b6)">
     <use style="fill:#ff7f0e;" x="488.797553" xlink:href="#C1_0_c35f467c95" y="73.312942"/>
    </g>
    <g clip-path="url(#pc9c19469b6)">
     <use style="fill:#ff7f0e;" x="416.136031" xlink:href="#C1_0_c35f467c95" y="73.312942"/>
    </g>
    <g clip-path="url(#pc9c19469b6)">
     <use style="fill:#ff7f0e;" x="499.297553" xlink:href="#C1_0_c35f467c95" y="73.312942"/>
    </g>
    <g clip-path="url(#pc9c19469b6)">
     <use style="fill:#ff7f0e;" x="405.636031" xlink:href="#C1_0_c35f467c95" y="73.312942"/>
    </g>
    <g clip-path="url(#pc9c19469b6)">
     <use style="fill:#ff7f0e;" x="509.797553" xlink:href="#C1_0_c35f467c95" y="73.312942"/>
    </g>
   </g>
   <g id="PathCollection_5">
    <defs>
     <path d="M 0 5 
C 1.326016 5 2.597899 4.473168 3.535534 3.535534 
C 4.473168 2.597899 5 1.326016 5 -0 
C 5 -1.326016 4.473168 -2.597899 3.535534 -3.535534 
C 2.597899 -4.473168 1.326016 -5 0 -5 
C -1.326016 -5 -2.597899 -4.473168 -3.535534 -3.535534 
C -4.473168 -2.597899 -5 -1.326016 -5 0 
C -5 1.326016 -4.473168 2.597899 -3.535534 3.535534 
C -2.597899 4.473168 -1.326016 5 0 5 
z
" id="C2_0_544ced7edf"/>
    </defs>
    <g clip-path="url(#pc9c19469b6)">
     <use style="fill:#ff7f0e;" x="720.654896" xlink:href="#C2_0_544ced7edf" y="302.043352"/>
    </g>
    <g clip-path="url(#pc9c19469b6)">
     <use style="fill:#ff7f0e;" x="711.239884" xlink:href="#C2_0_544ced7edf" y="297.616312"/>
    </g>
    <g clip-path="url(#pc9c19469b6)">
     <use style="fill:#ff7f0e;" x="720.654896" xlink:href="#C2_0_544ced7edf" y="291.713592"/>
    </g>
    <g clip-path="url(#pc9c19469b6)">
     <use style="fill:#ff7f0e;" x="712.17925" xlink:href="#C2_0_544ced7edf" y="285.810871"/>
    </g>
    <g clip-path="url(#pc9c19469b6)">
     <use style="fill:#ff7f0e;" x="727.74214" xlink:href="#C2_0_544ced7edf" y="284.335191"/>
    </g>
    <g clip-path="url(#pc9c19469b6)">
     <use style="fill:#ff7f0e;" x="738.24214" xlink:href="#C2_0_544ced7edf" y="284.335191"/>
    </g>
    <g clip-path="url(#pc9c19469b6)">
     <use style="fill:#ff7f0e;" x="702.14697" xlink:href="#C2_0_544ced7edf" y="282.859511"/>
    </g>
    <g clip-path="url(#pc9c19469b6)">
     <use style="fill:#ff7f0e;" x="720.654896" xlink:href="#C2_0_544ced7edf" y="276.956791"/>
    </g>
    <g clip-path="url(#pc9c19469b6)">
     <use style="fill:#ff7f0e;" x="745.329384" xlink:href="#C2_0_544ced7edf" y="276.956791"/>
    </g>
    <g clip-path="url(#pc9c19469b6)">
     <use style="fill:#ff7f0e;" x="712.804226" xlink:href="#C2_0_544ced7edf" y="270.316231"/>
    </g>
    <g clip-path="url(#pc9c19469b6)">
     <use style="fill:#ff7f0e;" x="722.563568" xlink:href="#C2_0_544ced7edf" y="266.62703"/>
    </g>
    <g clip-path="url(#pc9c19469b6)">
     <use style="fill:#ff7f0e;" x="733.063568" xlink:href="#C2_0_544ced7edf" y="266.62703"/>
    </g>
    <g clip-path="url(#pc9c19469b6)">
     <use style="fill:#ff7f0e;" x="709.835294" xlink:href="#C2_0_544ced7edf" y="260.72431"/>
    </g>
    <g clip-path="url(#pc9c19469b6)">
     <use style="fill:#ff7f0e;" x="740.150812" xlink:href="#C2_0_544ced7edf" y="259.24863"/>
    </g>
    <g clip-path="url(#pc9c19469b6)">
     <use style="fill:#1f77b4;" x="699.515474" xlink:href="#C2_0_544ced7edf" y="258.87971"/>
    </g>
    <g clip-path="url(#pc9c19469b6)">
     <use style="fill:#1f77b4;" x="750.586306" xlink:href="#C2_0_544ced7edf" y="258.14187"/>
    </g>
    <g clip-path="url(#pc9c19469b6)">
     <use style="fill:#1f77b4;" x="726.621552" xlink:href="#C2_0_544ced7edf" y="257.40403"/>
    </g>
    <g clip-path="url(#pc9c19469b6)">
     <use style="fill:#ff7f0e;" x="717.324024" xlink:href="#C2_0_544ced7edf" y="253.71483"/>
    </g>
    <g clip-path="url(#pc9c19469b6)">
     <use style="fill:#1f77b4;" x="733.708796" xlink:href="#C2_0_544ced7edf" y="250.02563"/>
    </g>
    <g clip-path="url(#pc9c19469b6)">
     <use style="fill:#1f77b4;" x="708.848378" xlink:href="#C2_0_544ced7edf" y="247.81211"/>
    </g>
    <g clip-path="url(#pc9c19469b6)">
     <use style="fill:#1f77b4;" x="698.376998" xlink:href="#C2_0_544ced7edf" y="247.07427"/>
    </g>
    <g clip-path="url(#pc9c19469b6)">
     <use style="fill:#1f77b4;" x="724.411268" xlink:href="#C2_0_544ced7edf" y="246.33643"/>
    </g>
    <g clip-path="url(#pc9c19469b6)">
     <use style="fill:#1f77b4;" x="742.184442" xlink:href="#C2_0_544ced7edf" y="244.122909"/>
    </g>
    <g clip-path="url(#pc9c19469b6)">
     <use style="fill:#1f77b4;" x="688.961986" xlink:href="#C2_0_544ced7edf" y="242.647229"/>
    </g>
    <g clip-path="url(#pc9c19469b6)">
     <use style="fill:#1f77b4;" x="752.216722" xlink:href="#C2_0_544ced7edf" y="241.171549"/>
    </g>
    <g clip-path="url(#pc9c19469b6)">
     <use style="fill:#1f77b4;" x="718.277377" xlink:href="#C2_0_544ced7edf" y="238.220189"/>
    </g>
    <g clip-path="url(#pc9c19469b6)">
     <use style="fill:#1f77b4;" x="728.309657" xlink:href="#C2_0_544ced7edf" y="235.268829"/>
    </g>
    <g clip-path="url(#pc9c19469b6)">
     <use style="fill:#1f77b4;" x="708.862365" xlink:href="#C2_0_544ced7edf" y="233.793149"/>
    </g>
    <g clip-path="url(#pc9c19469b6)">
     <use style="fill:#1f77b4;" x="738.341937" xlink:href="#C2_0_544ced7edf" y="232.317469"/>
    </g>
    <g clip-path="url(#pc9c19469b6)">
     <use style="fill:#1f77b4;" x="698.622828" xlink:href="#C2_0_544ced7edf" y="231.579629"/>
    </g>
    <g clip-path="url(#pc9c19469b6)">
     <use style="fill:#1f77b4;" x="748.581474" xlink:href="#C2_0_544ced7edf" y="230.103949"/>
    </g>
    <g clip-path="url(#pc9c19469b6)">
     <use style="fill:#1f77b4;" x="688.383291" xlink:href="#C2_0_544ced7edf" y="229.366109"/>
    </g>
    <g clip-path="url(#pc9c19469b6)">
     <use style="fill:#1f77b4;" x="720.654896" xlink:href="#C2_0_544ced7edf" y="226.414749"/>
    </g>
    <g clip-path="url(#pc9c19469b6)">
     <use style="fill:#1f77b4;" x="731.039941" xlink:href="#C2_0_544ced7edf" y="224.939069"/>
    </g>
    <g clip-path="url(#pc9c19469b6)">
     <use style="fill:#1f77b4;" x="705.893433" xlink:href="#C2_0_544ced7edf" y="224.201229"/>
    </g>
    <g clip-path="url(#pc9c19469b6)">
     <use style="fill:#1f77b4;" x="741.279478" xlink:href="#C2_0_544ced7edf" y="222.725549"/>
    </g>
    <g clip-path="url(#pc9c19469b6)">
     <use style="fill:#1f77b4;" x="695.653896" xlink:href="#C2_0_544ced7edf" y="221.987709"/>
    </g>
    <g clip-path="url(#pc9c19469b6)">
     <use style="fill:#1f77b4;" x="751.03882" xlink:href="#C2_0_544ced7edf" y="219.036348"/>
    </g>
    <g clip-path="url(#pc9c19469b6)">
     <use style="fill:#1f77b4;" x="720.654896" xlink:href="#C2_0_544ced7edf" y="216.084988"/>
    </g>
    <g clip-path="url(#pc9c19469b6)">
     <use style="fill:#1f77b4;" x="734.008873" xlink:href="#C2_0_544ced7edf" y="215.347148"/>
    </g>
    <g clip-path="url(#pc9c19469b6)">
     <use style="fill:#1f77b4;" x="712.17925" xlink:href="#C2_0_544ced7edf" y="210.182268"/>
    </g>
    <g clip-path="url(#pc9c19469b6)">
     <use style="fill:#1f77b4;" x="701.794205" xlink:href="#C2_0_544ced7edf" y="208.706588"/>
    </g>
    <g clip-path="url(#pc9c19469b6)">
     <use style="fill:#1f77b4;" x="720.654896" xlink:href="#C2_0_544ced7edf" y="203.541708"/>
    </g>
    <g clip-path="url(#pc9c19469b6)">
     <use style="fill:#1f77b4;" x="711.663804" xlink:href="#C2_0_544ced7edf" y="198.376827"/>
    </g>
    <g clip-path="url(#pc9c19469b6)">
     <use style="fill:#1f77b4;" x="729.130542" xlink:href="#C2_0_544ced7edf" y="197.638987"/>
    </g>
    <g clip-path="url(#pc9c19469b6)">
     <use style="fill:#1f77b4;" x="738.889884" xlink:href="#C2_0_544ced7edf" y="193.949787"/>
    </g>
    <g clip-path="url(#pc9c19469b6)">
     <use style="fill:#1f77b4;" x="702.672713" xlink:href="#C2_0_544ced7edf" y="193.211947"/>
    </g>
    <g clip-path="url(#pc9c19469b6)">
     <use style="fill:#1f77b4;" x="720.139451" xlink:href="#C2_0_544ced7edf" y="192.474107"/>
    </g>
    <g clip-path="url(#pc9c19469b6)">
     <use style="fill:#1f77b4;" x="748.649226" xlink:href="#C2_0_544ced7edf" y="190.260587"/>
    </g>
    <g clip-path="url(#pc9c19469b6)">
     <use style="fill:#1f77b4;" x="729.130542" xlink:href="#C2_0_544ced7edf" y="187.309227"/>
    </g>
    <g clip-path="url(#pc9c19469b6)">
     <use style="fill:#1f77b4;" x="711.663804" xlink:href="#C2_0_544ced7edf" y="186.571387"/>
    </g>
    <g clip-path="url(#pc9c19469b6)">
     <use style="fill:#1f77b4;" x="695.585469" xlink:href="#C2_0_544ced7edf" y="185.833547"/>
    </g>
    <g clip-path="url(#pc9c19469b6)">
     <use style="fill:#1f77b4;" x="738.889884" xlink:href="#C2_0_544ced7edf" y="183.620027"/>
    </g>
    <g clip-path="url(#pc9c19469b6)">
     <use style="fill:#1f77b4;" x="755.73647" xlink:href="#C2_0_544ced7edf" y="182.882187"/>
    </g>
    <g clip-path="url(#pc9c19469b6)">
     <use style="fill:#1f77b4;" x="720.654896" xlink:href="#C2_0_544ced7edf" y="176.979467"/>
    </g>
    <g clip-path="url(#pc9c19469b6)">
     <use style="fill:#1f77b4;" x="710.415359" xlink:href="#C2_0_544ced7edf" y="174.765946"/>
    </g>
    <g clip-path="url(#pc9c19469b6)">
     <use style="fill:#1f77b4;" x="730.414238" xlink:href="#C2_0_544ced7edf" y="173.290266"/>
    </g>
    <g clip-path="url(#pc9c19469b6)">
     <use style="fill:#1f77b4;" x="701.000347" xlink:href="#C2_0_544ced7edf" y="170.338906"/>
    </g>
    <g clip-path="url(#pc9c19469b6)">
     <use style="fill:#1f77b4;" x="740.17358" xlink:href="#C2_0_544ced7edf" y="169.601066"/>
    </g>
    <g clip-path="url(#pc9c19469b6)">
     <use style="fill:#1f77b4;" x="750.644959" xlink:href="#C2_0_544ced7edf" y="168.863226"/>
    </g>
    <g clip-path="url(#pc9c19469b6)">
     <use style="fill:#1f77b4;" x="720.654896" xlink:href="#C2_0_544ced7edf" y="166.649706"/>
    </g>
    <g clip-path="url(#pc9c19469b6)">
     <use style="fill:#1f77b4;" x="691.585335" xlink:href="#C2_0_544ced7edf" y="165.911866"/>
    </g>
    <g clip-path="url(#pc9c19469b6)">
     <use style="fill:#1f77b4;" x="710.415359" xlink:href="#C2_0_544ced7edf" y="164.436186"/>
    </g>
    <g clip-path="url(#pc9c19469b6)">
     <use style="fill:#1f77b4;" x="730.414238" xlink:href="#C2_0_544ced7edf" y="162.960506"/>
    </g>
    <g clip-path="url(#pc9c19469b6)">
     <use style="fill:#1f77b4;" x="756.778851" xlink:href="#C2_0_544ced7edf" y="160.746986"/>
    </g>
    <g clip-path="url(#pc9c19469b6)">
     <use style="fill:#1f77b4;" x="701.000347" xlink:href="#C2_0_544ced7edf" y="160.009146"/>
    </g>
    <g clip-path="url(#pc9c19469b6)">
     <use style="fill:#1f77b4;" x="740.17358" xlink:href="#C2_0_544ced7edf" y="159.271306"/>
    </g>
    <g clip-path="url(#pc9c19469b6)">
     <use style="fill:#1f77b4;" x="684.498091" xlink:href="#C2_0_544ced7edf" y="158.533466"/>
    </g>
    <g clip-path="url(#pc9c19469b6)">
     <use style="fill:#1f77b4;" x="720.654896" xlink:href="#C2_0_544ced7edf" y="156.319946"/>
    </g>
    <g clip-path="url(#pc9c19469b6)">
     <use style="fill:#1f77b4;" x="765.769942" xlink:href="#C2_0_544ced7edf" y="155.582106"/>
    </g>
    <g clip-path="url(#pc9c19469b6)">
     <use style="fill:#1f77b4;" x="710.415359" xlink:href="#C2_0_544ced7edf" y="154.106426"/>
    </g>
    <g clip-path="url(#pc9c19469b6)">
     <use style="fill:#1f77b4;" x="693.489183" xlink:href="#C2_0_544ced7edf" y="153.368585"/>
    </g>
    <g clip-path="url(#pc9c19469b6)">
     <use style="fill:#1f77b4;" x="727.74214" xlink:href="#C2_0_544ced7edf" y="148.941545"/>
    </g>
    <g clip-path="url(#pc9c19469b6)">
     <use style="fill:#1f77b4;" x="738.127185" xlink:href="#C2_0_544ced7edf" y="147.465865"/>
    </g>
    <g clip-path="url(#pc9c19469b6)">
     <use style="fill:#1f77b4;" x="717.685964" xlink:href="#C2_0_544ced7edf" y="146.728025"/>
    </g>
    <g clip-path="url(#pc9c19469b6)">
     <use style="fill:#1f77b4;" x="705.534806" xlink:href="#C2_0_544ced7edf" y="145.252345"/>
    </g>
    <g clip-path="url(#pc9c19469b6)">
     <use style="fill:#1f77b4;" x="695.295269" xlink:href="#C2_0_544ced7edf" y="143.038825"/>
    </g>
    <g clip-path="url(#pc9c19469b6)">
     <use style="fill:#1f77b4;" x="724.773208" xlink:href="#C2_0_544ced7edf" y="139.349625"/>
    </g>
    <g clip-path="url(#pc9c19469b6)">
     <use style="fill:#ff7f0e;" x="714.717032" xlink:href="#C2_0_544ced7edf" y="137.136105"/>
    </g>
    <g clip-path="url(#pc9c19469b6)">
     <use style="fill:#1f77b4;" x="734.805488" xlink:href="#C2_0_544ced7edf" y="136.398265"/>
    </g>
    <g clip-path="url(#pc9c19469b6)">
     <use style="fill:#1f77b4;" x="704.477495" xlink:href="#C2_0_544ced7edf" y="134.922585"/>
    </g>
    <g clip-path="url(#pc9c19469b6)">
     <use style="fill:#1f77b4;" x="744.837768" xlink:href="#C2_0_544ced7edf" y="133.446905"/>
    </g>
    <g clip-path="url(#pc9c19469b6)">
     <use style="fill:#1f77b4;" x="695.062483" xlink:href="#C2_0_544ced7edf" y="130.495544"/>
    </g>
    <g clip-path="url(#pc9c19469b6)">
     <use style="fill:#1f77b4;" x="721.804276" xlink:href="#C2_0_544ced7edf" y="129.757704"/>
    </g>
    <g clip-path="url(#pc9c19469b6)">
     <use style="fill:#1f77b4;" x="754.25278" xlink:href="#C2_0_544ced7edf" y="129.019864"/>
    </g>
    <g clip-path="url(#pc9c19469b6)">
     <use style="fill:#1f77b4;" x="714.717032" xlink:href="#C2_0_544ced7edf" y="122.379304"/>
    </g>
    <g clip-path="url(#pc9c19469b6)">
     <use style="fill:#1f77b4;" x="724.773208" xlink:href="#C2_0_544ced7edf" y="120.165784"/>
    </g>
    <g clip-path="url(#pc9c19469b6)">
     <use style="fill:#1f77b4;" x="734.805488" xlink:href="#C2_0_544ced7edf" y="117.214424"/>
    </g>
    <g clip-path="url(#pc9c19469b6)">
     <use style="fill:#1f77b4;" x="706.241386" xlink:href="#C2_0_544ced7edf" y="116.476584"/>
    </g>
    <g clip-path="url(#pc9c19469b6)">
     <use style="fill:#1f77b4;" x="745.190533" xlink:href="#C2_0_544ced7edf" y="115.738744"/>
    </g>
    <g clip-path="url(#pc9c19469b6)">
     <use style="fill:#1f77b4;" x="695.856341" xlink:href="#C2_0_544ced7edf" y="115.000904"/>
    </g>
    <g clip-path="url(#pc9c19469b6)">
     <use style="fill:#1f77b4;" x="755.575578" xlink:href="#C2_0_544ced7edf" y="114.263064"/>
    </g>
    <g clip-path="url(#pc9c19469b6)">
     <use style="fill:#1f77b4;" x="717.685964" xlink:href="#C2_0_544ced7edf" y="112.787384"/>
    </g>
    <g clip-path="url(#pc9c19469b6)">
     <use style="fill:#1f77b4;" x="685.824061" xlink:href="#C2_0_544ced7edf" y="112.049544"/>
    </g>
    <g clip-path="url(#pc9c19469b6)">
     <use style="fill:#1f77b4;" x="765.607858" xlink:href="#C2_0_544ced7edf" y="111.311704"/>
    </g>
    <g clip-path="url(#pc9c19469b6)">
     <use style="fill:#1f77b4;" x="675.439016" xlink:href="#C2_0_544ced7edf" y="110.573864"/>
    </g>
    <g clip-path="url(#pc9c19469b6)">
     <use style="fill:#1f77b4;" x="727.100976" xlink:href="#C2_0_544ced7edf" y="108.360344"/>
    </g>
    <g clip-path="url(#pc9c19469b6)">
     <use style="fill:#1f77b4;" x="737.77442" xlink:href="#C2_0_544ced7edf" y="107.622503"/>
    </g>
    <g clip-path="url(#pc9c19469b6)">
     <use style="fill:#1f77b4;" x="709.835294" xlink:href="#C2_0_544ced7edf" y="106.146823"/>
    </g>
    <g clip-path="url(#pc9c19469b6)">
     <use style="fill:#1f77b4;" x="699.803014" xlink:href="#C2_0_544ced7edf" y="103.195463"/>
    </g>
    <g clip-path="url(#pc9c19469b6)">
     <use style="fill:#1f77b4;" x="720.013732" xlink:href="#C2_0_544ced7edf" y="100.981943"/>
    </g>
    <g clip-path="url(#pc9c19469b6)">
     <use style="fill:#1f77b4;" x="730.046012" xlink:href="#C2_0_544ced7edf" y="98.030583"/>
    </g>
    <g clip-path="url(#pc9c19469b6)">
     <use style="fill:#1f77b4;" x="740.517392" xlink:href="#C2_0_544ced7edf" y="97.292743"/>
    </g>
    <g clip-path="url(#pc9c19469b6)">
     <use style="fill:#1f77b4;" x="711.538086" xlink:href="#C2_0_544ced7edf" y="95.079223"/>
    </g>
    <g clip-path="url(#pc9c19469b6)">
     <use style="fill:#1f77b4;" x="694.922461" xlink:href="#C2_0_544ced7edf" y="94.341383"/>
    </g>
    <g clip-path="url(#pc9c19469b6)">
     <use style="fill:#1f77b4;" x="749.508483" xlink:href="#C2_0_544ced7edf" y="92.127863"/>
    </g>
    <g clip-path="url(#pc9c19469b6)">
     <use style="fill:#1f77b4;" x="720.654896" xlink:href="#C2_0_544ced7edf" y="90.652183"/>
    </g>
    <g clip-path="url(#pc9c19469b6)">
     <use style="fill:#1f77b4;" x="685.507449" xlink:href="#C2_0_544ced7edf" y="89.914343"/>
    </g>
    <g clip-path="url(#pc9c19469b6)">
     <use style="fill:#1f77b4;" x="759.540763" xlink:href="#C2_0_544ced7edf" y="89.176503"/>
    </g>
    <g clip-path="url(#pc9c19469b6)">
     <use style="fill:#1f77b4;" x="730.069908" xlink:href="#C2_0_544ced7edf" y="86.225143"/>
    </g>
    <g clip-path="url(#pc9c19469b6)">
     <use style="fill:#1f77b4;" x="713.567652" xlink:href="#C2_0_544ced7edf" y="83.273782"/>
    </g>
    <g clip-path="url(#pc9c19469b6)">
     <use style="fill:#1f77b4;" x="703.182607" xlink:href="#C2_0_544ced7edf" y="81.798102"/>
    </g>
    <g clip-path="url(#pc9c19469b6)">
     <use style="fill:#1f77b4;" x="738.545554" xlink:href="#C2_0_544ced7edf" y="80.322422"/>
    </g>
    <g clip-path="url(#pc9c19469b6)">
     <use style="fill:#1f77b4;" x="692.94307" xlink:href="#C2_0_544ced7edf" y="79.584582"/>
    </g>
    <g clip-path="url(#pc9c19469b6)">
     <use style="fill:#1f77b4;" x="721.418321" xlink:href="#C2_0_544ced7edf" y="76.633222"/>
    </g>
    <g clip-path="url(#pc9c19469b6)">
     <use style="fill:#1f77b4;" x="747.960566" xlink:href="#C2_0_544ced7edf" y="75.895382"/>
    </g>
    <g clip-path="url(#pc9c19469b6)">
     <use style="fill:#ff7f0e;" x="711.513991" xlink:href="#C2_0_544ced7edf" y="73.312942"/>
    </g>
   </g>
  </g>
 </g>
 <defs>
  <clipPath id="pc9c19469b6">
   <rect height="363.46" width="792.67" x="60.096563" y="13.105195"/>
  </clipPath>
 </defs>
</svg>
