<?xml version="1.0" encoding="utf-8" standalone="no"?>
<!DOCTYPE svg PUBLIC "-//W3C//DTD SVG 1.1//EN"
  "http://www.w3.org/Graphics/SVG/1.1/DTD/svg11.dtd">
<svg height="462.476016pt" version="1.1" viewBox="0 0 798.84193 462.476016" width="798.84193pt" xmlns="http://www.w3.org/2000/svg" xmlns:xlink="http://www.w3.org/1999/xlink">
 <metadata>
  <rdf:RDF xmlns:cc="http://creativecommons.org/ns#" xmlns:dc="http://purl.org/dc/elements/1.1/" xmlns:rdf="http://www.w3.org/1999/02/22-rdf-syntax-ns#">
   <cc:Work>
    <dc:type rdf:resource="http://purl.org/dc/dcmitype/StillImage"/>
    <dc:date>2024-02-07T16:50:44.468280</dc:date>
    <dc:format>image/svg+xml</dc:format>
    <dc:creator>
     <cc:Agent>
      <dc:title>Matplotlib v3.4.0, https://matplotlib.org/</dc:title>
     </cc:Agent>
    </dc:creator>
   </cc:Work>
  </rdf:RDF>
 </metadata>
 <defs>
  <style type="text/css">*{stroke-linecap:butt;stroke-linejoin:round;}</style>
 </defs>
 <g id="figure_1">
  <g id="patch_1">
   <path d="M -0 462.476016 
L 798.84193 462.476016 
L 798.84193 -0 
L -0 -0 
z
" style="fill:#ffffff;"/>
  </g>
  <g id="axes_1">
   <g id="patch_2">
    <path d="M 86.360937 391.54 
L 791.64193 391.54 
L 791.64193 59.84 
L 86.360937 59.84 
z
" style="fill:#ffffff;"/>
   </g>
   <g id="matplotlib.axis_1">
    <g id="xtick_1">
     <g id="line2d_1">
      <defs>
       <path d="M 0 0 
L 0 6 
" id="m0f3af11157" style="stroke:#262626;stroke-width:1.25;"/>
      </defs>
      <g>
       <use style="fill:#262626;stroke:#262626;stroke-width:1.25;" x="203.90777" xlink:href="#m0f3af11157" y="391.54"/>
      </g>
     </g>
     <g id="text_1">
      <!-- Platform A: -->
      <g style="fill:#262626;" transform="translate(136.661676 420.723984)scale(0.275 -0.275)">
       <defs>
        <path d="M 494 0 
L 494 4581 
L 2222 4581 
Q 2678 4581 2919 4538 
Q 3256 4481 3484 4323 
Q 3713 4166 3852 3881 
Q 3991 3597 3991 3256 
Q 3991 2672 3619 2267 
Q 3247 1863 2275 1863 
L 1100 1863 
L 1100 0 
L 494 0 
z
M 1100 2403 
L 2284 2403 
Q 2872 2403 3119 2622 
Q 3366 2841 3366 3238 
Q 3366 3525 3220 3729 
Q 3075 3934 2838 4000 
Q 2684 4041 2272 4041 
L 1100 4041 
L 1100 2403 
z
" id="ArialMT-50" transform="scale(0.015625)"/>
        <path d="M 409 0 
L 409 4581 
L 972 4581 
L 972 0 
L 409 0 
z
" id="ArialMT-6c" transform="scale(0.015625)"/>
        <path d="M 2588 409 
Q 2275 144 1986 34 
Q 1697 -75 1366 -75 
Q 819 -75 525 192 
Q 231 459 231 875 
Q 231 1119 342 1320 
Q 453 1522 633 1644 
Q 813 1766 1038 1828 
Q 1203 1872 1538 1913 
Q 2219 1994 2541 2106 
Q 2544 2222 2544 2253 
Q 2544 2597 2384 2738 
Q 2169 2928 1744 2928 
Q 1347 2928 1158 2789 
Q 969 2650 878 2297 
L 328 2372 
Q 403 2725 575 2942 
Q 747 3159 1072 3276 
Q 1397 3394 1825 3394 
Q 2250 3394 2515 3294 
Q 2781 3194 2906 3042 
Q 3031 2891 3081 2659 
Q 3109 2516 3109 2141 
L 3109 1391 
Q 3109 606 3145 398 
Q 3181 191 3288 0 
L 2700 0 
Q 2613 175 2588 409 
z
M 2541 1666 
Q 2234 1541 1622 1453 
Q 1275 1403 1131 1340 
Q 988 1278 909 1158 
Q 831 1038 831 891 
Q 831 666 1001 516 
Q 1172 366 1500 366 
Q 1825 366 2078 508 
Q 2331 650 2450 897 
Q 2541 1088 2541 1459 
L 2541 1666 
z
" id="ArialMT-61" transform="scale(0.015625)"/>
        <path d="M 1650 503 
L 1731 6 
Q 1494 -44 1306 -44 
Q 1000 -44 831 53 
Q 663 150 594 308 
Q 525 466 525 972 
L 525 2881 
L 113 2881 
L 113 3319 
L 525 3319 
L 525 4141 
L 1084 4478 
L 1084 3319 
L 1650 3319 
L 1650 2881 
L 1084 2881 
L 1084 941 
Q 1084 700 1114 631 
Q 1144 563 1211 522 
Q 1278 481 1403 481 
Q 1497 481 1650 503 
z
" id="ArialMT-74" transform="scale(0.015625)"/>
        <path d="M 556 0 
L 556 2881 
L 59 2881 
L 59 3319 
L 556 3319 
L 556 3672 
Q 556 4006 616 4169 
Q 697 4388 901 4523 
Q 1106 4659 1475 4659 
Q 1713 4659 2000 4603 
L 1916 4113 
Q 1741 4144 1584 4144 
Q 1328 4144 1222 4034 
Q 1116 3925 1116 3625 
L 1116 3319 
L 1763 3319 
L 1763 2881 
L 1116 2881 
L 1116 0 
L 556 0 
z
" id="ArialMT-66" transform="scale(0.015625)"/>
        <path d="M 213 1659 
Q 213 2581 725 3025 
Q 1153 3394 1769 3394 
Q 2453 3394 2887 2945 
Q 3322 2497 3322 1706 
Q 3322 1066 3130 698 
Q 2938 331 2570 128 
Q 2203 -75 1769 -75 
Q 1072 -75 642 372 
Q 213 819 213 1659 
z
M 791 1659 
Q 791 1022 1069 705 
Q 1347 388 1769 388 
Q 2188 388 2466 706 
Q 2744 1025 2744 1678 
Q 2744 2294 2464 2611 
Q 2184 2928 1769 2928 
Q 1347 2928 1069 2612 
Q 791 2297 791 1659 
z
" id="ArialMT-6f" transform="scale(0.015625)"/>
        <path d="M 416 0 
L 416 3319 
L 922 3319 
L 922 2816 
Q 1116 3169 1280 3281 
Q 1444 3394 1641 3394 
Q 1925 3394 2219 3213 
L 2025 2691 
Q 1819 2813 1613 2813 
Q 1428 2813 1281 2702 
Q 1134 2591 1072 2394 
Q 978 2094 978 1738 
L 978 0 
L 416 0 
z
" id="ArialMT-72" transform="scale(0.015625)"/>
        <path d="M 422 0 
L 422 3319 
L 925 3319 
L 925 2853 
Q 1081 3097 1340 3245 
Q 1600 3394 1931 3394 
Q 2300 3394 2536 3241 
Q 2772 3088 2869 2813 
Q 3263 3394 3894 3394 
Q 4388 3394 4653 3120 
Q 4919 2847 4919 2278 
L 4919 0 
L 4359 0 
L 4359 2091 
Q 4359 2428 4304 2576 
Q 4250 2725 4106 2815 
Q 3963 2906 3769 2906 
Q 3419 2906 3187 2673 
Q 2956 2441 2956 1928 
L 2956 0 
L 2394 0 
L 2394 2156 
Q 2394 2531 2256 2718 
Q 2119 2906 1806 2906 
Q 1569 2906 1367 2781 
Q 1166 2656 1075 2415 
Q 984 2175 984 1722 
L 984 0 
L 422 0 
z
" id="ArialMT-6d" transform="scale(0.015625)"/>
        <path id="ArialMT-20" transform="scale(0.015625)"/>
        <path d="M -9 0 
L 1750 4581 
L 2403 4581 
L 4278 0 
L 3588 0 
L 3053 1388 
L 1138 1388 
L 634 0 
L -9 0 
z
M 1313 1881 
L 2866 1881 
L 2388 3150 
Q 2169 3728 2063 4100 
Q 1975 3659 1816 3225 
L 1313 1881 
z
" id="ArialMT-41" transform="scale(0.015625)"/>
        <path d="M 578 2678 
L 578 3319 
L 1219 3319 
L 1219 2678 
L 578 2678 
z
M 578 0 
L 578 641 
L 1219 641 
L 1219 0 
L 578 0 
z
" id="ArialMT-3a" transform="scale(0.015625)"/>
       </defs>
       <use xlink:href="#ArialMT-50"/>
       <use x="66.699219" xlink:href="#ArialMT-6c"/>
       <use x="88.916016" xlink:href="#ArialMT-61"/>
       <use x="144.53125" xlink:href="#ArialMT-74"/>
       <use x="172.314453" xlink:href="#ArialMT-66"/>
       <use x="200.097656" xlink:href="#ArialMT-6f"/>
       <use x="255.712891" xlink:href="#ArialMT-72"/>
       <use x="289.013672" xlink:href="#ArialMT-6d"/>
       <use x="372.314453" xlink:href="#ArialMT-20"/>
       <use x="394.597656" xlink:href="#ArialMT-41"/>
       <use x="461.296875" xlink:href="#ArialMT-3a"/>
      </g>
      <!-- Over-constrained -->
      <g style="fill:#262626;" transform="translate(98.453863 449.810391)scale(0.275 -0.275)">
       <defs>
        <path d="M 309 2231 
Q 309 3372 921 4017 
Q 1534 4663 2503 4663 
Q 3138 4663 3647 4359 
Q 4156 4056 4423 3514 
Q 4691 2972 4691 2284 
Q 4691 1588 4409 1038 
Q 4128 488 3612 205 
Q 3097 -78 2500 -78 
Q 1853 -78 1343 234 
Q 834 547 571 1087 
Q 309 1628 309 2231 
z
M 934 2222 
Q 934 1394 1379 917 
Q 1825 441 2497 441 
Q 3181 441 3623 922 
Q 4066 1403 4066 2288 
Q 4066 2847 3877 3264 
Q 3688 3681 3323 3911 
Q 2959 4141 2506 4141 
Q 1863 4141 1398 3698 
Q 934 3256 934 2222 
z
" id="ArialMT-4f" transform="scale(0.015625)"/>
        <path d="M 1344 0 
L 81 3319 
L 675 3319 
L 1388 1331 
Q 1503 1009 1600 663 
Q 1675 925 1809 1294 
L 2547 3319 
L 3125 3319 
L 1869 0 
L 1344 0 
z
" id="ArialMT-76" transform="scale(0.015625)"/>
        <path d="M 2694 1069 
L 3275 997 
Q 3138 488 2766 206 
Q 2394 -75 1816 -75 
Q 1088 -75 661 373 
Q 234 822 234 1631 
Q 234 2469 665 2931 
Q 1097 3394 1784 3394 
Q 2450 3394 2872 2941 
Q 3294 2488 3294 1666 
Q 3294 1616 3291 1516 
L 816 1516 
Q 847 969 1125 678 
Q 1403 388 1819 388 
Q 2128 388 2347 550 
Q 2566 713 2694 1069 
z
M 847 1978 
L 2700 1978 
Q 2663 2397 2488 2606 
Q 2219 2931 1791 2931 
Q 1403 2931 1139 2672 
Q 875 2413 847 1978 
z
" id="ArialMT-65" transform="scale(0.015625)"/>
        <path d="M 203 1375 
L 203 1941 
L 1931 1941 
L 1931 1375 
L 203 1375 
z
" id="ArialMT-2d" transform="scale(0.015625)"/>
        <path d="M 2588 1216 
L 3141 1144 
Q 3050 572 2676 248 
Q 2303 -75 1759 -75 
Q 1078 -75 664 370 
Q 250 816 250 1647 
Q 250 2184 428 2587 
Q 606 2991 970 3192 
Q 1334 3394 1763 3394 
Q 2303 3394 2647 3120 
Q 2991 2847 3088 2344 
L 2541 2259 
Q 2463 2594 2264 2762 
Q 2066 2931 1784 2931 
Q 1359 2931 1093 2626 
Q 828 2322 828 1663 
Q 828 994 1084 691 
Q 1341 388 1753 388 
Q 2084 388 2306 591 
Q 2528 794 2588 1216 
z
" id="ArialMT-63" transform="scale(0.015625)"/>
        <path d="M 422 0 
L 422 3319 
L 928 3319 
L 928 2847 
Q 1294 3394 1984 3394 
Q 2284 3394 2536 3286 
Q 2788 3178 2913 3003 
Q 3038 2828 3088 2588 
Q 3119 2431 3119 2041 
L 3119 0 
L 2556 0 
L 2556 2019 
Q 2556 2363 2490 2533 
Q 2425 2703 2258 2804 
Q 2091 2906 1866 2906 
Q 1506 2906 1245 2678 
Q 984 2450 984 1813 
L 984 0 
L 422 0 
z
" id="ArialMT-6e" transform="scale(0.015625)"/>
        <path d="M 197 991 
L 753 1078 
Q 800 744 1014 566 
Q 1228 388 1613 388 
Q 2000 388 2187 545 
Q 2375 703 2375 916 
Q 2375 1106 2209 1216 
Q 2094 1291 1634 1406 
Q 1016 1563 777 1677 
Q 538 1791 414 1992 
Q 291 2194 291 2438 
Q 291 2659 392 2848 
Q 494 3038 669 3163 
Q 800 3259 1026 3326 
Q 1253 3394 1513 3394 
Q 1903 3394 2198 3281 
Q 2494 3169 2634 2976 
Q 2775 2784 2828 2463 
L 2278 2388 
Q 2241 2644 2061 2787 
Q 1881 2931 1553 2931 
Q 1166 2931 1000 2803 
Q 834 2675 834 2503 
Q 834 2394 903 2306 
Q 972 2216 1119 2156 
Q 1203 2125 1616 2013 
Q 2213 1853 2448 1751 
Q 2684 1650 2818 1456 
Q 2953 1263 2953 975 
Q 2953 694 2789 445 
Q 2625 197 2315 61 
Q 2006 -75 1616 -75 
Q 969 -75 630 194 
Q 291 463 197 991 
z
" id="ArialMT-73" transform="scale(0.015625)"/>
        <path d="M 425 3934 
L 425 4581 
L 988 4581 
L 988 3934 
L 425 3934 
z
M 425 0 
L 425 3319 
L 988 3319 
L 988 0 
L 425 0 
z
" id="ArialMT-69" transform="scale(0.015625)"/>
        <path d="M 2575 0 
L 2575 419 
Q 2259 -75 1647 -75 
Q 1250 -75 917 144 
Q 584 363 401 755 
Q 219 1147 219 1656 
Q 219 2153 384 2558 
Q 550 2963 881 3178 
Q 1213 3394 1622 3394 
Q 1922 3394 2156 3267 
Q 2391 3141 2538 2938 
L 2538 4581 
L 3097 4581 
L 3097 0 
L 2575 0 
z
M 797 1656 
Q 797 1019 1065 703 
Q 1334 388 1700 388 
Q 2069 388 2326 689 
Q 2584 991 2584 1609 
Q 2584 2291 2321 2609 
Q 2059 2928 1675 2928 
Q 1300 2928 1048 2622 
Q 797 2316 797 1656 
z
" id="ArialMT-64" transform="scale(0.015625)"/>
       </defs>
       <use xlink:href="#ArialMT-4f"/>
       <use x="77.783203" xlink:href="#ArialMT-76"/>
       <use x="127.783203" xlink:href="#ArialMT-65"/>
       <use x="183.398438" xlink:href="#ArialMT-72"/>
       <use x="216.699219" xlink:href="#ArialMT-2d"/>
       <use x="250" xlink:href="#ArialMT-63"/>
       <use x="300" xlink:href="#ArialMT-6f"/>
       <use x="355.615234" xlink:href="#ArialMT-6e"/>
       <use x="411.230469" xlink:href="#ArialMT-73"/>
       <use x="461.230469" xlink:href="#ArialMT-74"/>
       <use x="489.013672" xlink:href="#ArialMT-72"/>
       <use x="522.314453" xlink:href="#ArialMT-61"/>
       <use x="577.929688" xlink:href="#ArialMT-69"/>
       <use x="600.146484" xlink:href="#ArialMT-6e"/>
       <use x="655.761719" xlink:href="#ArialMT-65"/>
       <use x="711.376953" xlink:href="#ArialMT-64"/>
      </g>
     </g>
    </g>
    <g id="xtick_2">
     <g id="line2d_2">
      <g>
       <use style="fill:#262626;stroke:#262626;stroke-width:1.25;" x="439.001434" xlink:href="#m0f3af11157" y="391.54"/>
      </g>
     </g>
     <g id="text_2">
      <!-- Platform B: -->
      <g style="fill:#262626;" transform="translate(370.99909 420.723984)scale(0.275 -0.275)">
       <defs>
        <path d="M 469 0 
L 469 4581 
L 2188 4581 
Q 2713 4581 3030 4442 
Q 3347 4303 3526 4014 
Q 3706 3725 3706 3409 
Q 3706 3116 3547 2856 
Q 3388 2597 3066 2438 
Q 3481 2316 3704 2022 
Q 3928 1728 3928 1328 
Q 3928 1006 3792 729 
Q 3656 453 3456 303 
Q 3256 153 2954 76 
Q 2653 0 2216 0 
L 469 0 
z
M 1075 2656 
L 2066 2656 
Q 2469 2656 2644 2709 
Q 2875 2778 2992 2937 
Q 3109 3097 3109 3338 
Q 3109 3566 3000 3739 
Q 2891 3913 2687 3977 
Q 2484 4041 1991 4041 
L 1075 4041 
L 1075 2656 
z
M 1075 541 
L 2216 541 
Q 2509 541 2628 563 
Q 2838 600 2978 687 
Q 3119 775 3209 942 
Q 3300 1109 3300 1328 
Q 3300 1584 3169 1773 
Q 3038 1963 2805 2039 
Q 2572 2116 2134 2116 
L 1075 2116 
L 1075 541 
z
" id="ArialMT-42" transform="scale(0.015625)"/>
       </defs>
       <use xlink:href="#ArialMT-50"/>
       <use x="66.699219" xlink:href="#ArialMT-6c"/>
       <use x="88.916016" xlink:href="#ArialMT-61"/>
       <use x="144.53125" xlink:href="#ArialMT-74"/>
       <use x="172.314453" xlink:href="#ArialMT-66"/>
       <use x="200.097656" xlink:href="#ArialMT-6f"/>
       <use x="255.712891" xlink:href="#ArialMT-72"/>
       <use x="289.013672" xlink:href="#ArialMT-6d"/>
       <use x="372.314453" xlink:href="#ArialMT-20"/>
       <use x="400.097656" xlink:href="#ArialMT-42"/>
       <use x="466.796875" xlink:href="#ArialMT-3a"/>
      </g>
      <!-- Under-constrained -->
      <g style="fill:#262626;" transform="translate(325.894793 449.810391)scale(0.275 -0.275)">
       <defs>
        <path d="M 3500 4581 
L 4106 4581 
L 4106 1934 
Q 4106 1244 3950 837 
Q 3794 431 3386 176 
Q 2978 -78 2316 -78 
Q 1672 -78 1262 144 
Q 853 366 678 786 
Q 503 1206 503 1934 
L 503 4581 
L 1109 4581 
L 1109 1938 
Q 1109 1341 1220 1058 
Q 1331 775 1601 622 
Q 1872 469 2263 469 
Q 2931 469 3215 772 
Q 3500 1075 3500 1938 
L 3500 4581 
z
" id="ArialMT-55" transform="scale(0.015625)"/>
       </defs>
       <use xlink:href="#ArialMT-55"/>
       <use x="72.216797" xlink:href="#ArialMT-6e"/>
       <use x="127.832031" xlink:href="#ArialMT-64"/>
       <use x="183.447266" xlink:href="#ArialMT-65"/>
       <use x="239.0625" xlink:href="#ArialMT-72"/>
       <use x="272.363281" xlink:href="#ArialMT-2d"/>
       <use x="305.664062" xlink:href="#ArialMT-63"/>
       <use x="355.664062" xlink:href="#ArialMT-6f"/>
       <use x="411.279297" xlink:href="#ArialMT-6e"/>
       <use x="466.894531" xlink:href="#ArialMT-73"/>
       <use x="516.894531" xlink:href="#ArialMT-74"/>
       <use x="544.677734" xlink:href="#ArialMT-72"/>
       <use x="577.978516" xlink:href="#ArialMT-61"/>
       <use x="633.59375" xlink:href="#ArialMT-69"/>
       <use x="655.810547" xlink:href="#ArialMT-6e"/>
       <use x="711.425781" xlink:href="#ArialMT-65"/>
       <use x="767.041016" xlink:href="#ArialMT-64"/>
      </g>
     </g>
    </g>
    <g id="xtick_3">
     <g id="line2d_3">
      <g>
       <use style="fill:#262626;stroke:#262626;stroke-width:1.25;" x="674.095098" xlink:href="#m0f3af11157" y="391.54"/>
      </g>
     </g>
     <g id="text_3">
      <!-- Platform C: -->
      <g style="fill:#262626;" transform="translate(605.334356 420.723984)scale(0.275 -0.275)">
       <defs>
        <path d="M 3763 1606 
L 4369 1453 
Q 4178 706 3683 314 
Q 3188 -78 2472 -78 
Q 1731 -78 1267 223 
Q 803 525 561 1097 
Q 319 1669 319 2325 
Q 319 3041 592 3573 
Q 866 4106 1370 4382 
Q 1875 4659 2481 4659 
Q 3169 4659 3637 4309 
Q 4106 3959 4291 3325 
L 3694 3184 
Q 3534 3684 3231 3912 
Q 2928 4141 2469 4141 
Q 1941 4141 1586 3887 
Q 1231 3634 1087 3207 
Q 944 2781 944 2328 
Q 944 1744 1114 1308 
Q 1284 872 1643 656 
Q 2003 441 2422 441 
Q 2931 441 3284 734 
Q 3638 1028 3763 1606 
z
" id="ArialMT-43" transform="scale(0.015625)"/>
       </defs>
       <use xlink:href="#ArialMT-50"/>
       <use x="66.699219" xlink:href="#ArialMT-6c"/>
       <use x="88.916016" xlink:href="#ArialMT-61"/>
       <use x="144.53125" xlink:href="#ArialMT-74"/>
       <use x="172.314453" xlink:href="#ArialMT-66"/>
       <use x="200.097656" xlink:href="#ArialMT-6f"/>
       <use x="255.712891" xlink:href="#ArialMT-72"/>
       <use x="289.013672" xlink:href="#ArialMT-6d"/>
       <use x="372.314453" xlink:href="#ArialMT-20"/>
       <use x="400.097656" xlink:href="#ArialMT-43"/>
       <use x="472.314453" xlink:href="#ArialMT-3a"/>
      </g>
      <!-- Balanced -->
      <g style="fill:#262626;" transform="translate(616.761895 449.810391)scale(0.275 -0.275)">
       <use xlink:href="#ArialMT-42"/>
       <use x="66.699219" xlink:href="#ArialMT-61"/>
       <use x="122.314453" xlink:href="#ArialMT-6c"/>
       <use x="144.53125" xlink:href="#ArialMT-61"/>
       <use x="200.146484" xlink:href="#ArialMT-6e"/>
       <use x="255.761719" xlink:href="#ArialMT-63"/>
       <use x="305.761719" xlink:href="#ArialMT-65"/>
       <use x="361.376953" xlink:href="#ArialMT-64"/>
      </g>
     </g>
    </g>
   </g>
   <g id="matplotlib.axis_2">
    <g id="ytick_1">
     <g id="line2d_4">
      <path clip-path="url(#p8fb80ec018)" d="M 86.360937 391.54 
L 791.64193 391.54 
" style="fill:none;stroke:#cccccc;stroke-linecap:round;"/>
     </g>
     <g id="line2d_5">
      <defs>
       <path d="M 0 0 
L -6 0 
" id="ma91a02dacf" style="stroke:#262626;stroke-width:1.25;"/>
      </defs>
      <g>
       <use style="fill:#262626;stroke:#262626;stroke-width:1.25;" x="86.360937" xlink:href="#ma91a02dacf" y="391.54"/>
      </g>
     </g>
     <g id="text_4">
      <!-- 0.0 -->
      <g style="fill:#262626;" transform="translate(38.635937 401.381992)scale(0.275 -0.275)">
       <defs>
        <path d="M 266 2259 
Q 266 3072 433 3567 
Q 600 4063 929 4331 
Q 1259 4600 1759 4600 
Q 2128 4600 2406 4451 
Q 2684 4303 2865 4023 
Q 3047 3744 3150 3342 
Q 3253 2941 3253 2259 
Q 3253 1453 3087 958 
Q 2922 463 2592 192 
Q 2263 -78 1759 -78 
Q 1097 -78 719 397 
Q 266 969 266 2259 
z
M 844 2259 
Q 844 1131 1108 757 
Q 1372 384 1759 384 
Q 2147 384 2411 759 
Q 2675 1134 2675 2259 
Q 2675 3391 2411 3762 
Q 2147 4134 1753 4134 
Q 1366 4134 1134 3806 
Q 844 3388 844 2259 
z
" id="ArialMT-30" transform="scale(0.015625)"/>
        <path d="M 581 0 
L 581 641 
L 1222 641 
L 1222 0 
L 581 0 
z
" id="ArialMT-2e" transform="scale(0.015625)"/>
       </defs>
       <use xlink:href="#ArialMT-30"/>
       <use x="55.615234" xlink:href="#ArialMT-2e"/>
       <use x="83.398438" xlink:href="#ArialMT-30"/>
      </g>
     </g>
    </g>
    <g id="ytick_2">
     <g id="line2d_6">
      <path clip-path="url(#p8fb80ec018)" d="M 86.360937 336.256667 
L 791.64193 336.256667 
" style="fill:none;stroke:#cccccc;stroke-linecap:round;"/>
     </g>
     <g id="line2d_7">
      <g>
       <use style="fill:#262626;stroke:#262626;stroke-width:1.25;" x="86.360937" xlink:href="#ma91a02dacf" y="336.256667"/>
      </g>
     </g>
     <g id="text_5">
      <!-- 0.2 -->
      <g style="fill:#262626;" transform="translate(38.635937 346.098659)scale(0.275 -0.275)">
       <defs>
        <path d="M 3222 541 
L 3222 0 
L 194 0 
Q 188 203 259 391 
Q 375 700 629 1000 
Q 884 1300 1366 1694 
Q 2113 2306 2375 2664 
Q 2638 3022 2638 3341 
Q 2638 3675 2398 3904 
Q 2159 4134 1775 4134 
Q 1369 4134 1125 3890 
Q 881 3647 878 3216 
L 300 3275 
Q 359 3922 746 4261 
Q 1134 4600 1788 4600 
Q 2447 4600 2831 4234 
Q 3216 3869 3216 3328 
Q 3216 3053 3103 2787 
Q 2991 2522 2730 2228 
Q 2469 1934 1863 1422 
Q 1356 997 1212 845 
Q 1069 694 975 541 
L 3222 541 
z
" id="ArialMT-32" transform="scale(0.015625)"/>
       </defs>
       <use xlink:href="#ArialMT-30"/>
       <use x="55.615234" xlink:href="#ArialMT-2e"/>
       <use x="83.398438" xlink:href="#ArialMT-32"/>
      </g>
     </g>
    </g>
    <g id="ytick_3">
     <g id="line2d_8">
      <path clip-path="url(#p8fb80ec018)" d="M 86.360937 280.973333 
L 791.64193 280.973333 
" style="fill:none;stroke:#cccccc;stroke-linecap:round;"/>
     </g>
     <g id="line2d_9">
      <g>
       <use style="fill:#262626;stroke:#262626;stroke-width:1.25;" x="86.360937" xlink:href="#ma91a02dacf" y="280.973333"/>
      </g>
     </g>
     <g id="text_6">
      <!-- 0.4 -->
      <g style="fill:#262626;" transform="translate(38.635937 290.815326)scale(0.275 -0.275)">
       <defs>
        <path d="M 2069 0 
L 2069 1097 
L 81 1097 
L 81 1613 
L 2172 4581 
L 2631 4581 
L 2631 1613 
L 3250 1613 
L 3250 1097 
L 2631 1097 
L 2631 0 
L 2069 0 
z
M 2069 1613 
L 2069 3678 
L 634 1613 
L 2069 1613 
z
" id="ArialMT-34" transform="scale(0.015625)"/>
       </defs>
       <use xlink:href="#ArialMT-30"/>
       <use x="55.615234" xlink:href="#ArialMT-2e"/>
       <use x="83.398438" xlink:href="#ArialMT-34"/>
      </g>
     </g>
    </g>
    <g id="ytick_4">
     <g id="line2d_10">
      <path clip-path="url(#p8fb80ec018)" d="M 86.360937 225.69 
L 791.64193 225.69 
" style="fill:none;stroke:#cccccc;stroke-linecap:round;"/>
     </g>
     <g id="line2d_11">
      <g>
       <use style="fill:#262626;stroke:#262626;stroke-width:1.25;" x="86.360937" xlink:href="#ma91a02dacf" y="225.69"/>
      </g>
     </g>
     <g id="text_7">
      <!-- 0.6 -->
      <g style="fill:#262626;" transform="translate(38.635937 235.531992)scale(0.275 -0.275)">
       <defs>
        <path d="M 3184 3459 
L 2625 3416 
Q 2550 3747 2413 3897 
Q 2184 4138 1850 4138 
Q 1581 4138 1378 3988 
Q 1113 3794 959 3422 
Q 806 3050 800 2363 
Q 1003 2672 1297 2822 
Q 1591 2972 1913 2972 
Q 2475 2972 2870 2558 
Q 3266 2144 3266 1488 
Q 3266 1056 3080 686 
Q 2894 316 2569 119 
Q 2244 -78 1831 -78 
Q 1128 -78 684 439 
Q 241 956 241 2144 
Q 241 3472 731 4075 
Q 1159 4600 1884 4600 
Q 2425 4600 2770 4297 
Q 3116 3994 3184 3459 
z
M 888 1484 
Q 888 1194 1011 928 
Q 1134 663 1356 523 
Q 1578 384 1822 384 
Q 2178 384 2434 671 
Q 2691 959 2691 1453 
Q 2691 1928 2437 2201 
Q 2184 2475 1800 2475 
Q 1419 2475 1153 2201 
Q 888 1928 888 1484 
z
" id="ArialMT-36" transform="scale(0.015625)"/>
       </defs>
       <use xlink:href="#ArialMT-30"/>
       <use x="55.615234" xlink:href="#ArialMT-2e"/>
       <use x="83.398438" xlink:href="#ArialMT-36"/>
      </g>
     </g>
    </g>
    <g id="ytick_5">
     <g id="line2d_12">
      <path clip-path="url(#p8fb80ec018)" d="M 86.360937 170.406667 
L 791.64193 170.406667 
" style="fill:none;stroke:#cccccc;stroke-linecap:round;"/>
     </g>
     <g id="line2d_13">
      <g>
       <use style="fill:#262626;stroke:#262626;stroke-width:1.25;" x="86.360937" xlink:href="#ma91a02dacf" y="170.406667"/>
      </g>
     </g>
     <g id="text_8">
      <!-- 0.8 -->
      <g style="fill:#262626;" transform="translate(38.635937 180.248659)scale(0.275 -0.275)">
       <defs>
        <path d="M 1131 2484 
Q 781 2613 612 2850 
Q 444 3088 444 3419 
Q 444 3919 803 4259 
Q 1163 4600 1759 4600 
Q 2359 4600 2725 4251 
Q 3091 3903 3091 3403 
Q 3091 3084 2923 2848 
Q 2756 2613 2416 2484 
Q 2838 2347 3058 2040 
Q 3278 1734 3278 1309 
Q 3278 722 2862 322 
Q 2447 -78 1769 -78 
Q 1091 -78 675 323 
Q 259 725 259 1325 
Q 259 1772 486 2073 
Q 713 2375 1131 2484 
z
M 1019 3438 
Q 1019 3113 1228 2906 
Q 1438 2700 1772 2700 
Q 2097 2700 2305 2904 
Q 2513 3109 2513 3406 
Q 2513 3716 2298 3927 
Q 2084 4138 1766 4138 
Q 1444 4138 1231 3931 
Q 1019 3725 1019 3438 
z
M 838 1322 
Q 838 1081 952 856 
Q 1066 631 1291 507 
Q 1516 384 1775 384 
Q 2178 384 2440 643 
Q 2703 903 2703 1303 
Q 2703 1709 2433 1975 
Q 2163 2241 1756 2241 
Q 1359 2241 1098 1978 
Q 838 1716 838 1322 
z
" id="ArialMT-38" transform="scale(0.015625)"/>
       </defs>
       <use xlink:href="#ArialMT-30"/>
       <use x="55.615234" xlink:href="#ArialMT-2e"/>
       <use x="83.398438" xlink:href="#ArialMT-38"/>
      </g>
     </g>
    </g>
    <g id="ytick_6">
     <g id="line2d_14">
      <path clip-path="url(#p8fb80ec018)" d="M 86.360937 115.123333 
L 791.64193 115.123333 
" style="fill:none;stroke:#cccccc;stroke-linecap:round;"/>
     </g>
     <g id="line2d_15">
      <g>
       <use style="fill:#262626;stroke:#262626;stroke-width:1.25;" x="86.360937" xlink:href="#ma91a02dacf" y="115.123333"/>
      </g>
     </g>
     <g id="text_9">
      <!-- 1.0 -->
      <g style="fill:#262626;" transform="translate(38.635937 124.965326)scale(0.275 -0.275)">
       <defs>
        <path d="M 2384 0 
L 1822 0 
L 1822 3584 
Q 1619 3391 1289 3197 
Q 959 3003 697 2906 
L 697 3450 
Q 1169 3672 1522 3987 
Q 1875 4303 2022 4600 
L 2384 4600 
L 2384 0 
z
" id="ArialMT-31" transform="scale(0.015625)"/>
       </defs>
       <use xlink:href="#ArialMT-31"/>
       <use x="55.615234" xlink:href="#ArialMT-2e"/>
       <use x="83.398438" xlink:href="#ArialMT-30"/>
      </g>
     </g>
    </g>
    <g id="ytick_7">
     <g id="line2d_16">
      <path clip-path="url(#p8fb80ec018)" d="M 86.360937 59.84 
L 791.64193 59.84 
" style="fill:none;stroke:#cccccc;stroke-linecap:round;"/>
     </g>
     <g id="line2d_17">
      <g>
       <use style="fill:#262626;stroke:#262626;stroke-width:1.25;" x="86.360937" xlink:href="#ma91a02dacf" y="59.84"/>
      </g>
     </g>
     <g id="text_10">
      <!-- 1.2 -->
      <g style="fill:#262626;" transform="translate(38.635937 69.681992)scale(0.275 -0.275)">
       <use xlink:href="#ArialMT-31"/>
       <use x="55.615234" xlink:href="#ArialMT-2e"/>
       <use x="83.398438" xlink:href="#ArialMT-32"/>
      </g>
     </g>
    </g>
    <g id="text_11">
     <!-- VWFO -->
     <g style="fill:#262626;" transform="translate(28.673437 270.682969)rotate(-90)scale(0.3 -0.3)">
      <defs>
       <path d="M 1803 0 
L 28 4581 
L 684 4581 
L 1875 1253 
Q 2019 853 2116 503 
Q 2222 878 2363 1253 
L 3600 4581 
L 4219 4581 
L 2425 0 
L 1803 0 
z
" id="ArialMT-56" transform="scale(0.015625)"/>
       <path d="M 1294 0 
L 78 4581 
L 700 4581 
L 1397 1578 
Q 1509 1106 1591 641 
Q 1766 1375 1797 1488 
L 2669 4581 
L 3400 4581 
L 4056 2263 
Q 4303 1400 4413 641 
Q 4500 1075 4641 1638 
L 5359 4581 
L 5969 4581 
L 4713 0 
L 4128 0 
L 3163 3491 
Q 3041 3928 3019 4028 
Q 2947 3713 2884 3491 
L 1913 0 
L 1294 0 
z
" id="ArialMT-57" transform="scale(0.015625)"/>
       <path d="M 525 0 
L 525 4581 
L 3616 4581 
L 3616 4041 
L 1131 4041 
L 1131 2622 
L 3281 2622 
L 3281 2081 
L 1131 2081 
L 1131 0 
L 525 0 
z
" id="ArialMT-46" transform="scale(0.015625)"/>
      </defs>
      <use xlink:href="#ArialMT-56"/>
      <use x="66.699219" xlink:href="#ArialMT-57"/>
      <use x="161.083984" xlink:href="#ArialMT-46"/>
      <use x="222.167969" xlink:href="#ArialMT-4f"/>
     </g>
    </g>
   </g>
   <g id="PolyCollection_1">
    <defs>
     <path d="M 204.344802 -141.270768 
L 203.470737 -141.270768 
L 203.359002 -143.785249 
L 203.224998 -146.299729 
L 203.065969 -148.81421 
L 202.87922 -151.32869 
L 202.662213 -153.843171 
L 202.412684 -156.357651 
L 202.128761 -158.872132 
L 201.809079 -161.386612 
L 201.452895 -163.901093 
L 201.060177 -166.415573 
L 200.63168 -168.930054 
L 200.16899 -171.444534 
L 199.674525 -173.959015 
L 199.151507 -176.473496 
L 198.603885 -178.987976 
L 198.036216 -181.502457 
L 197.453516 -184.016937 
L 196.861069 -186.531418 
L 196.264232 -189.045898 
L 195.668213 -191.560379 
L 195.077867 -194.074859 
L 194.49751 -196.58934 
L 193.930761 -199.10382 
L 193.380436 -201.618301 
L 192.848495 -204.132781 
L 192.336051 -206.647262 
L 191.843441 -209.161743 
L 191.370359 -211.676223 
L 190.916038 -214.190704 
L 190.479466 -216.705184 
L 190.059631 -219.219665 
L 189.655753 -221.734145 
L 189.267507 -224.248626 
L 188.8952 -226.763106 
L 188.539887 -229.277587 
L 188.203424 -231.792067 
L 187.888438 -234.306548 
L 187.598214 -236.821029 
L 187.336521 -239.335509 
L 187.10737 -241.84999 
L 186.914733 -244.36447 
L 186.76225 -246.878951 
L 186.652936 -249.393431 
L 186.588922 -251.907912 
L 186.571254 -254.422392 
L 186.599747 -256.936873 
L 186.672939 -259.451353 
L 186.788112 -261.965834 
L 186.941405 -264.480314 
L 187.127994 -266.994795 
L 187.342331 -269.509276 
L 187.578421 -272.023756 
L 187.830115 -274.538237 
L 188.09141 -277.052717 
L 188.356719 -279.567198 
L 188.621113 -282.081678 
L 188.880518 -284.596159 
L 189.131857 -287.110639 
L 189.373144 -289.62512 
L 189.603518 -292.1396 
L 189.823229 -294.654081 
L 190.033582 -297.168561 
L 190.236844 -299.683042 
L 190.436107 -302.197523 
L 190.635142 -304.712003 
L 190.83822 -307.226484 
L 191.049919 -309.740964 
L 191.274926 -312.255445 
L 191.51783 -314.769925 
L 191.782917 -317.284406 
L 192.073971 -319.798886 
L 192.394097 -322.313367 
L 192.745552 -324.827847 
L 193.129625 -327.342328 
L 193.546537 -329.856808 
L 193.995391 -332.371289 
L 194.474175 -334.88577 
L 194.9798 -337.40025 
L 195.508202 -339.914731 
L 196.054472 -342.429211 
L 196.613036 -344.943692 
L 197.17786 -347.458172 
L 197.74267 -349.972653 
L 198.301179 -352.487133 
L 198.847315 -355.001614 
L 199.375418 -357.516094 
L 199.880426 -360.030575 
L 200.358014 -362.545055 
L 200.804694 -365.059536 
L 201.217879 -367.574017 
L 201.595893 -370.088497 
L 201.937954 -372.602978 
L 202.244108 -375.117458 
L 202.515145 -377.631939 
L 202.75249 -380.146419 
L 202.95808 -382.6609 
L 203.134237 -385.17538 
L 203.283546 -387.689861 
L 203.408733 -390.204341 
L 204.406806 -390.204341 
L 204.406806 -390.204341 
L 204.531993 -387.689861 
L 204.681302 -385.17538 
L 204.857459 -382.6609 
L 205.063049 -380.146419 
L 205.300394 -377.631939 
L 205.571431 -375.117458 
L 205.877585 -372.602978 
L 206.219646 -370.088497 
L 206.59766 -367.574017 
L 207.010845 -365.059536 
L 207.457525 -362.545055 
L 207.935113 -360.030575 
L 208.440121 -357.516094 
L 208.968225 -355.001614 
L 209.51436 -352.487133 
L 210.072869 -349.972653 
L 210.637679 -347.458172 
L 211.202503 -344.943692 
L 211.761068 -342.429211 
L 212.307337 -339.914731 
L 212.835739 -337.40025 
L 213.341365 -334.88577 
L 213.820148 -332.371289 
L 214.269003 -329.856808 
L 214.685914 -327.342328 
L 215.069987 -324.827847 
L 215.421443 -322.313367 
L 215.741568 -319.798886 
L 216.032622 -317.284406 
L 216.297709 -314.769925 
L 216.540613 -312.255445 
L 216.76562 -309.740964 
L 216.977319 -307.226484 
L 217.180397 -304.712003 
L 217.379432 -302.197523 
L 217.578696 -299.683042 
L 217.781957 -297.168561 
L 217.992311 -294.654081 
L 218.212021 -292.1396 
L 218.442395 -289.62512 
L 218.683682 -287.110639 
L 218.935022 -284.596159 
L 219.194426 -282.081678 
L 219.45882 -279.567198 
L 219.724129 -277.052717 
L 219.985424 -274.538237 
L 220.237118 -272.023756 
L 220.473208 -269.509276 
L 220.687545 -266.994795 
L 220.874134 -264.480314 
L 221.027427 -261.965834 
L 221.1426 -259.451353 
L 221.215792 -256.936873 
L 221.244286 -254.422392 
L 221.226617 -251.907912 
L 221.162603 -249.393431 
L 221.053289 -246.878951 
L 220.900806 -244.36447 
L 220.708169 -241.84999 
L 220.479018 -239.335509 
L 220.217325 -236.821029 
L 219.927102 -234.306548 
L 219.612115 -231.792067 
L 219.275653 -229.277587 
L 218.920339 -226.763106 
L 218.548032 -224.248626 
L 218.159786 -221.734145 
L 217.755908 -219.219665 
L 217.336073 -216.705184 
L 216.899502 -214.190704 
L 216.44518 -211.676223 
L 215.972098 -209.161743 
L 215.479488 -206.647262 
L 214.967044 -204.132781 
L 214.435103 -201.618301 
L 213.884778 -199.10382 
L 213.318029 -196.58934 
L 212.737672 -194.074859 
L 212.147326 -191.560379 
L 211.551307 -189.045898 
L 210.95447 -186.531418 
L 210.362024 -184.016937 
L 209.779323 -181.502457 
L 209.211654 -178.987976 
L 208.664032 -176.473496 
L 208.141014 -173.959015 
L 207.646549 -171.444534 
L 207.183859 -168.930054 
L 206.755362 -166.415573 
L 206.362644 -163.901093 
L 206.00646 -161.386612 
L 205.686778 -158.872132 
L 205.402855 -156.357651 
L 205.153326 -153.843171 
L 204.936319 -151.32869 
L 204.74957 -148.81421 
L 204.590542 -146.299729 
L 204.456537 -143.785249 
L 204.344802 -141.270768 
z
" id="m1682e8bd37" style="stroke:#8a8a8a;stroke-width:1.5;"/>
    </defs>
    <g clip-path="url(#p8fb80ec018)">
     <use style="fill:#e6e6e6;stroke:#8a8a8a;stroke-width:1.5;" x="0" xlink:href="#m1682e8bd37" y="462.476016"/>
    </g>
   </g>
   <g id="PolyCollection_2">
    <defs>
     <path d="M 443.38326 -90.665084 
L 434.619607 -90.665084 
L 433.049025 -93.716763 
L 431.041393 -96.768443 
L 428.520856 -99.820123 
L 425.412977 -102.871802 
L 421.64969 -105.923482 
L 417.174989 -108.975162 
L 411.950961 -112.026841 
L 405.963697 -115.078521 
L 399.228488 -118.130201 
L 391.793713 -121.18188 
L 383.742902 -124.23356 
L 375.194514 -127.28524 
L 366.29925 -130.336919 
L 357.23486 -133.388599 
L 348.198745 -136.440279 
L 339.398806 -139.491958 
L 331.043229 -142.543638 
L 323.329992 -145.595318 
L 316.436879 -148.646997 
L 310.51276 -151.698677 
L 305.670727 -154.750357 
L 301.983506 -157.802036 
L 299.481348 -160.853716 
L 298.152378 -163.905396 
L 297.945235 -166.957075 
L 298.773642 -170.008755 
L 300.522491 -173.060435 
L 303.05496 -176.112114 
L 306.220167 -179.163794 
L 309.860893 -182.215474 
L 313.820943 -185.267153 
L 317.951782 -188.318833 
L 322.118145 -191.370513 
L 326.202401 -194.422192 
L 330.10754 -197.473872 
L 333.758739 -200.525552 
L 337.103546 -203.577231 
L 340.110805 -206.628911 
L 342.768539 -209.680591 
L 345.081011 -212.73227 
L 347.065282 -215.78395 
L 348.747543 -218.83563 
L 350.159515 -221.887309 
L 351.335169 -224.938989 
L 352.307955 -227.990669 
L 353.10869 -231.042348 
L 353.764158 -234.094028 
L 354.296421 -237.145708 
L 354.722776 -240.197387 
L 355.056241 -243.249067 
L 355.306409 -246.300747 
L 355.480511 -249.352426 
L 355.584514 -252.404106 
L 355.624121 -255.455786 
L 355.60556 -258.507465 
L 355.536112 -261.559145 
L 355.424359 -264.610825 
L 355.280196 -267.662504 
L 355.114675 -270.714184 
L 354.939773 -273.765864 
L 354.768174 -276.817543 
L 354.613156 -279.869223 
L 354.488631 -282.920903 
L 354.409363 -285.972582 
L 354.391356 -289.024262 
L 354.452345 -292.075941 
L 354.612328 -295.127621 
L 354.894017 -298.179301 
L 355.323103 -301.23098 
L 355.928225 -304.28266 
L 356.740538 -307.33434 
L 357.792813 -310.386019 
L 359.118055 -313.437699 
L 360.747641 -316.489379 
L 362.70909 -319.541058 
L 365.023586 -322.592738 
L 367.703481 -325.644418 
L 370.750002 -328.696097 
L 374.151431 -331.747777 
L 377.881997 -334.799457 
L 381.901689 -337.851136 
L 386.157093 -340.902816 
L 390.583283 -343.954496 
L 395.106674 -347.006175 
L 399.648611 -350.057855 
L 404.129429 -353.109535 
L 408.472604 -356.161214 
L 412.608654 -359.212894 
L 416.478442 -362.264574 
L 420.03563 -365.316253 
L 423.248108 -368.367933 
L 426.098361 -371.419613 
L 428.582828 -374.471292 
L 430.710413 -377.522972 
L 432.500367 -380.574652 
L 433.979804 -383.626331 
L 435.181097 -386.678011 
L 436.139389 -389.729691 
L 436.890392 -392.78137 
L 441.112476 -392.78137 
L 441.112476 -392.78137 
L 441.863479 -389.729691 
L 442.82177 -386.678011 
L 444.023063 -383.626331 
L 445.5025 -380.574652 
L 447.292455 -377.522972 
L 449.42004 -374.471292 
L 451.904507 -371.419613 
L 454.754759 -368.367933 
L 457.967237 -365.316253 
L 461.524425 -362.264574 
L 465.394214 -359.212894 
L 469.530263 -356.161214 
L 473.873438 -353.109535 
L 478.354256 -350.057855 
L 482.896194 -347.006175 
L 487.419584 -343.954496 
L 491.845775 -340.902816 
L 496.101178 -337.851136 
L 500.12087 -334.799457 
L 503.851437 -331.747777 
L 507.252865 -328.696097 
L 510.299386 -325.644418 
L 512.979281 -322.592738 
L 515.293777 -319.541058 
L 517.255226 -316.489379 
L 518.884813 -313.437699 
L 520.210055 -310.386019 
L 521.26233 -307.33434 
L 522.074642 -304.28266 
L 522.679765 -301.23098 
L 523.108851 -298.179301 
L 523.39054 -295.127621 
L 523.550523 -292.075941 
L 523.611512 -289.024262 
L 523.593504 -285.972582 
L 523.514236 -282.920903 
L 523.389711 -279.869223 
L 523.234693 -276.817543 
L 523.063095 -273.765864 
L 522.888192 -270.714184 
L 522.722672 -267.662504 
L 522.578508 -264.610825 
L 522.466755 -261.559145 
L 522.397307 -258.507465 
L 522.378747 -255.455786 
L 522.418353 -252.404106 
L 522.522356 -249.352426 
L 522.696458 -246.300747 
L 522.946627 -243.249067 
L 523.280092 -240.197387 
L 523.706447 -237.145708 
L 524.238709 -234.094028 
L 524.894177 -231.042348 
L 525.694913 -227.990669 
L 526.667699 -224.938989 
L 527.843353 -221.887309 
L 529.255325 -218.83563 
L 530.937586 -215.78395 
L 532.921856 -212.73227 
L 535.234328 -209.680591 
L 537.892062 -206.628911 
L 540.899322 -203.577231 
L 544.244128 -200.525552 
L 547.895328 -197.473872 
L 551.800467 -194.422192 
L 555.884723 -191.370513 
L 560.051086 -188.318833 
L 564.181925 -185.267153 
L 568.141974 -182.215474 
L 571.7827 -179.163794 
L 574.947908 -176.112114 
L 577.480377 -173.060435 
L 579.229226 -170.008755 
L 580.057632 -166.957075 
L 579.850489 -163.905396 
L 578.52152 -160.853716 
L 576.019361 -157.802036 
L 572.332141 -154.750357 
L 567.490108 -151.698677 
L 561.565989 -148.646997 
L 554.672876 -145.595318 
L 546.959639 -142.543638 
L 538.604062 -139.491958 
L 529.804122 -136.440279 
L 520.768007 -133.388599 
L 511.703618 -130.336919 
L 502.808353 -127.28524 
L 494.259966 -124.23356 
L 486.209154 -121.18188 
L 478.77438 -118.130201 
L 472.03917 -115.078521 
L 466.051907 -112.026841 
L 460.827879 -108.975162 
L 456.353177 -105.923482 
L 452.58989 -102.871802 
L 449.482011 -99.820123 
L 446.961474 -96.768443 
L 444.953843 -93.716763 
L 443.38326 -90.665084 
z
" id="m865b3239b2" style="stroke:#8a8a8a;stroke-width:1.5;"/>
    </defs>
    <g clip-path="url(#p8fb80ec018)">
     <use style="fill:#e6e6e6;stroke:#8a8a8a;stroke-width:1.5;" x="0" xlink:href="#m865b3239b2" y="462.476016"/>
    </g>
   </g>
   <g id="PolyCollection_3">
    <defs>
     <path d="M 674.698912 -125.958066 
L 673.491284 -125.958066 
L 673.261553 -128.57834 
L 672.958936 -131.198614 
L 672.565464 -133.818887 
L 672.06035 -136.439161 
L 671.420044 -139.059435 
L 670.61846 -141.679708 
L 669.627452 -144.299982 
L 668.417579 -146.920256 
L 666.959196 -149.540529 
L 665.223876 -152.160803 
L 663.186153 -154.781077 
L 660.8255 -157.40135 
L 658.128438 -160.021624 
L 655.090588 -162.641898 
L 651.718486 -165.262171 
L 648.03092 -167.882445 
L 644.05958 -170.502719 
L 639.848871 -173.122992 
L 635.454774 -175.743266 
L 630.94278 -178.36354 
L 626.384979 -180.983813 
L 621.856554 -183.604087 
L 617.431941 -186.224361 
L 613.181023 -188.844634 
L 609.165685 -191.464908 
L 605.437056 -194.085182 
L 602.033644 -196.705455 
L 598.980496 -199.325729 
L 596.289377 -201.946003 
L 593.95985 -204.566276 
L 591.981059 -207.18655 
L 590.333948 -209.806824 
L 588.99363 -212.427097 
L 587.931651 -215.047371 
L 587.117924 -217.667645 
L 586.522207 -220.287919 
L 586.115071 -222.908192 
L 585.868375 -225.528466 
L 585.755357 -228.14874 
L 585.750478 -230.769013 
L 585.829172 -233.389287 
L 585.967672 -236.009561 
L 586.143 -238.629834 
L 586.33321 -241.250108 
L 586.517877 -243.870382 
L 586.67878 -246.490655 
L 586.800666 -249.110929 
L 586.871992 -251.731203 
L 586.885475 -254.351476 
L 586.838373 -256.97175 
L 586.7324 -259.592024 
L 586.573276 -262.212297 
L 586.369947 -264.832571 
L 586.133579 -267.452845 
L 585.876444 -270.073118 
L 585.610861 -272.693392 
L 585.348305 -275.313666 
L 585.09881 -277.933939 
L 584.870708 -280.554213 
L 584.670731 -283.174487 
L 584.504425 -285.79476 
L 584.376823 -288.415034 
L 584.293287 -291.035308 
L 584.260424 -293.655581 
L 584.286999 -296.275855 
L 584.384775 -298.896129 
L 584.569214 -301.516402 
L 584.86 -304.136676 
L 585.28131 -306.75695 
L 585.861786 -309.377223 
L 586.634122 -311.997497 
L 587.634204 -314.617771 
L 588.899743 -317.238044 
L 590.468373 -319.858318 
L 592.375254 -322.478592 
L 594.650281 -325.098865 
L 597.315087 -327.719139 
L 600.380098 -330.339413 
L 603.841944 -332.959686 
L 607.681565 -335.57996 
L 611.863291 -338.200234 
L 616.335116 -340.820507 
L 621.030287 -343.440781 
L 625.870132 -346.061055 
L 630.76797 -348.681328 
L 635.633749 -351.301602 
L 640.379019 -353.921876 
L 644.921765 -356.542149 
L 649.190663 -359.162423 
L 653.128393 -361.782697 
L 656.693752 -364.40297 
L 659.86247 -367.023244 
L 662.626762 -369.643518 
L 664.993779 -372.263791 
L 666.983236 -374.884065 
L 668.62451 -377.504339 
L 669.953555 -380.124612 
L 671.00991 -382.744886 
L 671.834028 -385.36516 
L 676.356168 -385.36516 
L 676.356168 -385.36516 
L 677.180286 -382.744886 
L 678.23664 -380.124612 
L 679.565686 -377.504339 
L 681.20696 -374.884065 
L 683.196416 -372.263791 
L 685.563434 -369.643518 
L 688.327726 -367.023244 
L 691.496444 -364.40297 
L 695.061803 -361.782697 
L 698.999533 -359.162423 
L 703.268431 -356.542149 
L 707.811177 -353.921876 
L 712.556447 -351.301602 
L 717.422226 -348.681328 
L 722.320063 -346.061055 
L 727.159909 -343.440781 
L 731.85508 -340.820507 
L 736.326905 -338.200234 
L 740.50863 -335.57996 
L 744.348252 -332.959686 
L 747.810098 -330.339413 
L 750.875109 -327.719139 
L 753.539915 -325.098865 
L 755.814942 -322.478592 
L 757.721823 -319.858318 
L 759.290453 -317.238044 
L 760.555992 -314.617771 
L 761.556074 -311.997497 
L 762.32841 -309.377223 
L 762.908886 -306.75695 
L 763.330196 -304.136676 
L 763.620982 -301.516402 
L 763.805421 -298.896129 
L 763.903196 -296.275855 
L 763.929772 -293.655581 
L 763.896909 -291.035308 
L 763.813373 -288.415034 
L 763.685771 -285.79476 
L 763.519464 -283.174487 
L 763.319487 -280.554213 
L 763.091386 -277.933939 
L 762.841891 -275.313666 
L 762.579335 -272.693392 
L 762.313752 -270.073118 
L 762.056617 -267.452845 
L 761.820249 -264.832571 
L 761.61692 -262.212297 
L 761.457795 -259.592024 
L 761.351822 -256.97175 
L 761.30472 -254.351476 
L 761.318204 -251.731203 
L 761.389529 -249.110929 
L 761.511416 -246.490655 
L 761.672319 -243.870382 
L 761.856986 -241.250108 
L 762.047196 -238.629834 
L 762.222524 -236.009561 
L 762.361023 -233.389287 
L 762.439718 -230.769013 
L 762.434838 -228.14874 
L 762.321821 -225.528466 
L 762.075125 -222.908192 
L 761.667989 -220.287919 
L 761.072272 -217.667645 
L 760.258544 -215.047371 
L 759.196565 -212.427097 
L 757.856248 -209.806824 
L 756.209137 -207.18655 
L 754.230346 -204.566276 
L 751.900818 -201.946003 
L 749.209699 -199.325729 
L 746.156552 -196.705455 
L 742.75314 -194.085182 
L 739.024511 -191.464908 
L 735.009173 -188.844634 
L 730.758255 -186.224361 
L 726.333642 -183.604087 
L 721.805217 -180.983813 
L 717.247416 -178.36354 
L 712.735421 -175.743266 
L 708.341325 -173.122992 
L 704.130616 -170.502719 
L 700.159276 -167.882445 
L 696.471709 -165.262171 
L 693.099608 -162.641898 
L 690.061758 -160.021624 
L 687.364695 -157.40135 
L 685.004043 -154.781077 
L 682.96632 -152.160803 
L 681.231 -149.540529 
L 679.772616 -146.920256 
L 678.562744 -144.299982 
L 677.571736 -141.679708 
L 676.770151 -139.059435 
L 676.129845 -136.439161 
L 675.624732 -133.818887 
L 675.23126 -131.198614 
L 674.928643 -128.57834 
L 674.698912 -125.958066 
z
" id="mc4a0ce0a6f" style="stroke:#8a8a8a;stroke-width:1.5;"/>
    </defs>
    <g clip-path="url(#p8fb80ec018)">
     <use style="fill:#e6e6e6;stroke:#8a8a8a;stroke-width:1.5;" x="0" xlink:href="#mc4a0ce0a6f" y="462.476016"/>
    </g>
   </g>
   <g id="line2d_18">
    <path clip-path="url(#p8fb80ec018)" d="M 188.360468 230.492866 
L 219.455072 230.492866 
" style="fill:none;stroke:#8a8a8a;stroke-dasharray:3.375,3.375;stroke-dashoffset:0;stroke-width:1.5;"/>
   </g>
   <g id="line2d_19">
    <path clip-path="url(#p8fb80ec018)" d="M 186.845287 203.455755 
L 220.970252 203.455755 
" style="fill:none;stroke:#8a8a8a;stroke-dasharray:6.75,6.75;stroke-dashoffset:0;stroke-width:1.5;"/>
   </g>
   <g id="line2d_20">
    <path clip-path="url(#p8fb80ec018)" d="M 190.373553 162.648192 
L 217.441986 162.648192 
" style="fill:none;stroke:#8a8a8a;stroke-dasharray:3.375,3.375;stroke-dashoffset:0;stroke-width:1.5;"/>
   </g>
   <g id="line2d_21">
    <path clip-path="url(#p8fb80ec018)" d="M 299.355797 295.482689 
L 578.64707 295.482689 
" style="fill:none;stroke:#8a8a8a;stroke-dasharray:3.375,3.375;stroke-dashoffset:0;stroke-width:1.5;"/>
   </g>
   <g id="line2d_22">
    <path clip-path="url(#p8fb80ec018)" d="M 347.984643 247.118169 
L 530.018224 247.118169 
" style="fill:none;stroke:#8a8a8a;stroke-dasharray:6.75,6.75;stroke-dashoffset:0;stroke-width:1.5;"/>
   </g>
   <g id="line2d_23">
    <path clip-path="url(#p8fb80ec018)" d="M 355.457039 181.288684 
L 522.545828 181.288684 
" style="fill:none;stroke:#8a8a8a;stroke-dasharray:3.375,3.375;stroke-dashoffset:0;stroke-width:1.5;"/>
   </g>
   <g id="line2d_24">
    <path clip-path="url(#p8fb80ec018)" d="M 587.397936 240.988638 
L 760.79226 240.988638 
" style="fill:none;stroke:#8a8a8a;stroke-dasharray:3.375,3.375;stroke-dashoffset:0;stroke-width:1.5;"/>
   </g>
   <g id="line2d_25">
    <path clip-path="url(#p8fb80ec018)" d="M 587.247199 197.578123 
L 760.942997 197.578123 
" style="fill:none;stroke:#8a8a8a;stroke-dasharray:6.75,6.75;stroke-dashoffset:0;stroke-width:1.5;"/>
   </g>
   <g id="line2d_26">
    <path clip-path="url(#p8fb80ec018)" d="M 586.169448 156.770559 
L 762.020748 156.770559 
" style="fill:none;stroke:#8a8a8a;stroke-dasharray:3.375,3.375;stroke-dashoffset:0;stroke-width:1.5;"/>
   </g>
   <g id="patch_3">
    <path d="M 86.360937 391.54 
L 86.360937 59.84 
" style="fill:none;stroke:#262626;stroke-linecap:square;stroke-linejoin:miter;stroke-width:1.25;"/>
   </g>
   <g id="patch_4">
    <path d="M 86.360937 391.54 
L 791.64193 391.54 
" style="fill:none;stroke:#262626;stroke-linecap:square;stroke-linejoin:miter;stroke-width:1.25;"/>
   </g>
   <g id="PathCollection_1">
    <defs>
     <path d="M 0 5 
C 1.326016 5 2.597899 4.473168 3.535534 3.535534 
C 4.473168 2.597899 5 1.326016 5 -0 
C 5 -1.326016 4.473168 -2.597899 3.535534 -3.535534 
C 2.597899 -4.473168 1.326016 -5 0 -5 
C -1.326016 -5 -2.597899 -4.473168 -3.535534 -3.535534 
C -4.473168 -2.597899 -5 -1.326016 -5 0 
C -5 1.326016 -4.473168 2.597899 -3.535534 3.535534 
C -2.597899 4.473168 -1.326016 5 0 5 
z
" id="C0_0_ec1fe9f7f0"/>
    </defs>
    <g clip-path="url(#p8fb80ec018)">
     <use style="fill:#1f77b4;" x="203.90777" xlink:href="#C0_0_ec1fe9f7f0" y="272.308023"/>
    </g>
    <g clip-path="url(#p8fb80ec018)">
     <use style="fill:#1f77b4;" x="198.667758" xlink:href="#C0_0_ec1fe9f7f0" y="263.575541"/>
    </g>
    <g clip-path="url(#p8fb80ec018)">
     <use style="fill:#1f77b4;" x="203.90777" xlink:href="#C0_0_ec1fe9f7f0" y="254.843058"/>
    </g>
    <g clip-path="url(#p8fb80ec018)">
     <use style="fill:#1f77b4;" x="195.137301" xlink:href="#C0_0_ec1fe9f7f0" y="250.140952"/>
    </g>
    <g clip-path="url(#p8fb80ec018)">
     <use style="fill:#1f77b4;" x="203.90777" xlink:href="#C0_0_ec1fe9f7f0" y="241.408469"/>
    </g>
    <g clip-path="url(#p8fb80ec018)">
     <use style="fill:#1f77b4;" x="197.034409" xlink:href="#C0_0_ec1fe9f7f0" y="234.019445"/>
    </g>
    <g clip-path="url(#p8fb80ec018)">
     <use style="fill:#1f77b4;" x="203.90777" xlink:href="#C0_0_ec1fe9f7f0" y="219.913127"/>
    </g>
    <g clip-path="url(#p8fb80ec018)">
     <use style="fill:#1f77b4;" x="194.590377" xlink:href="#C0_0_ec1fe9f7f0" y="216.55448"/>
    </g>
    <g clip-path="url(#p8fb80ec018)">
     <use style="fill:#1f77b4;" x="210.052898" xlink:href="#C0_0_ec1fe9f7f0" y="211.852373"/>
    </g>
    <g clip-path="url(#p8fb80ec018)">
     <use style="fill:#1f77b4;" x="201.282429" xlink:href="#C0_0_ec1fe9f7f0" y="207.150267"/>
    </g>
    <g clip-path="url(#p8fb80ec018)">
     <use style="fill:#1f77b4;" x="191.617599" xlink:href="#C0_0_ec1fe9f7f0" y="205.135079"/>
    </g>
    <g clip-path="url(#p8fb80ec018)">
     <use style="fill:#1f77b4;" x="212.144501" xlink:href="#C0_0_ec1fe9f7f0" y="201.776432"/>
    </g>
    <g clip-path="url(#p8fb80ec018)">
     <use style="fill:#1f77b4;" x="221.461894" xlink:href="#C0_0_ec1fe9f7f0" y="198.417785"/>
    </g>
    <g clip-path="url(#p8fb80ec018)">
     <use style="fill:#1f77b4;" x="203.90777" xlink:href="#C0_0_ec1fe9f7f0" y="178.937631"/>
    </g>
    <g clip-path="url(#p8fb80ec018)">
     <use style="fill:#1f77b4;" x="194.24294" xlink:href="#C0_0_ec1fe9f7f0" y="176.922442"/>
    </g>
    <g clip-path="url(#p8fb80ec018)">
     <use style="fill:#1f77b4;" x="211.384345" xlink:href="#C0_0_ec1fe9f7f0" y="172.220336"/>
    </g>
    <g clip-path="url(#p8fb80ec018)">
     <use style="fill:#1f77b4;" x="203.90777" xlink:href="#C0_0_ec1fe9f7f0" y="159.457477"/>
    </g>
    <g clip-path="url(#p8fb80ec018)">
     <use style="fill:#1f77b4;" x="198.667758" xlink:href="#C0_0_ec1fe9f7f0" y="150.724994"/>
    </g>
    <g clip-path="url(#p8fb80ec018)">
     <use style="fill:#1f77b4;" x="203.90777" xlink:href="#C0_0_ec1fe9f7f0" y="140.649052"/>
    </g>
    <g clip-path="url(#p8fb80ec018)">
     <use style="fill:#1f77b4;" x="194.24294" xlink:href="#C0_0_ec1fe9f7f0" y="138.633864"/>
    </g>
    <g clip-path="url(#p8fb80ec018)">
     <use style="fill:#1f77b4;" x="203.90777" xlink:href="#C0_0_ec1fe9f7f0" y="125.871004"/>
    </g>
    <g clip-path="url(#p8fb80ec018)">
     <use style="fill:#1f77b4;" x="195.137301" xlink:href="#C0_0_ec1fe9f7f0" y="121.168898"/>
    </g>
   </g>
   <g id="PathCollection_2">
    <defs>
     <path d="M 0 5 
C 1.326016 5 2.597899 4.473168 3.535534 3.535534 
C 4.473168 2.597899 5 1.326016 5 -0 
C 5 -1.326016 4.473168 -2.597899 3.535534 -3.535534 
C 2.597899 -4.473168 1.326016 -5 0 -5 
C -1.326016 -5 -2.597899 -4.473168 -3.535534 -3.535534 
C -4.473168 -2.597899 -5 -1.326016 -5 0 
C -5 1.326016 -4.473168 2.597899 -3.535534 3.535534 
C -2.597899 4.473168 -1.326016 5 0 5 
z
" id="C1_0_a1c5859d39"/>
    </defs>
    <g clip-path="url(#p8fb80ec018)">
     <use style="fill:#1f77b4;" x="439.001434" xlink:href="#C1_0_a1c5859d39" y="326.046379"/>
    </g>
    <g clip-path="url(#p8fb80ec018)">
     <use style="fill:#1f77b4;" x="429.167488" xlink:href="#C1_0_a1c5859d39" y="325.37465"/>
    </g>
    <g clip-path="url(#p8fb80ec018)">
     <use style="fill:#1f77b4;" x="448.772304" xlink:href="#C1_0_a1c5859d39" y="324.70292"/>
    </g>
    <g clip-path="url(#p8fb80ec018)">
     <use style="fill:#1f77b4;" x="419.396618" xlink:href="#C1_0_a1c5859d39" y="324.031191"/>
    </g>
    <g clip-path="url(#p8fb80ec018)">
     <use style="fill:#1f77b4;" x="458.543174" xlink:href="#C1_0_a1c5859d39" y="323.359461"/>
    </g>
    <g clip-path="url(#p8fb80ec018)">
     <use style="fill:#1f77b4;" x="409.625748" xlink:href="#C1_0_a1c5859d39" y="322.687732"/>
    </g>
    <g clip-path="url(#p8fb80ec018)">
     <use style="fill:#1f77b4;" x="468.314044" xlink:href="#C1_0_a1c5859d39" y="322.016002"/>
    </g>
    <g clip-path="url(#p8fb80ec018)">
     <use style="fill:#1f77b4;" x="399.854878" xlink:href="#C1_0_a1c5859d39" y="321.344273"/>
    </g>
    <g clip-path="url(#p8fb80ec018)">
     <use style="fill:#1f77b4;" x="478.084914" xlink:href="#C1_0_a1c5859d39" y="320.672544"/>
    </g>
    <g clip-path="url(#p8fb80ec018)">
     <use style="fill:#1f77b4;" x="390.084008" xlink:href="#C1_0_a1c5859d39" y="320.000814"/>
    </g>
    <g clip-path="url(#p8fb80ec018)">
     <use style="fill:#1f77b4;" x="487.855784" xlink:href="#C1_0_a1c5859d39" y="319.329085"/>
    </g>
    <g clip-path="url(#p8fb80ec018)">
     <use style="fill:#1f77b4;" x="380.313138" xlink:href="#C1_0_a1c5859d39" y="318.657355"/>
    </g>
    <g clip-path="url(#p8fb80ec018)">
     <use style="fill:#1f77b4;" x="497.626654" xlink:href="#C1_0_a1c5859d39" y="317.985626"/>
    </g>
    <g clip-path="url(#p8fb80ec018)">
     <use style="fill:#1f77b4;" x="370.542268" xlink:href="#C1_0_a1c5859d39" y="317.313896"/>
    </g>
    <g clip-path="url(#p8fb80ec018)">
     <use style="fill:#1f77b4;" x="434.960585" xlink:href="#C1_0_a1c5859d39" y="316.642167"/>
    </g>
    <g clip-path="url(#p8fb80ec018)">
     <use style="fill:#1f77b4;" x="507.291484" xlink:href="#C1_0_a1c5859d39" y="315.970437"/>
    </g>
    <g clip-path="url(#p8fb80ec018)">
     <use style="fill:#1f77b4;" x="444.731455" xlink:href="#C1_0_a1c5859d39" y="315.298708"/>
    </g>
    <g clip-path="url(#p8fb80ec018)">
     <use style="fill:#1f77b4;" x="425.295755" xlink:href="#C1_0_a1c5859d39" y="314.626979"/>
    </g>
    <g clip-path="url(#p8fb80ec018)">
     <use style="fill:#1f77b4;" x="454.502325" xlink:href="#C1_0_a1c5859d39" y="313.955249"/>
    </g>
    <g clip-path="url(#p8fb80ec018)">
     <use style="fill:#1f77b4;" x="415.524885" xlink:href="#C1_0_a1c5859d39" y="313.28352"/>
    </g>
    <g clip-path="url(#p8fb80ec018)">
     <use style="fill:#1f77b4;" x="464.273195" xlink:href="#C1_0_a1c5859d39" y="312.61179"/>
    </g>
    <g clip-path="url(#p8fb80ec018)">
     <use style="fill:#1f77b4;" x="405.754015" xlink:href="#C1_0_a1c5859d39" y="311.940061"/>
    </g>
    <g clip-path="url(#p8fb80ec018)">
     <use style="fill:#1f77b4;" x="474.044065" xlink:href="#C1_0_a1c5859d39" y="311.268331"/>
    </g>
    <g clip-path="url(#p8fb80ec018)">
     <use style="fill:#1f77b4;" x="395.983145" xlink:href="#C1_0_a1c5859d39" y="310.596602"/>
    </g>
    <g clip-path="url(#p8fb80ec018)">
     <use style="fill:#1f77b4;" x="483.814935" xlink:href="#C1_0_a1c5859d39" y="309.924872"/>
    </g>
    <g clip-path="url(#p8fb80ec018)">
     <use style="fill:#1f77b4;" x="386.212275" xlink:href="#C1_0_a1c5859d39" y="309.253143"/>
    </g>
    <g clip-path="url(#p8fb80ec018)">
     <use style="fill:#1f77b4;" x="493.585805" xlink:href="#C1_0_a1c5859d39" y="308.581414"/>
    </g>
    <g clip-path="url(#p8fb80ec018)">
     <use style="fill:#1f77b4;" x="376.441405" xlink:href="#C1_0_a1c5859d39" y="307.909684"/>
    </g>
    <g clip-path="url(#p8fb80ec018)">
     <use style="fill:#1f77b4;" x="366.607459" xlink:href="#C1_0_a1c5859d39" y="307.237955"/>
    </g>
    <g clip-path="url(#p8fb80ec018)">
     <use style="fill:#1f77b4;" x="439.001434" xlink:href="#C1_0_a1c5859d39" y="306.566225"/>
    </g>
    <g clip-path="url(#p8fb80ec018)">
     <use style="fill:#1f77b4;" x="503.100192" xlink:href="#C1_0_a1c5859d39" y="305.894496"/>
    </g>
    <g clip-path="url(#p8fb80ec018)">
     <use style="fill:#1f77b4;" x="429.336604" xlink:href="#C1_0_a1c5859d39" y="305.222766"/>
    </g>
    <g clip-path="url(#p8fb80ec018)">
     <use style="fill:#1f77b4;" x="448.666263" xlink:href="#C1_0_a1c5859d39" y="304.551037"/>
    </g>
    <g clip-path="url(#p8fb80ec018)">
     <use style="fill:#1f77b4;" x="419.565734" xlink:href="#C1_0_a1c5859d39" y="303.879307"/>
    </g>
    <g clip-path="url(#p8fb80ec018)">
     <use style="fill:#1f77b4;" x="458.437133" xlink:href="#C1_0_a1c5859d39" y="303.207578"/>
    </g>
    <g clip-path="url(#p8fb80ec018)">
     <use style="fill:#1f77b4;" x="409.794864" xlink:href="#C1_0_a1c5859d39" y="302.535849"/>
    </g>
    <g clip-path="url(#p8fb80ec018)">
     <use style="fill:#1f77b4;" x="468.208003" xlink:href="#C1_0_a1c5859d39" y="301.864119"/>
    </g>
    <g clip-path="url(#p8fb80ec018)">
     <use style="fill:#1f77b4;" x="400.023994" xlink:href="#C1_0_a1c5859d39" y="301.19239"/>
    </g>
    <g clip-path="url(#p8fb80ec018)">
     <use style="fill:#1f77b4;" x="477.978873" xlink:href="#C1_0_a1c5859d39" y="300.52066"/>
    </g>
    <g clip-path="url(#p8fb80ec018)">
     <use style="fill:#1f77b4;" x="390.253124" xlink:href="#C1_0_a1c5859d39" y="299.848931"/>
    </g>
    <g clip-path="url(#p8fb80ec018)">
     <use style="fill:#1f77b4;" x="487.749743" xlink:href="#C1_0_a1c5859d39" y="299.177201"/>
    </g>
    <g clip-path="url(#p8fb80ec018)">
     <use style="fill:#1f77b4;" x="380.529829" xlink:href="#C1_0_a1c5859d39" y="298.169607"/>
    </g>
    <g clip-path="url(#p8fb80ec018)">
     <use style="fill:#1f77b4;" x="497.414573" xlink:href="#C1_0_a1c5859d39" y="297.162013"/>
    </g>
    <g clip-path="url(#p8fb80ec018)">
     <use style="fill:#1f77b4;" x="436.90983" xlink:href="#C1_0_a1c5859d39" y="296.490284"/>
    </g>
    <g clip-path="url(#p8fb80ec018)">
     <use style="fill:#1f77b4;" x="370.934555" xlink:href="#C1_0_a1c5859d39" y="295.818554"/>
    </g>
    <g clip-path="url(#p8fb80ec018)">
     <use style="fill:#1f77b4;" x="427.245001" xlink:href="#C1_0_a1c5859d39" y="295.146825"/>
    </g>
    <g clip-path="url(#p8fb80ec018)">
     <use style="fill:#1f77b4;" x="446.57466" xlink:href="#C1_0_a1c5859d39" y="294.475095"/>
    </g>
    <g clip-path="url(#p8fb80ec018)">
     <use style="fill:#1f77b4;" x="417.474131" xlink:href="#C1_0_a1c5859d39" y="293.803366"/>
    </g>
    <g clip-path="url(#p8fb80ec018)">
     <use style="fill:#1f77b4;" x="456.34553" xlink:href="#C1_0_a1c5859d39" y="293.131636"/>
    </g>
    <g clip-path="url(#p8fb80ec018)">
     <use style="fill:#1f77b4;" x="407.703261" xlink:href="#C1_0_a1c5859d39" y="292.459907"/>
    </g>
    <g clip-path="url(#p8fb80ec018)">
     <use style="fill:#1f77b4;" x="466.1164" xlink:href="#C1_0_a1c5859d39" y="291.788177"/>
    </g>
    <g clip-path="url(#p8fb80ec018)">
     <use style="fill:#1f77b4;" x="397.932391" xlink:href="#C1_0_a1c5859d39" y="291.116448"/>
    </g>
    <g clip-path="url(#p8fb80ec018)">
     <use style="fill:#1f77b4;" x="475.88727" xlink:href="#C1_0_a1c5859d39" y="290.444719"/>
    </g>
    <g clip-path="url(#p8fb80ec018)">
     <use style="fill:#1f77b4;" x="388.161521" xlink:href="#C1_0_a1c5859d39" y="289.772989"/>
    </g>
    <g clip-path="url(#p8fb80ec018)">
     <use style="fill:#1f77b4;" x="485.65814" xlink:href="#C1_0_a1c5859d39" y="289.10126"/>
    </g>
    <g clip-path="url(#p8fb80ec018)">
     <use style="fill:#1f77b4;" x="502.654585" xlink:href="#C1_0_a1c5859d39" y="288.42953"/>
    </g>
    <g clip-path="url(#p8fb80ec018)">
     <use style="fill:#1f77b4;" x="378.496691" xlink:href="#C1_0_a1c5859d39" y="287.757801"/>
    </g>
    <g clip-path="url(#p8fb80ec018)">
     <use style="fill:#1f77b4;" x="365.694543" xlink:href="#C1_0_a1c5859d39" y="287.086071"/>
    </g>
    <g clip-path="url(#p8fb80ec018)">
     <use style="fill:#1f77b4;" x="439.001434" xlink:href="#C1_0_a1c5859d39" y="286.414342"/>
    </g>
    <g clip-path="url(#p8fb80ec018)">
     <use style="fill:#1f77b4;" x="512.168972" xlink:href="#C1_0_a1c5859d39" y="285.742612"/>
    </g>
    <g clip-path="url(#p8fb80ec018)">
     <use style="fill:#1f77b4;" x="429.336604" xlink:href="#C1_0_a1c5859d39" y="285.070883"/>
    </g>
    <g clip-path="url(#p8fb80ec018)">
     <use style="fill:#1f77b4;" x="448.666263" xlink:href="#C1_0_a1c5859d39" y="284.399154"/>
    </g>
    <g clip-path="url(#p8fb80ec018)">
     <use style="fill:#1f77b4;" x="419.613309" xlink:href="#C1_0_a1c5859d39" y="283.391559"/>
    </g>
    <g clip-path="url(#p8fb80ec018)">
     <use style="fill:#1f77b4;" x="458.331092" xlink:href="#C1_0_a1c5859d39" y="282.383965"/>
    </g>
    <g clip-path="url(#p8fb80ec018)">
     <use style="fill:#1f77b4;" x="409.94848" xlink:href="#C1_0_a1c5859d39" y="281.376371"/>
    </g>
    <g clip-path="url(#p8fb80ec018)">
     <use style="fill:#1f77b4;" x="467.995922" xlink:href="#C1_0_a1c5859d39" y="280.368777"/>
    </g>
    <g clip-path="url(#p8fb80ec018)">
     <use style="fill:#1f77b4;" x="400.225185" xlink:href="#C1_0_a1c5859d39" y="279.697047"/>
    </g>
    <g clip-path="url(#p8fb80ec018)">
     <use style="fill:#1f77b4;" x="477.719217" xlink:href="#C1_0_a1c5859d39" y="278.689453"/>
    </g>
    <g clip-path="url(#p8fb80ec018)">
     <use style="fill:#1f77b4;" x="390.629911" xlink:href="#C1_0_a1c5859d39" y="277.345994"/>
    </g>
    <g clip-path="url(#p8fb80ec018)">
     <use style="fill:#1f77b4;" x="439.001434" xlink:href="#C1_0_a1c5859d39" y="276.002535"/>
    </g>
    <g clip-path="url(#p8fb80ec018)">
     <use style="fill:#1f77b4;" x="429.230564" xlink:href="#C1_0_a1c5859d39" y="274.659077"/>
    </g>
    <g clip-path="url(#p8fb80ec018)">
     <use style="fill:#1f77b4;" x="448.596708" xlink:href="#C1_0_a1c5859d39" y="273.651482"/>
    </g>
    <g clip-path="url(#p8fb80ec018)">
     <use style="fill:#1f77b4;" x="419.635289" xlink:href="#C1_0_a1c5859d39" y="272.308023"/>
    </g>
    <g clip-path="url(#p8fb80ec018)">
     <use style="fill:#1f77b4;" x="458.018583" xlink:href="#C1_0_a1c5859d39" y="270.6287"/>
    </g>
    <g clip-path="url(#p8fb80ec018)">
     <use style="fill:#1f77b4;" x="410.213414" xlink:href="#C1_0_a1c5859d39" y="269.285241"/>
    </g>
    <g clip-path="url(#p8fb80ec018)">
     <use style="fill:#1f77b4;" x="467.532971" xlink:href="#C1_0_a1c5859d39" y="267.941782"/>
    </g>
    <g clip-path="url(#p8fb80ec018)">
     <use style="fill:#1f77b4;" x="400.699027" xlink:href="#C1_0_a1c5859d39" y="266.598323"/>
    </g>
    <g clip-path="url(#p8fb80ec018)">
     <use style="fill:#1f77b4;" x="439.001434" xlink:href="#C1_0_a1c5859d39" y="265.254864"/>
    </g>
    <g clip-path="url(#p8fb80ec018)">
     <use style="fill:#1f77b4;" x="429.278139" xlink:href="#C1_0_a1c5859d39" y="263.575541"/>
    </g>
    <g clip-path="url(#p8fb80ec018)">
     <use style="fill:#1f77b4;" x="448.318826" xlink:href="#C1_0_a1c5859d39" y="261.896217"/>
    </g>
    <g clip-path="url(#p8fb80ec018)">
     <use style="fill:#1f77b4;" x="419.856264" xlink:href="#C1_0_a1c5859d39" y="260.552758"/>
    </g>
    <g clip-path="url(#p8fb80ec018)">
     <use style="fill:#1f77b4;" x="457.833214" xlink:href="#C1_0_a1c5859d39" y="259.209299"/>
    </g>
    <g clip-path="url(#p8fb80ec018)">
     <use style="fill:#1f77b4;" x="410.341877" xlink:href="#C1_0_a1c5859d39" y="257.86584"/>
    </g>
    <g clip-path="url(#p8fb80ec018)">
     <use style="fill:#1f77b4;" x="467.347601" xlink:href="#C1_0_a1c5859d39" y="256.522382"/>
    </g>
    <g clip-path="url(#p8fb80ec018)">
     <use style="fill:#1f77b4;" x="439.001434" xlink:href="#C1_0_a1c5859d39" y="254.843058"/>
    </g>
    <g clip-path="url(#p8fb80ec018)">
     <use style="fill:#1f77b4;" x="429.278139" xlink:href="#C1_0_a1c5859d39" y="253.163734"/>
    </g>
    <g clip-path="url(#p8fb80ec018)">
     <use style="fill:#1f77b4;" x="450.41043" xlink:href="#C1_0_a1c5859d39" y="251.820275"/>
    </g>
    <g clip-path="url(#p8fb80ec018)">
     <use style="fill:#1f77b4;" x="419.856264" xlink:href="#C1_0_a1c5859d39" y="250.140952"/>
    </g>
    <g clip-path="url(#p8fb80ec018)">
     <use style="fill:#1f77b4;" x="459.727822" xlink:href="#C1_0_a1c5859d39" y="248.461628"/>
    </g>
    <g clip-path="url(#p8fb80ec018)">
     <use style="fill:#1f77b4;" x="410.434388" xlink:href="#C1_0_a1c5859d39" y="247.118169"/>
    </g>
    <g clip-path="url(#p8fb80ec018)">
     <use style="fill:#1f77b4;" x="469.24221" xlink:href="#C1_0_a1c5859d39" y="245.77471"/>
    </g>
    <g clip-path="url(#p8fb80ec018)">
     <use style="fill:#1f77b4;" x="439.001434" xlink:href="#C1_0_a1c5859d39" y="244.431252"/>
    </g>
    <g clip-path="url(#p8fb80ec018)">
     <use style="fill:#1f77b4;" x="427.186536" xlink:href="#C1_0_a1c5859d39" y="243.087793"/>
    </g>
    <g clip-path="url(#p8fb80ec018)">
     <use style="fill:#1f77b4;" x="448.423309" xlink:href="#C1_0_a1c5859d39" y="241.408469"/>
    </g>
    <g clip-path="url(#p8fb80ec018)">
     <use style="fill:#1f77b4;" x="417.869143" xlink:href="#C1_0_a1c5859d39" y="239.729145"/>
    </g>
    <g clip-path="url(#p8fb80ec018)">
     <use style="fill:#1f77b4;" x="457.636219" xlink:href="#C1_0_a1c5859d39" y="238.385687"/>
    </g>
    <g clip-path="url(#p8fb80ec018)">
     <use style="fill:#1f77b4;" x="408.354756" xlink:href="#C1_0_a1c5859d39" y="237.042228"/>
    </g>
    <g clip-path="url(#p8fb80ec018)">
     <use style="fill:#1f77b4;" x="433.761422" xlink:href="#C1_0_a1c5859d39" y="235.698769"/>
    </g>
    <g clip-path="url(#p8fb80ec018)">
     <use style="fill:#1f77b4;" x="466.563898" xlink:href="#C1_0_a1c5859d39" y="234.019445"/>
    </g>
    <g clip-path="url(#p8fb80ec018)">
     <use style="fill:#1f77b4;" x="443.078814" xlink:href="#C1_0_a1c5859d39" y="232.340122"/>
    </g>
    <g clip-path="url(#p8fb80ec018)">
     <use style="fill:#1f77b4;" x="424.990953" xlink:href="#C1_0_a1c5859d39" y="230.996663"/>
    </g>
    <g clip-path="url(#p8fb80ec018)">
     <use style="fill:#1f77b4;" x="452.396207" xlink:href="#C1_0_a1c5859d39" y="229.653204"/>
    </g>
    <g clip-path="url(#p8fb80ec018)">
     <use style="fill:#1f77b4;" x="415.476566" xlink:href="#C1_0_a1c5859d39" y="228.309745"/>
    </g>
    <g clip-path="url(#p8fb80ec018)">
     <use style="fill:#1f77b4;" x="405.705696" xlink:href="#C1_0_a1c5859d39" y="226.966286"/>
    </g>
    <g clip-path="url(#p8fb80ec018)">
     <use style="fill:#1f77b4;" x="435.853025" xlink:href="#C1_0_a1c5859d39" y="225.622827"/>
    </g>
    <g clip-path="url(#p8fb80ec018)">
     <use style="fill:#1f77b4;" x="460.806808" xlink:href="#C1_0_a1c5859d39" y="224.279368"/>
    </g>
    <g clip-path="url(#p8fb80ec018)">
     <use style="fill:#1f77b4;" x="470.577678" xlink:href="#C1_0_a1c5859d39" y="222.935909"/>
    </g>
    <g clip-path="url(#p8fb80ec018)">
     <use style="fill:#1f77b4;" x="444.923839" xlink:href="#C1_0_a1c5859d39" y="221.59245"/>
    </g>
    <g clip-path="url(#p8fb80ec018)">
     <use style="fill:#1f77b4;" x="427.647077" xlink:href="#C1_0_a1c5859d39" y="219.913127"/>
    </g>
    <g clip-path="url(#p8fb80ec018)">
     <use style="fill:#1f77b4;" x="417.923782" xlink:href="#C1_0_a1c5859d39" y="218.233803"/>
    </g>
    <g clip-path="url(#p8fb80ec018)">
     <use style="fill:#1f77b4;" x="453.522252" xlink:href="#C1_0_a1c5859d39" y="216.55448"/>
    </g>
    <g clip-path="url(#p8fb80ec018)">
     <use style="fill:#1f77b4;" x="437.447263" xlink:href="#C1_0_a1c5859d39" y="214.875156"/>
    </g>
    <g clip-path="url(#p8fb80ec018)">
     <use style="fill:#1f77b4;" x="462.944127" xlink:href="#C1_0_a1c5859d39" y="213.531697"/>
    </g>
    <g clip-path="url(#p8fb80ec018)">
     <use style="fill:#1f77b4;" x="410.183105" xlink:href="#C1_0_a1c5859d39" y="211.852373"/>
    </g>
    <g clip-path="url(#p8fb80ec018)">
     <use style="fill:#1f77b4;" x="424.413707" xlink:href="#C1_0_a1c5859d39" y="210.17305"/>
    </g>
    <g clip-path="url(#p8fb80ec018)">
     <use style="fill:#1f77b4;" x="445.430426" xlink:href="#C1_0_a1c5859d39" y="208.829591"/>
    </g>
    <g clip-path="url(#p8fb80ec018)">
     <use style="fill:#1f77b4;" x="470.684805" xlink:href="#C1_0_a1c5859d39" y="207.150267"/>
    </g>
    <g clip-path="url(#p8fb80ec018)">
     <use style="fill:#1f77b4;" x="434.213893" xlink:href="#C1_0_a1c5859d39" y="205.135079"/>
    </g>
    <g clip-path="url(#p8fb80ec018)">
     <use style="fill:#1f77b4;" x="453.841027" xlink:href="#C1_0_a1c5859d39" y="203.455755"/>
    </g>
    <g clip-path="url(#p8fb80ec018)">
     <use style="fill:#1f77b4;" x="418.69416" xlink:href="#C1_0_a1c5859d39" y="201.776432"/>
    </g>
    <g clip-path="url(#p8fb80ec018)">
     <use style="fill:#1f77b4;" x="463.158419" xlink:href="#C1_0_a1c5859d39" y="200.097108"/>
    </g>
    <g clip-path="url(#p8fb80ec018)">
     <use style="fill:#1f77b4;" x="441.690469" xlink:href="#C1_0_a1c5859d39" y="198.417785"/>
    </g>
    <g clip-path="url(#p8fb80ec018)">
     <use style="fill:#1f77b4;" x="428.494347" xlink:href="#C1_0_a1c5859d39" y="196.738461"/>
    </g>
    <g clip-path="url(#p8fb80ec018)">
     <use style="fill:#1f77b4;" x="410.953483" xlink:href="#C1_0_a1c5859d39" y="195.395002"/>
    </g>
    <g clip-path="url(#p8fb80ec018)">
     <use style="fill:#1f77b4;" x="471.141582" xlink:href="#C1_0_a1c5859d39" y="194.051543"/>
    </g>
    <g clip-path="url(#p8fb80ec018)">
     <use style="fill:#1f77b4;" x="449.896418" xlink:href="#C1_0_a1c5859d39" y="192.708084"/>
    </g>
    <g clip-path="url(#p8fb80ec018)">
     <use style="fill:#1f77b4;" x="420.083746" xlink:href="#C1_0_a1c5859d39" y="191.364625"/>
    </g>
    <g clip-path="url(#p8fb80ec018)">
     <use style="fill:#1f77b4;" x="435.970923" xlink:href="#C1_0_a1c5859d39" y="190.021166"/>
    </g>
    <g clip-path="url(#p8fb80ec018)">
     <use style="fill:#1f77b4;" x="458.967231" xlink:href="#C1_0_a1c5859d39" y="188.677708"/>
    </g>
    <g clip-path="url(#p8fb80ec018)">
     <use style="fill:#1f77b4;" x="404.808355" xlink:href="#C1_0_a1c5859d39" y="187.334249"/>
    </g>
    <g clip-path="url(#p8fb80ec018)">
     <use style="fill:#1f77b4;" x="477.28671" xlink:href="#C1_0_a1c5859d39" y="185.99079"/>
    </g>
    <g clip-path="url(#p8fb80ec018)">
     <use style="fill:#1f77b4;" x="427.560322" xlink:href="#C1_0_a1c5859d39" y="184.647331"/>
    </g>
    <g clip-path="url(#p8fb80ec018)">
     <use style="fill:#1f77b4;" x="443.447498" xlink:href="#C1_0_a1c5859d39" y="183.303872"/>
    </g>
    <g clip-path="url(#p8fb80ec018)">
     <use style="fill:#1f77b4;" x="416.042898" xlink:href="#C1_0_a1c5859d39" y="181.960413"/>
    </g>
    <g clip-path="url(#p8fb80ec018)">
     <use style="fill:#1f77b4;" x="452.822103" xlink:href="#C1_0_a1c5859d39" y="180.616954"/>
    </g>
    <g clip-path="url(#p8fb80ec018)">
     <use style="fill:#1f77b4;" x="462.200601" xlink:href="#C1_0_a1c5859d39" y="178.937631"/>
    </g>
    <g clip-path="url(#p8fb80ec018)">
     <use style="fill:#1f77b4;" x="435.706821" xlink:href="#C1_0_a1c5859d39" y="176.922442"/>
    </g>
    <g clip-path="url(#p8fb80ec018)">
     <use style="fill:#1f77b4;" x="423.519473" xlink:href="#C1_0_a1c5859d39" y="175.243119"/>
    </g>
    <g clip-path="url(#p8fb80ec018)">
     <use style="fill:#1f77b4;" x="409.897769" xlink:href="#C1_0_a1c5859d39" y="173.89966"/>
    </g>
    <g clip-path="url(#p8fb80ec018)">
     <use style="fill:#1f77b4;" x="444.47729" xlink:href="#C1_0_a1c5859d39" y="172.220336"/>
    </g>
    <g clip-path="url(#p8fb80ec018)">
     <use style="fill:#1f77b4;" x="454.913706" xlink:href="#C1_0_a1c5859d39" y="170.541013"/>
    </g>
    <g clip-path="url(#p8fb80ec018)">
     <use style="fill:#1f77b4;" x="465.433971" xlink:href="#C1_0_a1c5859d39" y="169.197554"/>
    </g>
    <g clip-path="url(#p8fb80ec018)">
     <use style="fill:#1f77b4;" x="431.016816" xlink:href="#C1_0_a1c5859d39" y="167.854095"/>
    </g>
    <g clip-path="url(#p8fb80ec018)">
     <use style="fill:#1f77b4;" x="418.279461" xlink:href="#C1_0_a1c5859d39" y="166.510636"/>
    </g>
    <g clip-path="url(#p8fb80ec018)">
     <use style="fill:#1f77b4;" x="404.657757" xlink:href="#C1_0_a1c5859d39" y="165.167177"/>
    </g>
    <g clip-path="url(#p8fb80ec018)">
     <use style="fill:#1f77b4;" x="473.844572" xlink:href="#C1_0_a1c5859d39" y="163.823718"/>
    </g>
    <g clip-path="url(#p8fb80ec018)">
     <use style="fill:#1f77b4;" x="439.427417" xlink:href="#C1_0_a1c5859d39" y="162.480259"/>
    </g>
    <g clip-path="url(#p8fb80ec018)">
     <use style="fill:#1f77b4;" x="449.198287" xlink:href="#C1_0_a1c5859d39" y="161.1368"/>
    </g>
    <g clip-path="url(#p8fb80ec018)">
     <use style="fill:#1f77b4;" x="425.467937" xlink:href="#C1_0_a1c5859d39" y="159.457477"/>
    </g>
    <g clip-path="url(#p8fb80ec018)">
     <use style="fill:#1f77b4;" x="458.51568" xlink:href="#C1_0_a1c5859d39" y="157.778153"/>
    </g>
    <g clip-path="url(#p8fb80ec018)">
     <use style="fill:#1f77b4;" x="416.187858" xlink:href="#C1_0_a1c5859d39" y="156.434694"/>
    </g>
    <g clip-path="url(#p8fb80ec018)">
     <use style="fill:#1f77b4;" x="468.030067" xlink:href="#C1_0_a1c5859d39" y="155.091235"/>
    </g>
    <g clip-path="url(#p8fb80ec018)">
     <use style="fill:#1f77b4;" x="434.187405" xlink:href="#C1_0_a1c5859d39" y="153.747776"/>
    </g>
    <g clip-path="url(#p8fb80ec018)">
     <use style="fill:#1f77b4;" x="443.958275" xlink:href="#C1_0_a1c5859d39" y="152.404318"/>
    </g>
    <g clip-path="url(#p8fb80ec018)">
     <use style="fill:#1f77b4;" x="407.981909" xlink:href="#C1_0_a1c5859d39" y="150.724994"/>
    </g>
    <g clip-path="url(#p8fb80ec018)">
     <use style="fill:#1f77b4;" x="425.416936" xlink:href="#C1_0_a1c5859d39" y="149.04567"/>
    </g>
    <g clip-path="url(#p8fb80ec018)">
     <use style="fill:#1f77b4;" x="452.728744" xlink:href="#C1_0_a1c5859d39" y="147.702211"/>
    </g>
    <g clip-path="url(#p8fb80ec018)">
     <use style="fill:#1f77b4;" x="462.499614" xlink:href="#C1_0_a1c5859d39" y="146.358753"/>
    </g>
    <g clip-path="url(#p8fb80ec018)">
     <use style="fill:#1f77b4;" x="416.346122" xlink:href="#C1_0_a1c5859d39" y="145.015294"/>
    </g>
    <g clip-path="url(#p8fb80ec018)">
     <use style="fill:#1f77b4;" x="438.718263" xlink:href="#C1_0_a1c5859d39" y="143.671835"/>
    </g>
    <g clip-path="url(#p8fb80ec018)">
     <use style="fill:#1f77b4;" x="471.570428" xlink:href="#C1_0_a1c5859d39" y="142.328376"/>
    </g>
    <g clip-path="url(#p8fb80ec018)">
     <use style="fill:#1f77b4;" x="405.890306" xlink:href="#C1_0_a1c5859d39" y="140.649052"/>
    </g>
    <g clip-path="url(#p8fb80ec018)">
     <use style="fill:#1f77b4;" x="447.316677" xlink:href="#C1_0_a1c5859d39" y="138.633864"/>
    </g>
    <g clip-path="url(#p8fb80ec018)">
     <use style="fill:#1f77b4;" x="431.241688" xlink:href="#C1_0_a1c5859d39" y="136.95454"/>
    </g>
    <g clip-path="url(#p8fb80ec018)">
     <use style="fill:#1f77b4;" x="421.470818" xlink:href="#C1_0_a1c5859d39" y="135.611081"/>
    </g>
    <g clip-path="url(#p8fb80ec018)">
     <use style="fill:#1f77b4;" x="456.244355" xlink:href="#C1_0_a1c5859d39" y="134.267623"/>
    </g>
    <g clip-path="url(#p8fb80ec018)">
     <use style="fill:#1f77b4;" x="466.015225" xlink:href="#C1_0_a1c5859d39" y="132.924164"/>
    </g>
    <g clip-path="url(#p8fb80ec018)">
     <use style="fill:#1f77b4;" x="439.652288" xlink:href="#C1_0_a1c5859d39" y="131.580705"/>
    </g>
    <g clip-path="url(#p8fb80ec018)">
     <use style="fill:#1f77b4;" x="413.060217" xlink:href="#C1_0_a1c5859d39" y="130.237246"/>
    </g>
    <g clip-path="url(#p8fb80ec018)">
     <use style="fill:#1f77b4;" x="403.289347" xlink:href="#C1_0_a1c5859d39" y="128.893787"/>
    </g>
    <g clip-path="url(#p8fb80ec018)">
     <use style="fill:#1f77b4;" x="448.723102" xlink:href="#C1_0_a1c5859d39" y="127.550328"/>
    </g>
    <g clip-path="url(#p8fb80ec018)">
     <use style="fill:#1f77b4;" x="431.44634" xlink:href="#C1_0_a1c5859d39" y="125.871004"/>
    </g>
    <g clip-path="url(#p8fb80ec018)">
     <use style="fill:#1f77b4;" x="421.723045" xlink:href="#C1_0_a1c5859d39" y="124.191681"/>
    </g>
    <g clip-path="url(#p8fb80ec018)">
     <use style="fill:#1f77b4;" x="457.493571" xlink:href="#C1_0_a1c5859d39" y="122.848222"/>
    </g>
    <g clip-path="url(#p8fb80ec018)">
     <use style="fill:#1f77b4;" x="440.216809" xlink:href="#C1_0_a1c5859d39" y="121.168898"/>
    </g>
    <g clip-path="url(#p8fb80ec018)">
     <use style="fill:#1f77b4;" x="412.952576" xlink:href="#C1_0_a1c5859d39" y="119.489575"/>
    </g>
    <g clip-path="url(#p8fb80ec018)">
     <use style="fill:#1f77b4;" x="466.26404" xlink:href="#C1_0_a1c5859d39" y="118.146116"/>
    </g>
    <g clip-path="url(#p8fb80ec018)">
     <use style="fill:#1f77b4;" x="449.144487" xlink:href="#C1_0_a1c5859d39" y="116.802657"/>
    </g>
    <g clip-path="url(#p8fb80ec018)">
     <use style="fill:#1f77b4;" x="432.01086" xlink:href="#C1_0_a1c5859d39" y="115.459198"/>
    </g>
   </g>
   <g id="PathCollection_3">
    <defs>
     <path d="M 0 5 
C 1.326016 5 2.597899 4.473168 3.535534 3.535534 
C 4.473168 2.597899 5 1.326016 5 -0 
C 5 -1.326016 4.473168 -2.597899 3.535534 -3.535534 
C 2.597899 -4.473168 1.326016 -5 0 -5 
C -1.326016 -5 -2.597899 -4.473168 -3.535534 -3.535534 
C -4.473168 -2.597899 -5 -1.326016 -5 0 
C -5 1.326016 -4.473168 2.597899 -3.535534 3.535534 
C -2.597899 4.473168 -1.326016 5 0 5 
z
" id="C2_0_7b7ea37d35"/>
    </defs>
    <g clip-path="url(#p8fb80ec018)">
     <use style="fill:#1f77b4;" x="674.095098" xlink:href="#C2_0_7b7ea37d35" y="298.169607"/>
    </g>
    <g clip-path="url(#p8fb80ec018)">
     <use style="fill:#1f77b4;" x="674.095098" xlink:href="#C2_0_7b7ea37d35" y="283.391559"/>
    </g>
    <g clip-path="url(#p8fb80ec018)">
     <use style="fill:#1f77b4;" x="664.430269" xlink:href="#C2_0_7b7ea37d35" y="281.376371"/>
    </g>
    <g clip-path="url(#p8fb80ec018)">
     <use style="fill:#1f77b4;" x="682.865567" xlink:href="#C2_0_7b7ea37d35" y="278.689453"/>
    </g>
    <g clip-path="url(#p8fb80ec018)">
     <use style="fill:#1f77b4;" x="692.636437" xlink:href="#C2_0_7b7ea37d35" y="277.345994"/>
    </g>
    <g clip-path="url(#p8fb80ec018)">
     <use style="fill:#1f77b4;" x="656.019668" xlink:href="#C2_0_7b7ea37d35" y="276.002535"/>
    </g>
    <g clip-path="url(#p8fb80ec018)">
     <use style="fill:#1f77b4;" x="646.248798" xlink:href="#C2_0_7b7ea37d35" y="274.659077"/>
    </g>
    <g clip-path="url(#p8fb80ec018)">
     <use style="fill:#1f77b4;" x="674.095098" xlink:href="#C2_0_7b7ea37d35" y="272.308023"/>
    </g>
    <g clip-path="url(#p8fb80ec018)">
     <use style="fill:#1f77b4;" x="664.430269" xlink:href="#C2_0_7b7ea37d35" y="270.6287"/>
    </g>
    <g clip-path="url(#p8fb80ec018)">
     <use style="fill:#1f77b4;" x="698.781565" xlink:href="#C2_0_7b7ea37d35" y="269.285241"/>
    </g>
    <g clip-path="url(#p8fb80ec018)">
     <use style="fill:#1f77b4;" x="683.022776" xlink:href="#C2_0_7b7ea37d35" y="267.941782"/>
    </g>
    <g clip-path="url(#p8fb80ec018)">
     <use style="fill:#1f77b4;" x="640.10367" xlink:href="#C2_0_7b7ea37d35" y="266.598323"/>
    </g>
    <g clip-path="url(#p8fb80ec018)">
     <use style="fill:#1f77b4;" x="656.019668" xlink:href="#C2_0_7b7ea37d35" y="265.254864"/>
    </g>
    <g clip-path="url(#p8fb80ec018)">
     <use style="fill:#1f77b4;" x="706.987514" xlink:href="#C2_0_7b7ea37d35" y="263.575541"/>
    </g>
    <g clip-path="url(#p8fb80ec018)">
     <use style="fill:#1f77b4;" x="674.095098" xlink:href="#C2_0_7b7ea37d35" y="261.896217"/>
    </g>
    <g clip-path="url(#p8fb80ec018)">
     <use style="fill:#1f77b4;" x="689.896137" xlink:href="#C2_0_7b7ea37d35" y="260.552758"/>
    </g>
    <g clip-path="url(#p8fb80ec018)">
     <use style="fill:#1f77b4;" x="664.580711" xlink:href="#C2_0_7b7ea37d35" y="259.209299"/>
    </g>
    <g clip-path="url(#p8fb80ec018)">
     <use style="fill:#1f77b4;" x="649.146307" xlink:href="#C2_0_7b7ea37d35" y="257.86584"/>
    </g>
    <g clip-path="url(#p8fb80ec018)">
     <use style="fill:#1f77b4;" x="698.966951" xlink:href="#C2_0_7b7ea37d35" y="256.522382"/>
    </g>
    <g clip-path="url(#p8fb80ec018)">
     <use style="fill:#1f77b4;" x="681.283574" xlink:href="#C2_0_7b7ea37d35" y="254.843058"/>
    </g>
    <g clip-path="url(#p8fb80ec018)">
     <use style="fill:#1f77b4;" x="640.375838" xlink:href="#C2_0_7b7ea37d35" y="253.163734"/>
    </g>
    <g clip-path="url(#p8fb80ec018)">
     <use style="fill:#1f77b4;" x="672.003495" xlink:href="#C2_0_7b7ea37d35" y="251.820275"/>
    </g>
    <g clip-path="url(#p8fb80ec018)">
     <use style="fill:#1f77b4;" x="659.890706" xlink:href="#C2_0_7b7ea37d35" y="250.140952"/>
    </g>
    <g clip-path="url(#p8fb80ec018)">
     <use style="fill:#1f77b4;" x="689.024251" xlink:href="#C2_0_7b7ea37d35" y="248.461628"/>
    </g>
    <g clip-path="url(#p8fb80ec018)">
     <use style="fill:#1f77b4;" x="650.468831" xlink:href="#C2_0_7b7ea37d35" y="247.118169"/>
    </g>
    <g clip-path="url(#p8fb80ec018)">
     <use style="fill:#1f77b4;" x="698.538638" xlink:href="#C2_0_7b7ea37d35" y="245.77471"/>
    </g>
    <g clip-path="url(#p8fb80ec018)">
     <use style="fill:#1f77b4;" x="678.876855" xlink:href="#C2_0_7b7ea37d35" y="244.431252"/>
    </g>
    <g clip-path="url(#p8fb80ec018)">
     <use style="fill:#1f77b4;" x="666.763483" xlink:href="#C2_0_7b7ea37d35" y="243.087793"/>
    </g>
    <g clip-path="url(#p8fb80ec018)">
     <use style="fill:#1f77b4;" x="642.262883" xlink:href="#C2_0_7b7ea37d35" y="241.408469"/>
    </g>
    <g clip-path="url(#p8fb80ec018)">
     <use style="fill:#1f77b4;" x="657.44609" xlink:href="#C2_0_7b7ea37d35" y="239.729145"/>
    </g>
    <g clip-path="url(#p8fb80ec018)">
     <use style="fill:#1f77b4;" x="686.860018" xlink:href="#C2_0_7b7ea37d35" y="238.385687"/>
    </g>
    <g clip-path="url(#p8fb80ec018)">
     <use style="fill:#1f77b4;" x="703.77865" xlink:href="#C2_0_7b7ea37d35" y="237.042228"/>
    </g>
    <g clip-path="url(#p8fb80ec018)">
     <use style="fill:#1f77b4;" x="673.636843" xlink:href="#C2_0_7b7ea37d35" y="235.698769"/>
    </g>
    <g clip-path="url(#p8fb80ec018)">
     <use style="fill:#1f77b4;" x="649.240141" xlink:href="#C2_0_7b7ea37d35" y="234.019445"/>
    </g>
    <g clip-path="url(#p8fb80ec018)">
     <use style="fill:#1f77b4;" x="664.31945" xlink:href="#C2_0_7b7ea37d35" y="232.340122"/>
    </g>
    <g clip-path="url(#p8fb80ec018)">
     <use style="fill:#1f77b4;" x="693.733378" xlink:href="#C2_0_7b7ea37d35" y="230.996663"/>
    </g>
    <g clip-path="url(#p8fb80ec018)">
     <use style="fill:#1f77b4;" x="681.620006" xlink:href="#C2_0_7b7ea37d35" y="229.653204"/>
    </g>
    <g clip-path="url(#p8fb80ec018)">
     <use style="fill:#1f77b4;" x="641.034193" xlink:href="#C2_0_7b7ea37d35" y="228.309745"/>
    </g>
    <g clip-path="url(#p8fb80ec018)">
     <use style="fill:#1f77b4;" x="705.870253" xlink:href="#C2_0_7b7ea37d35" y="226.966286"/>
    </g>
    <g clip-path="url(#p8fb80ec018)">
     <use style="fill:#1f77b4;" x="671.54524" xlink:href="#C2_0_7b7ea37d35" y="225.622827"/>
    </g>
    <g clip-path="url(#p8fb80ec018)">
     <use style="fill:#1f77b4;" x="658.174322" xlink:href="#C2_0_7b7ea37d35" y="224.279368"/>
    </g>
    <g clip-path="url(#p8fb80ec018)">
     <use style="fill:#1f77b4;" x="714.941067" xlink:href="#C2_0_7b7ea37d35" y="222.935909"/>
    </g>
    <g clip-path="url(#p8fb80ec018)">
     <use style="fill:#1f77b4;" x="687.765134" xlink:href="#C2_0_7b7ea37d35" y="221.59245"/>
    </g>
    <g clip-path="url(#p8fb80ec018)">
     <use style="fill:#1f77b4;" x="697.488429" xlink:href="#C2_0_7b7ea37d35" y="219.913127"/>
    </g>
    <g clip-path="url(#p8fb80ec018)">
     <use style="fill:#1f77b4;" x="678.4186" xlink:href="#C2_0_7b7ea37d35" y="218.233803"/>
    </g>
    <g clip-path="url(#p8fb80ec018)">
     <use style="fill:#1f77b4;" x="666.855235" xlink:href="#C2_0_7b7ea37d35" y="216.55448"/>
    </g>
    <g clip-path="url(#p8fb80ec018)">
     <use style="fill:#1f77b4;" x="654.133473" xlink:href="#C2_0_7b7ea37d35" y="214.875156"/>
    </g>
    <g clip-path="url(#p8fb80ec018)">
     <use style="fill:#1f77b4;" x="644.362603" xlink:href="#C2_0_7b7ea37d35" y="213.531697"/>
    </g>
    <g clip-path="url(#p8fb80ec018)">
     <use style="fill:#1f77b4;" x="690.998504" xlink:href="#C2_0_7b7ea37d35" y="211.852373"/>
    </g>
    <g clip-path="url(#p8fb80ec018)">
     <use style="fill:#1f77b4;" x="700.721799" xlink:href="#C2_0_7b7ea37d35" y="210.17305"/>
    </g>
    <g clip-path="url(#p8fb80ec018)">
     <use style="fill:#1f77b4;" x="674.095098" xlink:href="#C2_0_7b7ea37d35" y="208.829591"/>
    </g>
    <g clip-path="url(#p8fb80ec018)">
     <use style="fill:#1f77b4;" x="662.814386" xlink:href="#C2_0_7b7ea37d35" y="207.150267"/>
    </g>
    <g clip-path="url(#p8fb80ec018)">
     <use style="fill:#1f77b4;" x="683.29563" xlink:href="#C2_0_7b7ea37d35" y="205.135079"/>
    </g>
    <g clip-path="url(#p8fb80ec018)">
     <use style="fill:#1f77b4;" x="653.613855" xlink:href="#C2_0_7b7ea37d35" y="203.455755"/>
    </g>
    <g clip-path="url(#p8fb80ec018)">
     <use style="fill:#1f77b4;" x="693.090107" xlink:href="#C2_0_7b7ea37d35" y="201.776432"/>
    </g>
    <g clip-path="url(#p8fb80ec018)">
     <use style="fill:#1f77b4;" x="702.813402" xlink:href="#C2_0_7b7ea37d35" y="200.097108"/>
    </g>
    <g clip-path="url(#p8fb80ec018)">
     <use style="fill:#1f77b4;" x="674.095098" xlink:href="#C2_0_7b7ea37d35" y="198.417785"/>
    </g>
    <g clip-path="url(#p8fb80ec018)">
     <use style="fill:#1f77b4;" x="664.371803" xlink:href="#C2_0_7b7ea37d35" y="196.738461"/>
    </g>
    <g clip-path="url(#p8fb80ec018)">
     <use style="fill:#1f77b4;" x="647.468727" xlink:href="#C2_0_7b7ea37d35" y="195.395002"/>
    </g>
    <g clip-path="url(#p8fb80ec018)">
     <use style="fill:#1f77b4;" x="683.022776" xlink:href="#C2_0_7b7ea37d35" y="194.051543"/>
    </g>
    <g clip-path="url(#p8fb80ec018)">
     <use style="fill:#1f77b4;" x="709.686763" xlink:href="#C2_0_7b7ea37d35" y="192.708084"/>
    </g>
    <g clip-path="url(#p8fb80ec018)">
     <use style="fill:#1f77b4;" x="692.537163" xlink:href="#C2_0_7b7ea37d35" y="191.364625"/>
    </g>
    <g clip-path="url(#p8fb80ec018)">
     <use style="fill:#1f77b4;" x="656.895228" xlink:href="#C2_0_7b7ea37d35" y="190.021166"/>
    </g>
    <g clip-path="url(#p8fb80ec018)">
     <use style="fill:#1f77b4;" x="670.861728" xlink:href="#C2_0_7b7ea37d35" y="188.677708"/>
    </g>
    <g clip-path="url(#p8fb80ec018)">
     <use style="fill:#1f77b4;" x="701.276162" xlink:href="#C2_0_7b7ea37d35" y="187.334249"/>
    </g>
    <g clip-path="url(#p8fb80ec018)">
     <use style="fill:#1f77b4;" x="643.427878" xlink:href="#C2_0_7b7ea37d35" y="185.99079"/>
    </g>
    <g clip-path="url(#p8fb80ec018)">
     <use style="fill:#1f77b4;" x="633.657008" xlink:href="#C2_0_7b7ea37d35" y="184.647331"/>
    </g>
    <g clip-path="url(#p8fb80ec018)">
     <use style="fill:#1f77b4;" x="679.272329" xlink:href="#C2_0_7b7ea37d35" y="183.303872"/>
    </g>
    <g clip-path="url(#p8fb80ec018)">
     <use style="fill:#1f77b4;" x="663.385152" xlink:href="#C2_0_7b7ea37d35" y="181.960413"/>
    </g>
    <g clip-path="url(#p8fb80ec018)">
     <use style="fill:#1f77b4;" x="688.786716" xlink:href="#C2_0_7b7ea37d35" y="180.616954"/>
    </g>
    <g clip-path="url(#p8fb80ec018)">
     <use style="fill:#1f77b4;" x="653.963277" xlink:href="#C2_0_7b7ea37d35" y="178.937631"/>
    </g>
    <g clip-path="url(#p8fb80ec018)">
     <use style="fill:#1f77b4;" x="697.987247" xlink:href="#C2_0_7b7ea37d35" y="176.922442"/>
    </g>
    <g clip-path="url(#p8fb80ec018)">
     <use style="fill:#1f77b4;" x="673.1272" xlink:href="#C2_0_7b7ea37d35" y="175.243119"/>
    </g>
    <g clip-path="url(#p8fb80ec018)">
     <use style="fill:#1f77b4;" x="645.364864" xlink:href="#C2_0_7b7ea37d35" y="173.89966"/>
    </g>
    <g clip-path="url(#p8fb80ec018)">
     <use style="fill:#1f77b4;" x="682.549076" xlink:href="#C2_0_7b7ea37d35" y="172.220336"/>
    </g>
    <g clip-path="url(#p8fb80ec018)">
     <use style="fill:#1f77b4;" x="664.356731" xlink:href="#C2_0_7b7ea37d35" y="170.541013"/>
    </g>
    <g clip-path="url(#p8fb80ec018)">
     <use style="fill:#1f77b4;" x="704.514566" xlink:href="#C2_0_7b7ea37d35" y="169.197554"/>
    </g>
    <g clip-path="url(#p8fb80ec018)">
     <use style="fill:#1f77b4;" x="691.476754" xlink:href="#C2_0_7b7ea37d35" y="167.854095"/>
    </g>
    <g clip-path="url(#p8fb80ec018)">
     <use style="fill:#1f77b4;" x="655.285918" xlink:href="#C2_0_7b7ea37d35" y="166.510636"/>
    </g>
    <g clip-path="url(#p8fb80ec018)">
     <use style="fill:#1f77b4;" x="675.218804" xlink:href="#C2_0_7b7ea37d35" y="165.167177"/>
    </g>
    <g clip-path="url(#p8fb80ec018)">
     <use style="fill:#1f77b4;" x="643.273261" xlink:href="#C2_0_7b7ea37d35" y="163.823718"/>
    </g>
    <g clip-path="url(#p8fb80ec018)">
     <use style="fill:#1f77b4;" x="711.991142" xlink:href="#C2_0_7b7ea37d35" y="162.480259"/>
    </g>
    <g clip-path="url(#p8fb80ec018)">
     <use style="fill:#1f77b4;" x="684.000179" xlink:href="#C2_0_7b7ea37d35" y="161.1368"/>
    </g>
    <g clip-path="url(#p8fb80ec018)">
     <use style="fill:#1f77b4;" x="667.012855" xlink:href="#C2_0_7b7ea37d35" y="159.457477"/>
    </g>
    <g clip-path="url(#p8fb80ec018)">
     <use style="fill:#1f77b4;" x="693.568357" xlink:href="#C2_0_7b7ea37d35" y="157.778153"/>
    </g>
    <g clip-path="url(#p8fb80ec018)">
     <use style="fill:#1f77b4;" x="657.59098" xlink:href="#C2_0_7b7ea37d35" y="156.434694"/>
    </g>
    <g clip-path="url(#p8fb80ec018)">
     <use style="fill:#1f77b4;" x="703.082744" xlink:href="#C2_0_7b7ea37d35" y="155.091235"/>
    </g>
    <g clip-path="url(#p8fb80ec018)">
     <use style="fill:#1f77b4;" x="675.218804" xlink:href="#C2_0_7b7ea37d35" y="153.747776"/>
    </g>
    <g clip-path="url(#p8fb80ec018)">
     <use style="fill:#1f77b4;" x="648.520166" xlink:href="#C2_0_7b7ea37d35" y="152.404318"/>
    </g>
    <g clip-path="url(#p8fb80ec018)">
     <use style="fill:#1f77b4;" x="684.640679" xlink:href="#C2_0_7b7ea37d35" y="150.724994"/>
    </g>
    <g clip-path="url(#p8fb80ec018)">
     <use style="fill:#1f77b4;" x="666.448335" xlink:href="#C2_0_7b7ea37d35" y="149.04567"/>
    </g>
    <g clip-path="url(#p8fb80ec018)">
     <use style="fill:#1f77b4;" x="695.659961" xlink:href="#C2_0_7b7ea37d35" y="147.702211"/>
    </g>
    <g clip-path="url(#p8fb80ec018)">
     <use style="fill:#1f77b4;" x="640.537003" xlink:href="#C2_0_7b7ea37d35" y="146.358753"/>
    </g>
    <g clip-path="url(#p8fb80ec018)">
     <use style="fill:#1f77b4;" x="657.377521" xlink:href="#C2_0_7b7ea37d35" y="145.015294"/>
    </g>
    <g clip-path="url(#p8fb80ec018)">
     <use style="fill:#1f77b4;" x="677.310407" xlink:href="#C2_0_7b7ea37d35" y="143.671835"/>
    </g>
    <g clip-path="url(#p8fb80ec018)">
     <use style="fill:#1f77b4;" x="704.070561" xlink:href="#C2_0_7b7ea37d35" y="142.328376"/>
    </g>
    <g clip-path="url(#p8fb80ec018)">
     <use style="fill:#1f77b4;" x="686.732282" xlink:href="#C2_0_7b7ea37d35" y="140.649052"/>
    </g>
    <g clip-path="url(#p8fb80ec018)">
     <use style="fill:#1f77b4;" x="668.711994" xlink:href="#C2_0_7b7ea37d35" y="138.633864"/>
    </g>
    <g clip-path="url(#p8fb80ec018)">
     <use style="fill:#1f77b4;" x="695.659961" xlink:href="#C2_0_7b7ea37d35" y="136.95454"/>
    </g>
    <g clip-path="url(#p8fb80ec018)">
     <use style="fill:#1f77b4;" x="653.336672" xlink:href="#C2_0_7b7ea37d35" y="135.611081"/>
    </g>
    <g clip-path="url(#p8fb80ec018)">
     <use style="fill:#1f77b4;" x="643.565802" xlink:href="#C2_0_7b7ea37d35" y="134.267623"/>
    </g>
    <g clip-path="url(#p8fb80ec018)">
     <use style="fill:#1f77b4;" x="676.917942" xlink:href="#C2_0_7b7ea37d35" y="132.924164"/>
    </g>
    <g clip-path="url(#p8fb80ec018)">
     <use style="fill:#1f77b4;" x="704.070561" xlink:href="#C2_0_7b7ea37d35" y="131.580705"/>
    </g>
    <g clip-path="url(#p8fb80ec018)">
     <use style="fill:#1f77b4;" x="662.992447" xlink:href="#C2_0_7b7ea37d35" y="130.237246"/>
    </g>
    <g clip-path="url(#p8fb80ec018)">
     <use style="fill:#1f77b4;" x="685.988756" xlink:href="#C2_0_7b7ea37d35" y="128.893787"/>
    </g>
    <g clip-path="url(#p8fb80ec018)">
     <use style="fill:#1f77b4;" x="636.089226" xlink:href="#C2_0_7b7ea37d35" y="127.550328"/>
    </g>
    <g clip-path="url(#p8fb80ec018)">
     <use style="fill:#1f77b4;" x="695.410631" xlink:href="#C2_0_7b7ea37d35" y="125.871004"/>
    </g>
    <g clip-path="url(#p8fb80ec018)">
     <use style="fill:#1f77b4;" x="671.67793" xlink:href="#C2_0_7b7ea37d35" y="124.191681"/>
    </g>
    <g clip-path="url(#p8fb80ec018)">
     <use style="fill:#1f77b4;" x="656.119087" xlink:href="#C2_0_7b7ea37d35" y="122.848222"/>
    </g>
    <g clip-path="url(#p8fb80ec018)">
     <use style="fill:#1f77b4;" x="646.395792" xlink:href="#C2_0_7b7ea37d35" y="121.168898"/>
    </g>
    <g clip-path="url(#p8fb80ec018)">
     <use style="fill:#1f77b4;" x="680.448399" xlink:href="#C2_0_7b7ea37d35" y="119.489575"/>
    </g>
    <g clip-path="url(#p8fb80ec018)">
     <use style="fill:#1f77b4;" x="701.93795" xlink:href="#C2_0_7b7ea37d35" y="118.146116"/>
    </g>
    <g clip-path="url(#p8fb80ec018)">
     <use style="fill:#1f77b4;" x="664.80457" xlink:href="#C2_0_7b7ea37d35" y="116.802657"/>
    </g>
    <g clip-path="url(#p8fb80ec018)">
     <use style="fill:#1f77b4;" x="689.519213" xlink:href="#C2_0_7b7ea37d35" y="115.459198"/>
    </g>
   </g>
  </g>
  <g id="legend_1">
   <g id="line2d_27">
    <path d="M 156.95818 22.515625 
L 196.95818 22.515625 
" style="fill:none;stroke:#8a8a8a;stroke-dasharray:3.375,3.375;stroke-dashoffset:0;stroke-width:1.5;"/>
   </g>
   <g id="line2d_28"/>
   <g id="text_12">
    <!-- Top and bottom quartiles -->
    <g style="fill:#262626;" transform="translate(212.95818 29.515625)scale(0.2 -0.2)">
     <defs>
      <path d="M 1659 0 
L 1659 4041 
L 150 4041 
L 150 4581 
L 3781 4581 
L 3781 4041 
L 2266 4041 
L 2266 0 
L 1659 0 
z
" id="ArialMT-54" transform="scale(0.015625)"/>
      <path d="M 422 -1272 
L 422 3319 
L 934 3319 
L 934 2888 
Q 1116 3141 1344 3267 
Q 1572 3394 1897 3394 
Q 2322 3394 2647 3175 
Q 2972 2956 3137 2557 
Q 3303 2159 3303 1684 
Q 3303 1175 3120 767 
Q 2938 359 2589 142 
Q 2241 -75 1856 -75 
Q 1575 -75 1351 44 
Q 1128 163 984 344 
L 984 -1272 
L 422 -1272 
z
M 931 1641 
Q 931 1000 1190 694 
Q 1450 388 1819 388 
Q 2194 388 2461 705 
Q 2728 1022 2728 1688 
Q 2728 2322 2467 2637 
Q 2206 2953 1844 2953 
Q 1484 2953 1207 2617 
Q 931 2281 931 1641 
z
" id="ArialMT-70" transform="scale(0.015625)"/>
      <path d="M 941 0 
L 419 0 
L 419 4581 
L 981 4581 
L 981 2947 
Q 1338 3394 1891 3394 
Q 2197 3394 2470 3270 
Q 2744 3147 2920 2923 
Q 3097 2700 3197 2384 
Q 3297 2069 3297 1709 
Q 3297 856 2875 390 
Q 2453 -75 1863 -75 
Q 1275 -75 941 416 
L 941 0 
z
M 934 1684 
Q 934 1088 1097 822 
Q 1363 388 1816 388 
Q 2184 388 2453 708 
Q 2722 1028 2722 1663 
Q 2722 2313 2464 2622 
Q 2206 2931 1841 2931 
Q 1472 2931 1203 2611 
Q 934 2291 934 1684 
z
" id="ArialMT-62" transform="scale(0.015625)"/>
      <path d="M 2538 -1272 
L 2538 353 
Q 2406 169 2170 47 
Q 1934 -75 1669 -75 
Q 1078 -75 651 397 
Q 225 869 225 1691 
Q 225 2191 398 2587 
Q 572 2984 901 3189 
Q 1231 3394 1625 3394 
Q 2241 3394 2594 2875 
L 2594 3319 
L 3100 3319 
L 3100 -1272 
L 2538 -1272 
z
M 803 1669 
Q 803 1028 1072 708 
Q 1341 388 1716 388 
Q 2075 388 2334 692 
Q 2594 997 2594 1619 
Q 2594 2281 2320 2615 
Q 2047 2950 1678 2950 
Q 1313 2950 1058 2639 
Q 803 2328 803 1669 
z
" id="ArialMT-71" transform="scale(0.015625)"/>
      <path d="M 2597 0 
L 2597 488 
Q 2209 -75 1544 -75 
Q 1250 -75 995 37 
Q 741 150 617 320 
Q 494 491 444 738 
Q 409 903 409 1263 
L 409 3319 
L 972 3319 
L 972 1478 
Q 972 1038 1006 884 
Q 1059 663 1231 536 
Q 1403 409 1656 409 
Q 1909 409 2131 539 
Q 2353 669 2445 892 
Q 2538 1116 2538 1541 
L 2538 3319 
L 3100 3319 
L 3100 0 
L 2597 0 
z
" id="ArialMT-75" transform="scale(0.015625)"/>
     </defs>
     <use xlink:href="#ArialMT-54"/>
     <use x="49.958984" xlink:href="#ArialMT-6f"/>
     <use x="105.574219" xlink:href="#ArialMT-70"/>
     <use x="161.189453" xlink:href="#ArialMT-20"/>
     <use x="188.972656" xlink:href="#ArialMT-61"/>
     <use x="244.587891" xlink:href="#ArialMT-6e"/>
     <use x="300.203125" xlink:href="#ArialMT-64"/>
     <use x="355.818359" xlink:href="#ArialMT-20"/>
     <use x="383.601562" xlink:href="#ArialMT-62"/>
     <use x="439.216797" xlink:href="#ArialMT-6f"/>
     <use x="494.832031" xlink:href="#ArialMT-74"/>
     <use x="522.615234" xlink:href="#ArialMT-74"/>
     <use x="550.398438" xlink:href="#ArialMT-6f"/>
     <use x="606.013672" xlink:href="#ArialMT-6d"/>
     <use x="689.314453" xlink:href="#ArialMT-20"/>
     <use x="717.097656" xlink:href="#ArialMT-71"/>
     <use x="772.712891" xlink:href="#ArialMT-75"/>
     <use x="828.328125" xlink:href="#ArialMT-61"/>
     <use x="883.943359" xlink:href="#ArialMT-72"/>
     <use x="917.244141" xlink:href="#ArialMT-74"/>
     <use x="945.027344" xlink:href="#ArialMT-69"/>
     <use x="967.244141" xlink:href="#ArialMT-6c"/>
     <use x="989.460938" xlink:href="#ArialMT-65"/>
     <use x="1045.076172" xlink:href="#ArialMT-73"/>
    </g>
   </g>
   <g id="line2d_29">
    <path d="M 471.955055 22.515625 
L 511.955055 22.515625 
" style="fill:none;stroke:#8a8a8a;stroke-dasharray:6.75,6.75;stroke-dashoffset:0;stroke-width:1.5;"/>
   </g>
   <g id="line2d_30"/>
   <g id="text_13">
    <!-- Median -->
    <g style="fill:#262626;" transform="translate(527.955055 29.515625)scale(0.2 -0.2)">
     <defs>
      <path d="M 475 0 
L 475 4581 
L 1388 4581 
L 2472 1338 
Q 2622 884 2691 659 
Q 2769 909 2934 1394 
L 4031 4581 
L 4847 4581 
L 4847 0 
L 4263 0 
L 4263 3834 
L 2931 0 
L 2384 0 
L 1059 3900 
L 1059 0 
L 475 0 
z
" id="ArialMT-4d" transform="scale(0.015625)"/>
     </defs>
     <use xlink:href="#ArialMT-4d"/>
     <use x="83.300781" xlink:href="#ArialMT-65"/>
     <use x="138.916016" xlink:href="#ArialMT-64"/>
     <use x="194.53125" xlink:href="#ArialMT-69"/>
     <use x="216.748047" xlink:href="#ArialMT-61"/>
     <use x="272.363281" xlink:href="#ArialMT-6e"/>
    </g>
   </g>
  </g>
 </g>
 <defs>
  <clipPath id="p8fb80ec018">
   <rect height="331.7" width="705.280992" x="86.360937" y="59.84"/>
  </clipPath>
 </defs>
</svg>
