{"asset":{"generator":"3D Builder","version":"2.0"},"scene":0,"scenes":[{"nodes":[0]}],"nodes":[{"mesh":0,"matrix":[1,0,0,0,0,-1.1920928955078125E-7,-0.99999988079071045,0,0,0.99999988079071045,-1.1920928955078125E-7,0,0,0.68605500459671021,-0.022040558978915215,1]}],"meshes":[{"primitives":[{"attributes":{"POSITION":0,"COLOR_0":1},"mode":4,"indices":2}]}],"accessors":[{"bufferView":0,"byteOffset":0,"count":1586717,"componentType":5126,"type":"VEC3","min":[-1.0064711570739746,-2.4233973026275635,-0.686055064201355],"max":[1.0064711570739746,2.3781673908233643,0.76104521751403809]},{"bufferView":1,"byteOffset":0,"count":1586717,"componentType":5121,"type":"VEC4","normalized":true},{"bufferView":2,"byteOffset":0,"count":9194238,"componentType":5125,"type":"SCALAR"}],"bufferViews":[{"buffer":0,"byteOffset":0,"byteLength":19040604,"byteStride":12,"target":34962},{"buffer":0,"byteOffset":19040604,"byteLength":6346868,"byteStride":4,"target":34962},{"buffer":0,"byteOffset":25387472,"byteLength":36776952,"target":34963}],"buffers":[{"byteLength":62164424,"uri":"V60.bin"}]}